SplineFontDB: 3.2
FontName: TDAText
FullName: TDAText
FamilyName: TDAText
Weight: Condensed
Copyright: Copyright (c) 2024-2025 Dmitry Tretyakov\n\nBased on Philips SAA52XX/SAA55XX/TDA93XX IC character set:\nCopyright (c) 1993-2001 NXP Semiconductors N.V.

StartChar: exclam
Encoding: 33 33 4
Width: 350
Flags: HW
HStem: 0 100<137 213> 680 20G<137 213>
VStem: 137 75<0 100 200 700>
LayerCount: 2
Back
Fore
SplineSet
137 700 m 29
 213 700 l 25
 213 200 l 25
 137 200 l 25
 137 700 l 29
213 0 m 25
 137 0 l 1
 137 100 l 25
 213 100 l 1
 213 0 l 25
EndSplineSet
Validated: 1
EndChar

StartChar: asterisk
Encoding: 42 42 5
Width: 350
Flags: HW
HStem: 0 21G<137 213> 100 100<-13 25 325 363> 300 100<100 137 213 250> 500 100<-13 25 325 363> 680 20G<137 213>
VStem: -13 75<100 200 500 600> 25 75<200 300 400 500> 137 75<0 300 400 700> 250 75<200 300 400 500> 287 75<100 200 500 600>
LayerCount: 2
Back
Fore
SplineSet
-13 600 m 29xfd
 63 600 l 25
 63 500 l 25xfd
 99 500 l 25
 100 400 l 25
 137 400 l 25
 137 700 l 25
 213 700 l 25
 213 400 l 25
 250 400 l 25
 250 500 l 25xfb80
 287 500 l 25
 287 600 l 25
 363 600 l 25
 363 500 l 25xf940
 325 500 l 25
 325 400 l 25xf980
 287 400 l 25
 287 300 l 25xf940
 325 300 l 25
 325 200 l 25xf980
 363 200 l 25
 363 100 l 25
 287 100 l 25
 287 200 l 25xf940
 250 200 l 25
 250 300 l 25
 213 300 l 25
 213 0 l 25
 137 0 l 25
 137 300 l 25
 100 300 l 25
 100 200 l 25xfb80
 63 200 l 25
 63 100 l 25
 -13 100 l 25
 -13 200 l 25xfd
 25 200 l 25
 25 300 l 25xfb
 63 300 l 25
 63 400 l 25xfd
 25 400 l 25
 25 500 l 25xfb
 -13 500 l 25
 -13 600 l 29xfd
EndSplineSet
Validated: 1
EndChar

StartChar: plus
Encoding: 43 43 6
Width: 350
Flags: HW
HStem: 250 100<25 137 213 325>
VStem: 137 75<50 250 350 550>
LayerCount: 2
Back
Fore
SplineSet
137 550 m 29
 213 550 l 25
 213 350 l 25
 325 350 l 25
 325 250 l 25
 213 250 l 25
 213 50 l 25
 137 50 l 25
 137 250 l 25
 25 250 l 25
 25 350 l 25
 137 350 l 25
 137 550 l 29
EndSplineSet
Validated: 1
EndChar

StartChar: comma
Encoding: 44 44 7
Width: 350
Flags: HW
HStem: -200 100<119 156> 0 100<119 156>
VStem: 119 75<-200 -100> 156 75<-100 0>
LayerCount: 2
Back
Fore
SplineSet
119 -100 m 5xe0
 156 -100 l 29
 156 0 l 5xd0
 119 0 l 29
 119 100 l 29xe0
 231 100 l 29
 231 -100 l 29xd0
 194 -100 l 29
 194 -200 l 29
 119 -200 l 29
 119 -100 l 5xe0
EndSplineSet
Validated: 1
EndChar

StartChar: hyphen
Encoding: 45 45 8
Width: 350
Flags: HW
HStem: 250 100<25 325>
LayerCount: 2
Back
Fore
SplineSet
25 250 m 29
 25 350 l 25
 325 350 l 25
 325 250 l 25
 25 250 l 29
EndSplineSet
Validated: 1
EndChar

StartChar: period
Encoding: 46 46 9
Width: 350
Flags: HW
HStem: 0 100<137 213>
VStem: 137 75<0 100>
LayerCount: 2
Back
Fore
SplineSet
213 0 m 29
 137 0 l 29
 137 100 l 29
 213 100 l 29
 213 0 l 29
EndSplineSet
Validated: 1
EndChar

StartChar: slash
Encoding: 47 47 10
Width: 350
Flags: HW
HStem: 0 100<25 63> 600 100<287 325>
VStem: 25 75<0 100> 63 75<100 200> 100 75<200 300> 137 75<300 400> 175 75<400 500> 213 75<500 600> 250 75<600 700>
LayerCount: 2
Back
Fore
SplineSet
250 700 m 29xc080
 325 700 l 25
 325 600 l 25xc080
 287 600 l 25
 287 500 l 25xc1
 250 500 l 25
 250 400 l 25xc2
 213 400 l 25
 213 300 l 25xc4
 175 300 l 25
 175 200 l 25xc8
 137 200 l 25
 137 100 l 25xd0
 100 100 l 25
 100 0 l 25
 25 0 l 25
 25 100 l 25xe0
 63 100 l 25
 63 200 l 25xd0
 100 200 l 25
 100 300 l 25xc8
 137 300 l 25
 137 400 l 25xc4
 175 400 l 25
 175 500 l 25xc2
 213 500 l 25
 213 600 l 25xc1
 250 600 l 25
 250 700 l 29xc080
EndSplineSet
Validated: 1
EndChar

StartChar: zero
Encoding: 48 48 11
Width: 350
Flags: HW
HStem: 0 100<119 231> 600 100<119 231>
VStem: 6 112<100 600> 231 112<100 600>
LayerCount: 2
Back
Fore
SplineSet
231 600 m 29
 119 600 l 25
 119 100 l 25
 231 100 l 25
 231 600 l 29
44 700 m 25
 306 700 l 25
 306 600 l 25
 344 600 l 25
 344 100 l 25
 306 100 l 25
 306 0 l 25
 44 0 l 25
 44 100 l 25
 6 100 l 25
 6 600 l 25
 44 600 l 25
 44 700 l 25
EndSplineSet
Validated: 1
EndChar

StartChar: one
Encoding: 49 49 12
Width: 350
Flags: HW
HStem: 0 21G<156 269> 500 100<81 156> 680 20G<156 269>
VStem: 156 112<0 500 600 700>
LayerCount: 2
Back
Fore
SplineSet
81 500 m 29
 81 600 l 29
 156 600 l 29
 156 700 l 29
 269 700 l 29
 269 0 l 29
 156 0 l 29
 156 500 l 29
 81 500 l 29
EndSplineSet
Validated: 1
EndChar

StartChar: two
Encoding: 50 50 13
Width: 350
Flags: HW
HStem: 0 100<6 44 194 344> 500 100<6 44> 600 100<81 231>
VStem: 6 75<500 600> 194 112<300 400> 231 112<400 600>
LayerCount: 2
Back
Fore
SplineSet
81 500 m 29xd4
 6 500 l 1
 6 600 l 25
 44 600 l 25xd4
 44 700 l 25
 306 700 l 25
 306 600 l 25xb8
 344 600 l 25
 344 400 l 25xb4
 306 400 l 25
 306 300 l 25
 269 300 l 25
 269 200 l 25
 194 200 l 25
 194 100 l 25xb8
 344 100 l 25
 344 0 l 25xb4
 6 0 l 25
 6 100 l 25
 44 100 l 25
 44 200 l 25
 119 200 l 25
 119 300 l 25
 194 300 l 25
 194 400 l 25xb8
 231 400 l 25
 231 600 l 25
 81 600 l 1xb4
 81 500 l 29xd4
EndSplineSet
Validated: 1
EndChar

StartChar: three
Encoding: 51 51 14
Width: 350
Flags: HW
HStem: 0 100<6 269> 300 100<119 194> 600 100<6 231 306 344>
VStem: 194 75<400 500> 231 75<500 600> 269 75<100 300>
CounterMasks: 1 e0
LayerCount: 2
Back
Fore
SplineSet
6 700 m 29xe8
 344 700 l 25
 344 600 l 25xe4
 306 600 l 25
 306 500 l 25xe8
 269 500 l 25
 269 400 l 25xf0
 344 400 l 25
 344 100 l 25xe4
 306 100 l 25
 306 0 l 25xe8
 6 0 l 25
 6 100 l 25
 269 100 l 25
 269 300 l 25xe4
 119 300 l 25
 119 400 l 25
 194 400 l 25
 194 500 l 25xf0
 231 500 l 25
 231 600 l 25
 6 601 l 25
 6 700 l 29xe8
EndSplineSet
Validated: 1
EndChar

StartChar: four
Encoding: 52 52 15
Width: 350
Flags: HW
HStem: 0 21G<231 344> 100 100<119 231> 600 100<306 344>
VStem: 6 112<200 300> 44 112<300 400> 119 112<400 500> 231 112<0 100 200 300 600 700>
LayerCount: 2
Back
Fore
SplineSet
231 700 m 29xea
 344 700 l 25
 344 600 l 25xea
 306 600 l 25
 306 500 l 25
 231 500 l 25
 231 400 l 25xe4
 156 400 l 25
 156 300 l 25xe8
 119 300 l 25
 119 200 l 25
 231 200 l 25
 231 300 l 25
 344 300 l 25
 344 0 l 25
 231 0 l 25
 231 100 l 25
 6 100 l 25
 6 300 l 25xf2
 44 300 l 25
 44 400 l 25xe8
 119 400 l 25
 119 500 l 25xe4
 156 500 l 25
 156 600 l 25
 231 600 l 25
 231 700 l 29xea
EndSplineSet
Validated: 1
EndChar

StartChar: five
Encoding: 53 53 16
Width: 350
Flags: HW
HStem: 0 100<81 231> 100 100<6 44> 300 100<81 231> 600 100<81 306>
VStem: 6 75<100 200 400 600> 231 112<100 300>
LayerCount: 2
Back
Fore
SplineSet
306 700 m 29xbc
 306 600 l 25
 81 600 l 25
 81 400 l 25
 306 400 l 25
 306 300 l 25
 344 300 l 25
 344 100 l 25
 306 100 l 25x7c
 306 0 l 25
 44 0 l 25xbc
 44 100 l 25
 6 100 l 25
 6 200 l 25
 81 200 l 25x7c
 81 100 l 25
 231 100 l 25
 231 300 l 25
 6 300 l 25
 6 700 l 25
 306 700 l 29xbc
EndSplineSet
Validated: 1
EndChar

StartChar: six
Encoding: 54 54 17
Width: 350
Flags: HW
HStem: 0 100<118 269> 300 100<156 269> 600 100<194 231>
VStem: 6 112<100 300> 44 112<400 500> 81 112<500 600> 119 112<600 700> 269 75<100 300>
CounterMasks: 1 e0
LayerCount: 2
Back
Fore
SplineSet
269 300 m 29xf1
 118 300 l 25
 118 100 l 25
 269 100 l 25
 269 300 l 29xf1
231 700 m 25xe3
 231 600 l 25xe3
 194 600 l 25
 194 500 l 25xe5
 156 500 l 25
 156 400 l 25
 306 400 l 25
 306 300 l 25
 344 300 l 25
 344 100 l 25
 306 100 l 25
 306 0 l 25
 44 0 l 25
 44 100 l 25xe9
 6 100 l 25
 6 400 l 25xf1
 44 400 l 25
 44 500 l 25xe9
 81 500 l 25
 81 600 l 25xe5
 119 600 l 25
 119 700 l 25
 231 700 l 25xe3
EndSplineSet
Validated: 1
EndChar

StartChar: seven
Encoding: 55 55 18
Width: 350
Flags: HW
HStem: 0 100<25 63> 600 100<-13 213 325 363>
VStem: 25 112<0 100> 63 112<100 200> 100 112<200 300> 137 112<300 400> 175 112<400 500> 213 112<500 600>
LayerCount: 2
Back
Fore
SplineSet
-13 700 m 1xc1
 363 700 l 25
 363 600 l 25
 325 600 l 25
 325 500 l 25xc1
 287 500 l 25
 287 400 l 25xc2
 250 400 l 25
 250 300 l 25xc4
 213 300 l 25
 213 200 l 25xc8
 175 200 l 25
 175 100 l 25xd0
 137 100 l 25
 137 0 l 25
 25 0 l 25
 25 100 l 25xe0
 63 100 l 25
 63 200 l 25xd0
 100 200 l 25
 100 300 l 25xc8
 137 300 l 25
 137 400 l 25xc4
 175 400 l 25
 175 500 l 25xc2
 213 500 l 25
 213 600 l 1
 -13 600 l 25
 -13 700 l 1xc1
EndSplineSet
Validated: 1
EndChar

StartChar: eight
Encoding: 56 56 19
Width: 350
Flags: HW
HStem: 0 100<119 231> 300 100<119 231> 600 100<119 231>
VStem: 6 112<100 300 400 600> 231 112<100 300 400 600>
CounterMasks: 1 e0
LayerCount: 2
Back
Fore
SplineSet
119 100 m 29
 231 100 l 25
 231 300 l 25
 119 300 l 25
 119 100 l 29
119 600 m 25
 119 400 l 25
 231 400 l 25
 231 600 l 25
 119 600 l 25
44 700 m 25
 306 700 l 25
 306 600 l 25
 344 600 l 25
 344 400 l 25
 269 400 l 25
 269 300 l 25
 344 300 l 25
 344 100 l 25
 306 100 l 25
 306 0 l 25
 44 0 l 25
 44 100 l 25
 6 100 l 25
 6 300 l 25
 81 300 l 25
 81 400 l 25
 6 400 l 25
 6 600 l 25
 44 600 l 25
 44 700 l 25
EndSplineSet
Validated: 1
EndChar

StartChar: nine
Encoding: 57 57 20
Width: 350
Flags: HW
HStem: 0 100<119 156> 300 100<81 194> 600 100<81 231>
VStem: 6 75<400 600> 119 112<0 100> 156 112<100 200> 194 112<200 300> 231 112<400 600>
CounterMasks: 1 e0
LayerCount: 2
Back
Fore
SplineSet
81 600 m 29xf1
 81 400 l 25
 231 400 l 25
 231 600 l 25
 81 600 l 29xf1
44 600 m 25
 44 700 l 25
 306 700 l 25
 306 600 l 25xf2
 344 600 l 25
 344 300 l 25xf1
 305 300 l 25
 306 200 l 25xf2
 269 200 l 25
 269 100 l 25xf4
 231 100 l 25
 231 0 l 25
 119 0 l 25
 119 100 l 25xf8
 156 100 l 25
 156 200 l 25xf4
 194 200 l 25
 194 300 l 25xf2
 44 300 l 25
 44 400 l 25
 6 400 l 25
 6 600 l 25
 44 600 l 25
EndSplineSet
Validated: 1
EndChar

StartChar: colon
Encoding: 58 58 21
Width: 350
Flags: HW
HStem: 0 21G<137 213> 480 20G<137 212>
VStem: 137 75<0 200 300 500>
LayerCount: 2
Back
Fore
SplineSet
137 200 m 29
 213 200 l 25
 213 0 l 25
 137 0 l 25
 137 200 l 29
137 500 m 25
 212 500 l 25
 213 300 l 25
 137 300 l 25
 137 500 l 25
EndSplineSet
Validated: 1
EndChar

StartChar: semicolon
Encoding: 59 59 22
Width: 350
Flags: HW
HStem: -200 100<119 156> 480 20G<156 231>
VStem: 119 75<-200 -100> 156 75<-100 100 300 500>
LayerCount: 2
Back
Fore
SplineSet
156 100 m 1xd0
 231 100 l 25
 231 -100 l 1xd0
 194 -100 l 25
 194 -200 l 25
 119 -200 l 25
 119 -100 l 25xe0
 156 -100 l 25
 156 100 l 1xd0
156 500 m 25
 231 500 l 25
 231 300 l 25
 156 300 l 25
 156 500 l 25
EndSplineSet
Validated: 1
EndChar

StartChar: less
Encoding: 60 60 23
Width: 350
Flags: HW
HStem: 0 100<269 344> 100 100<194 231> 200 100<119 156> 300 100<6 81> 400 100<119 156> 500 100<194 231> 600 100<269 344>
VStem: 6 112<300 400> 81 112<200 300 400 500> 156 112<100 200 500 600> 231 112<0 100 600 700>
LayerCount: 2
Back
Fore
SplineSet
231 700 m 29x0220
 344 700 l 25
 344 600 l 25x0220
 269 600 l 25x0240
 269 500 l 25x0440
 194 500 l 25x0480
 194 400 l 25x0880
 119 400 l 25
 119 300 l 25x29
 194 300 l 25
 194 200 l 25x5080
 269 200 l 25
 269 100 l 25xa040
 344 100 l 25
 344 0 l 25
 231 0 l 25xa020
 231 100 l 25x4020
 156 100 l 25x4040
 156 200 l 25x2040
 81 200 l 25x2080
 81 300 l 25x1080
 6 300 l 25
 6 400 l 25x11
 81 400 l 25
 81 500 l 25x1480
 156 500 l 25
 156 600 l 25x0a40
 231 600 l 25x0420
 231 700 l 29x0220
EndSplineSet
Validated: 1
EndChar

StartChar: equal
Encoding: 61 61 24
Width: 350
Flags: HW
HStem: 200 100<25 325> 400 100<25 325>
LayerCount: 2
Back
Fore
SplineSet
25 500 m 29
 325 500 l 25
 325 400 l 25
 25 400 l 25
 25 500 l 29
25 300 m 25
 325 300 l 25
 325 200 l 25
 25 200 l 25
 25 300 l 25
EndSplineSet
Validated: 1
EndChar

StartChar: greater
Encoding: 62 62 25
Width: 350
Flags: HW
HStem: 0 100<6 81> 100 100<119 156> 200 100<194 231> 300 100<269 344> 400 100<194 231> 500 100<119 156> 600 100<6 81>
VStem: 6 112<0 100 600 700> 81 112<100 200 500 600> 156 112<200 300 400 500> 231 112<300 400>
LayerCount: 2
Back
Fore
SplineSet
6 600 m 29x03
 6 700 l 25
 119 700 l 25x03
 119 600 l 25x05
 194 600 l 25
 194 500 l 25x0a80
 269 500 l 25
 269 400 l 25x1440
 344 400 l 25
 344 300 l 25x1420
 269 300 l 25x1440
 269 200 l 25x2040
 194 200 l 25x2080
 194 100 l 25x4080
 119 100 l 25x41
 119 0 l 25
 6 0 l 25
 6 100 l 25x81
 81 100 l 25
 81 200 l 25xa080
 156 200 l 25
 156 300 l 25x5040
 231 300 l 25
 231 400 l 25x2820
 156 400 l 25x2840
 156 500 l 25x0440
 81 500 l 25x0480
 81 600 l 25x0280
 6 600 l 29x03
EndSplineSet
Validated: 1
EndChar

StartChar: question
Encoding: 63 63 26
Width: 350
Flags: HW
HStem: 0 100<156 231> 200 100<156 231> 300 100<231 269> 600 100<81 269>
VStem: 6 75<400 600> 156 75<0 100 200 300> 231 75<300 400> 269 75<400 600>
LayerCount: 2
Back
Fore
SplineSet
156 300 m 1xdc
 231 300 l 1
 231 200 l 1
 156 200 l 1
 156 300 l 1xdc
231 0 m 25
 156 0 l 1
 156 100 l 25
 231 100 l 1
 231 0 l 25
6 600 m 25
 44 600 l 25
 44 700 l 25
 306 700 l 25
 306 600 l 25xba
 344 600 l 25
 344 400 l 25xb9
 305 400 l 25
 306 300 l 25xba
 231 300 l 25xdc
 231 400 l 25xba
 269 400 l 25
 269 600 l 25
 81 600 l 25
 81 400 l 25
 6 400 l 25xb9
 6 600 l 25
EndSplineSet
Validated: 5
EndChar

StartChar: at
Encoding: 64 64 27
Width: 350
Flags: HW
HStem: -100 100<100 325> 100 100<213 287> 400 100<213 287> 600 100<100 287>
VStem: -13 75<100 500> 25 75<0 100 500 600> 137 75<200 400> 175 188<100 200 400 500> 287 75<200 400 500 600>
LayerCount: 2
Back
Fore
SplineSet
213 400 m 29xf280
 213 200 l 25
 287 200 l 25
 287 400 l 25
 213 400 l 29xf280
63 600 m 25xf8
 63 700 l 25
 325 700 l 25
 325 600 l 25
 363 600 l 25xf880
 363 100 l 25
 175 100 l 25
 175 200 l 25xf1
 137 200 l 25
 137 400 l 25xf2
 175 400 l 25
 175 500 l 25xf1
 287 500 l 25
 287 600 l 25
 100 600 l 25
 100 500 l 25xf480
 63 500 l 25
 63 100 l 25xf8
 100 100 l 25
 100 0 l 25xf4
 325 0 l 25
 325 -100 l 25
 63 -100 l 25
 63 0 l 25xf8
 25 0 l 25
 25 100 l 25xf4
 -13 100 l 25
 -13 500 l 25xf8
 25 500 l 25
 25 600 l 25xf4
 63 600 l 25xf8
EndSplineSet
Validated: 1
EndChar

StartChar: A
Encoding: 65 65 28
Width: 350
Flags: HW
HStem: 0 21G<-13 63 287 363> 200 100<63 287> 600 100<137 213>
VStem: -13 75<0 200 300 400> 25 75<400 500> 63 75<500 600> 213 75<500 600> 250 75<400 500> 287 75<0 200 300 400>
LayerCount: 2
Back
Fore
SplineSet
63 400 m 29xf0
 63 300 l 25
 287 300 l 25
 287 400 l 25xf080
 250 400 l 25
 250 500 l 25xe1
 213 500 l 25
 213 600 l 25
 137 600 l 25
 137 500 l 25xe6
 100 500 l 25
 100 400 l 25xe8
 63 400 l 29xf0
63 0 m 25
 -13 0 l 25
 -13 400 l 25xf080
 25 400 l 25
 25 500 l 25xe8
 63 500 l 25
 63 600 l 25xe4
 100 600 l 25
 100 700 l 25
 249 700 l 25
 250 600 l 25xe9
 287 600 l 25
 287 500 l 25xe2
 325 500 l 25
 325 400 l 25xe1
 363 400 l 25
 363 0 l 25
 287 0 l 25
 287 200 l 25
 63 200 l 25
 63 0 l 25
EndSplineSet
Validated: 1
EndChar

StartChar: B
Encoding: 66 66 29
Width: 350
Flags: HW
HStem: 0 100<81 269> 300 100<81 269> 600 100<81 269>
VStem: 6 300<0 100 300 400 600 700> 6 75<100 300 400 600> 269 75<100 300 400 600>
CounterMasks: 1 e0
LayerCount: 2
Back
Fore
SplineSet
81 600 m 29xec
 81 400 l 25
 269 400 l 25
 269 600 l 25
 81 600 l 29xec
81 300 m 25
 81 100 l 25
 269 100 l 25
 269 300 l 25
 81 300 l 25
6 0 m 25xf0
 6 700 l 25
 306 700 l 25
 306 600 l 25xf0
 344 600 l 25
 344 400 l 25xe4
 306 400 l 25
 306 300 l 25xf0
 344 300 l 25
 344 100 l 25xe4
 306 100 l 25
 306 0 l 25
 6 0 l 25xf0
EndSplineSet
Validated: 1
EndChar

StartChar: C
Encoding: 67 67 30
Width: 350
Flags: HW
HStem: 0 100<119 269> 100 100<306 344> 500 100<306 344> 600 100<119 269>
VStem: 6 75<200 500> 44 75<100 200 500 600> 81 225<0 100 600 700> 269 75<100 200 500 600>
LayerCount: 2
Back
Fore
SplineSet
81 700 m 29x12
 306 700 l 25x12
 306 600 l 25x22
 344 600 l 25
 344 500 l 25
 269 500 l 25x21
 269 600 l 25
 119 600 l 25x15
 119 500 l 25x25
 81 500 l 25
 81 200 l 25x68
 119 200 l 25x64
 119 100 l 25
 269 100 l 25x85
 269 200 l 25
 344 200 l 25
 344 100 l 25x45
 306 100 l 25x42
 306 0 l 25
 81 0 l 25x82
 81 100 l 25x42
 44 100 l 25
 44 200 l 25x44
 6 200 l 25
 6 500 l 25x68
 44 500 l 25x64
 44 600 l 25x14
 81 600 l 25
 81 700 l 29x12
EndSplineSet
Validated: 1
EndChar

StartChar: D
Encoding: 68 68 31
Width: 350
Flags: HW
HStem: 0 100<81 231> 600 100<81 231>
VStem: 6 75<100 600> 231 75<100 200 500 600> 269 75<200 500>
LayerCount: 2
Back
Fore
SplineSet
81 600 m 29xf0
 81 100 l 25
 231 100 l 25
 231 200 l 25xf0
 269 200 l 25
 269 500 l 25xe8
 231 500 l 25
 231 600 l 25
 81 600 l 29xf0
6 700 m 25
 269 700 l 25
 269 600 l 25xe8
 306 600 l 25
 306 500 l 25xf0
 344 500 l 25
 344 200 l 25xe8
 306 200 l 25
 306 100 l 25xf0
 269 100 l 25
 269 0 l 25xe8
 6 0 l 25
 6 700 l 25
EndSplineSet
Validated: 1
EndChar

StartChar: E
Encoding: 69 69 32
Width: 350
Flags: HW
HStem: 0 100<81 344> 300 100<81 269> 600 100<81 344>
VStem: 6 75<100 300 400 600>
CounterMasks: 1 e0
LayerCount: 2
Back
Fore
SplineSet
344 600 m 29
 81 600 l 25
 81 400 l 25
 269 400 l 25
 269 300 l 25
 81 300 l 25
 81 100 l 25
 344 100 l 25
 344 0 l 25
 6 0 l 25
 6 700 l 25
 344 700 l 25
 344 600 l 29
EndSplineSet
Validated: 1
EndChar

StartChar: F
Encoding: 70 70 33
Width: 350
Flags: HW
HStem: 0 21G<6 81> 300 100<81 269> 600 100<81 344>
VStem: 6 75<0 300 400 600>
LayerCount: 2
Back
Fore
SplineSet
81 0 m 29
 6 0 l 25
 6 700 l 25
 344 700 l 25
 344 600 l 25
 81 600 l 25
 81 400 l 25
 269 400 l 25
 269 300 l 25
 81 300 l 25
 81 0 l 29
EndSplineSet
Validated: 1
EndChar

StartChar: G
Encoding: 71 71 34
Width: 350
Flags: HW
HStem: 0 100<81 269> 200 100<156 269> 500 100<306 344> 600 100<81 269>
VStem: 6 75<100 600> 269 75<100 200 500 600>
LayerCount: 2
Back
Fore
SplineSet
269 600 m 29xdc
 81 600 l 25
 81 100 l 25
 269 100 l 25
 269 200 l 25
 156 200 l 25
 156 300 l 25
 344 300 l 25
 344 100 l 25
 306 100 l 25
 306 0 l 25
 44 0 l 25
 44 100 l 25
 6 100 l 25
 6 600 l 25
 44 600 l 25
 44 700 l 25
 306 700 l 25xdc
 306 600 l 25
 344 600 l 25
 344 500 l 25
 269 500 l 25xec
 269 600 l 29xdc
EndSplineSet
Validated: 1
EndChar

StartChar: H
Encoding: 72 72 35
Width: 350
Flags: HW
HStem: 0 21G<6 81 269 344> 300 100<81 269> 680 20G<6 81 269 344>
VStem: 6 75<0 300 400 700> 269 75<0 300 400 700>
LayerCount: 2
Back
Fore
SplineSet
6 700 m 29
 81 700 l 25
 81 400 l 25
 269 400 l 25
 269 700 l 25
 344 700 l 25
 344 0 l 25
 269 0 l 25
 269 300 l 25
 81 300 l 25
 81 0 l 25
 6 0 l 25
 6 700 l 29
EndSplineSet
Validated: 1
EndChar

StartChar: I
Encoding: 73 73 36
Width: 350
Flags: HW
HStem: 0 100<25 137 213 325> 600 100<25 137 213 325>
VStem: 137 75<100 600>
LayerCount: 2
Back
Fore
SplineSet
25 700 m 29
 325 700 l 25
 325 600 l 25
 213 600 l 25
 213 100 l 25
 325 100 l 25
 325 0 l 25
 25 0 l 25
 25 100 l 25
 137 100 l 25
 137 600 l 25
 25 600 l 25
 25 700 l 29
EndSplineSet
Validated: 1
EndChar

StartChar: J
Encoding: 74 74 37
Width: 350
Flags: HW
HStem: 0 100<81 269> 100 100<6 44> 680 20G<269 344>
VStem: 6 75<100 200> 269 75<100 700>
LayerCount: 2
Back
Fore
SplineSet
269 700 m 29xb8
 344 700 l 25
 344 100 l 25
 306 100 l 25x78
 306 0 l 25
 44 0 l 25xb8
 44 100 l 25
 6 100 l 25
 6 200 l 25
 81 200 l 25x78
 81 100 l 25
 269 100 l 25
 269 700 l 29xb8
EndSplineSet
Validated: 1
EndChar

StartChar: K
Encoding: 75 75 38
Width: 350
Flags: HW
HStem: 0 100<269 344> 200 100<156 194> 300 100<81 119> 400 100<156 194> 600 100<269 344>
VStem: 6 75<0 300 400 700> 119 112<200 300 400 500> 194 75<100 200 500 600> 231 112<0 100 600 700>
LayerCount: 2
Back
Fore
SplineSet
6 700 m 29xae
 81 700 l 25
 81 400 l 25
 119 400 l 25xae
 119 500 l 25x9e
 194 500 l 25
 194 600 l 25x9d
 231 600 l 25
 231 700 l 25
 344 700 l 25
 344 600 l 25x9c80
 269 600 l 25
 269 500 l 25x9d
 231 500 l 25
 231 400 l 25
 156 400 l 25
 156 300 l 25xde
 231 300 l 25xae
 231 200 l 25xce
 269 200 l 25
 269 100 l 25xcd
 344 100 l 25
 344 0 l 25
 231 0 l 25
 231 100 l 25xcc80
 194 100 l 25
 194 200 l 25xcd
 119 200 l 25xce
 119 300 l 25
 81 300 l 25
 81 0 l 25
 6 0 l 25
 6 700 l 29xae
EndSplineSet
Validated: 1
EndChar

StartChar: L
Encoding: 76 76 39
Width: 350
Flags: HW
HStem: 0 100<81 344> 680 20G<6 81>
VStem: 6 75<100 700>
LayerCount: 2
Back
Fore
SplineSet
6 700 m 29
 81 700 l 25
 81 100 l 25
 344 100 l 25
 344 0 l 25
 6 0 l 25
 6 700 l 29
EndSplineSet
Validated: 1
EndChar

StartChar: M
Encoding: 77 77 40
Width: 350
Flags: HW
HStem: 0 21G<-13 63 287 363> 680 20G<-13 100 250 363>
VStem: -13 112<600 700> -13 75<0 500> 137 75<300 400> 250 112<600 700> 287 75<0 500>
LayerCount: 2
Back
Fore
SplineSet
63 0 m 29xd8
 -13 0 l 25xd8
 -13 700 l 25
 100 700 l 25
 100 600 l 25
 137 600 l 25
 137 500 l 25
 213 500 l 25
 213 600 l 25
 250 600 l 25
 250 700 l 25
 363 700 l 25xec
 363 0 l 25
 287 0 l 25
 287 500 l 25xca
 250 500 l 25
 250 400 l 25
 213 400 l 25
 213 300 l 25
 137 300 l 25
 137 400 l 25
 100 400 l 25
 100 500 l 25xec
 63 500 l 25
 63 0 l 29xd8
EndSplineSet
Validated: 1
EndChar

StartChar: N
Encoding: 78 78 41
Width: 350
Flags: HW
HStem: 0 21G<-13 63 250 363> 680 20G<-13 100 287 363>
VStem: -13 112<600 700> -13 75<0 500> 100 75<400 500> 137 75<300 400> 175 75<200 300> 250 112<0 100> 287 75<200 700>
LayerCount: 2
Back
Fore
SplineSet
-13 700 m 29xe0
 100 700 l 25
 100 600 l 25
 137 600 l 25
 137 500 l 25xe4
 175 500 l 25
 175 400 l 25xc8
 213 400 l 25
 213 300 l 25xc4
 250 300 l 25
 250 200 l 25
 287 200 l 25
 287 700 l 25
 363 700 l 25xc280
 363 0 l 25
 250 0 l 25
 250 100 l 25
 213 100 l 25
 213 200 l 25xc5
 175 200 l 25
 175 300 l 25xc2
 137 300 l 25
 137 400 l 25xc4
 100 400 l 25
 100 500 l 25
 63 500 l 25
 63 0 l 25
 -13 0 l 25xd8
 -13 700 l 29xe0
EndSplineSet
Validated: 1
EndChar

StartChar: O
Encoding: 79 79 42
Width: 350
Flags: HW
HStem: 0 100<100 250> 600 100<100 250>
VStem: -13 75<200 500> 25 75<100 200 500 600> 63 225<0 100 600 700> 250 75<100 200 500 600> 287 75<200 500>
LayerCount: 2
Back
Fore
SplineSet
250 100 m 29xd4
 250 200 l 25xd4
 287 200 l 25
 287 500 l 25xc2
 250 500 l 25
 250 600 l 25
 100 600 l 25
 100 500 l 25xd4
 63 500 l 25
 63 200 l 25xe0
 100 200 l 25
 100 100 l 25
 250 100 l 29xd4
287 0 m 25xc8
 63 0 l 25
 63 100 l 25xc8
 25 100 l 25
 25 200 l 25xd0
 -13 200 l 25
 -13 500 l 25xe0
 25 500 l 25
 25 600 l 25xd0
 63 600 l 25
 63 700 l 25
 287 700 l 25
 287 600 l 25xc8
 325 600 l 25
 325 500 l 25xc4
 363 500 l 25
 363 200 l 25xc2
 325 200 l 25
 325 100 l 25xc4
 287 100 l 25
 287 0 l 25xc8
EndSplineSet
Validated: 1
EndChar

StartChar: P
Encoding: 80 80 43
Width: 350
Flags: HW
HStem: 0 21G<6 81> 300 100<81 269> 600 100<81 269>
VStem: 6 75<0 300 400 600> 269 75<400 600>
LayerCount: 2
Back
Fore
SplineSet
81 600 m 29
 81 400 l 25
 269 400 l 25
 269 600 l 25
 81 600 l 29
6 700 m 25
 306 700 l 25
 306 650 l 25
 344 650 l 25
 344 400 l 25
 306 400 l 25
 306 300 l 25
 81 300 l 25
 81 0 l 25
 6 0 l 25
 6 700 l 25
EndSplineSet
Validated: 1
EndChar

StartChar: Q
Encoding: 81 81 44
Width: 350
Flags: HW
HStem: -200 100<287 363> 0 100<63 175> 600 100<63 287>
VStem: -13 75<100 600> 175 75<100 200> 213 75<-100 0> 250 112<-200 -100> 287 75<100 600>
LayerCount: 2
Back
Fore
SplineSet
63 600 m 29xf9
 63 100 l 25
 175 100 l 25
 175 200 l 25
 250 200 l 25
 250 100 l 25
 287 100 l 25
 287 600 l 25
 63 600 l 29xf9
25 700 m 25
 325 700 l 25
 325 600 l 25
 363 600 l 25
 363 100 l 25xf1
 325 100 l 25
 325 0 l 25
 287 0 l 25
 287 -100 l 25xf4
 363 -100 l 25
 363 -200 l 25
 250 -200 l 25
 250 -100 l 25xf2
 213 -100 l 25
 213 0 l 25xf4
 25 0 l 25
 25 100 l 25
 -13 100 l 25
 -13 600 l 25
 25 600 l 25
 25 700 l 25
EndSplineSet
Validated: 1
EndChar

StartChar: R
Encoding: 82 82 45
Width: 350
Flags: HW
HStem: 0 100<269 344> 300 100<81 156 231 269> 600 100<81 269>
VStem: 6 75<0 300 400 600> 156 75<200 300> 194 75<100 200> 231 112<0 100> 269 75<400 600>
CounterMasks: 1 e0
LayerCount: 2
Back
Fore
SplineSet
81 600 m 29xf1
 81 400 l 25
 269 400 l 25
 269 600 l 25
 81 600 l 29xf1
6 700 m 25
 306 700 l 25
 306 650 l 25
 344 650 l 25
 344 400 l 25
 306 400 l 25
 306 300 l 25
 231 300 l 25
 231 200 l 25xf9
 269 200 l 25
 269 100 l 25xf4
 344 100 l 25
 344 0 l 25
 231 0 l 25
 231 100 l 25xf2
 194 100 l 25
 194 200 l 25xf4
 156 200 l 25
 156 300 l 25xf8
 81 300 l 25
 81 0 l 25
 6 0 l 25
 6 700 l 25
EndSplineSet
Validated: 1
EndChar

StartChar: S
Encoding: 83 83 46
Width: 350
Flags: HW
HStem: 0 100<44 269> 300 100<81 269> 600 100<81 306>
VStem: 6 75<400 600> 44 262<0 100 300 400 600 700> 269 75<100 300>
CounterMasks: 1 e0
LayerCount: 2
Back
Fore
SplineSet
44 600 m 29xe8
 44 700 l 25
 306 700 l 25
 306 600 l 25xe8
 81 600 l 25
 81 400 l 25xf0
 306 400 l 25
 306 300 l 25xe8
 344 300 l 25
 344 100 l 25xe4
 306 100 l 25
 306 0 l 25
 44 0 l 25
 44 100 l 25xe8
 269 100 l 25
 269 300 l 25xe4
 44 300 l 25
 44 400 l 25xe8
 6 400 l 25
 6 600 l 25xf0
 44 600 l 29xe8
EndSplineSet
Validated: 1
EndChar

StartChar: T
Encoding: 84 84 47
Width: 350
Flags: HW
HStem: 0 21G<137 213> 600 100<-13 137 213 363>
VStem: 137 75<0 600>
LayerCount: 2
Back
Fore
SplineSet
-13 700 m 1
 363 700 l 5
 363 600 l 1
 213 600 l 1
 213 0 l 25
 137 0 l 25
 137 600 l 1
 -13 600 l 1
 -13 700 l 1
EndSplineSet
Validated: 1
EndChar

StartChar: U
Encoding: 85 85 48
Width: 350
Flags: HW
HStem: 0 100<81 269> 680 20G<6 81 269 344>
VStem: 6 75<100 700> 269 75<100 700>
LayerCount: 2
Back
Fore
SplineSet
6 700 m 29
 81 700 l 25
 81 100 l 25
 269 100 l 25
 269 700 l 25
 344 700 l 25
 344 100 l 25
 306 100 l 25
 306 0 l 25
 44 0 l 25
 44 100 l 25
 6 100 l 25
 6 700 l 29
EndSplineSet
Validated: 1
EndChar

StartChar: V
Encoding: 86 86 49
Width: 350
Flags: HW
HStem: 0 21G<137 213> 680 20G<-13 63 287 363>
VStem: -13 75<500 700> 25 75<300 500> 63 75<200 300> 137 75<0 100> 213 75<200 300> 250 75<300 500> 287 75<500 700>
LayerCount: 2
Back
Fore
SplineSet
-13 700 m 29xe0
 63 700 l 25
 63 500 l 25xe0
 100 500 l 25
 100 300 l 25xd0
 137 300 l 25
 137 200 l 25
 213 200 l 25
 213 300 l 25xca
 250 300 l 25
 250 500 l 25xc1
 287 500 l 25
 287 700 l 25
 363 700 l 25
 363 500 l 25xc080
 325 500 l 25
 325 300 l 25xc1
 287 300 l 25
 287 200 l 25xc2
 250 200 l 25
 250 100 l 25
 213 100 l 25
 213 0 l 25
 137 0 l 25
 137 100 l 25
 100 100 l 25
 100 200 l 25xd5
 63 200 l 25
 63 300 l 25xc8
 25 300 l 25
 25 500 l 25xd0
 -13 500 l 25
 -13 700 l 29xe0
EndSplineSet
Validated: 1
EndChar

StartChar: W
Encoding: 87 87 50
Width: 350
Flags: HW
HStem: 0 21G<25 100 250 325> 680 20G<-13 63 287 363>
VStem: -13 75<200 700> 25 112<100 200> 25 75<0 100> 137 75<300 400> 213 112<100 200> 250 75<0 100> 287 75<200 700>
LayerCount: 2
Back
Fore
SplineSet
-13 700 m 29xe0
 63 700 l 25
 63 200 l 25xe0
 100 200 l 25
 100 300 l 25
 137 300 l 25
 137 400 l 25
 213 400 l 25
 213 300 l 25
 250 300 l 25
 250 200 l 25xcd
 287 200 l 25
 287 700 l 25
 363 700 l 25
 363 200 l 25xc080
 325 200 l 25xc2
 325 0 l 25
 250 0 l 25
 250 100 l 25xc1
 213 100 l 25
 213 200 l 25
 137 200 l 25
 137 100 l 25xd2
 100 100 l 25
 100 0 l 25
 25 0 l 25xc8
 25 200 l 25xd0
 -13 200 l 25
 -13 700 l 29xe0
EndSplineSet
Validated: 1
EndChar

StartChar: X
Encoding: 88 88 51
Width: 350
Flags: HW
HStem: 0 100<25 63 287 325> 600 100<25 63 287 325>
VStem: 25 75<0 100 600 700> 63 75<100 200 500 600> 100 150<200 300 400 500> 213 75<100 200 500 600> 250 75<0 100 600 700>
LayerCount: 2
Back
Fore
SplineSet
25 700 m 29xe0
 100 700 l 25
 100 600 l 25xe0
 137 600 l 25
 137 500 l 25
 213 500 l 25
 213 600 l 25xd4
 250 600 l 25
 250 700 l 25
 325 700 l 25
 325 600 l 25xc2
 287 600 l 25
 287 500 l 25xc4
 250 500 l 25
 250 400 l 25xc8
 213 400 l 25
 213 300 l 25xc4
 250 300 l 25
 250 200 l 25xc8
 287 200 l 25
 287 100 l 25xc4
 325 100 l 25
 325 0 l 25
 250 0 l 25
 250 100 l 25xc2
 213 100 l 25
 213 200 l 25
 137 200 l 25
 137 100 l 25xd4
 100 100 l 25
 100 0 l 25
 25 0 l 25
 25 100 l 25xe0
 63 100 l 25
 63 200 l 25xd0
 100 200 l 25
 100 300 l 25xc8
 137 300 l 25
 137 400 l 25xd0
 100 400 l 25
 100 500 l 25xc8
 63 500 l 25
 63 600 l 25xd0
 25 600 l 25
 25 700 l 29xe0
EndSplineSet
Validated: 1
EndChar

StartChar: Y
Encoding: 89 89 52
Width: 350
Flags: HW
HStem: 0 21G<137 213> 600 100<-13 25 325 363>
VStem: -13 75<600 700> 25 75<500 600> 63 75<400 500> 137 75<0 300> 213 75<400 500> 250 75<500 600> 287 75<600 700>
LayerCount: 2
Back
Fore
SplineSet
-13 700 m 29xe0
 63 700 l 25
 63 600 l 25xe0
 100 600 l 25
 100 500 l 25xd0
 137 500 l 25
 137 400 l 25
 213 400 l 25
 213 500 l 25xca
 250 500 l 25
 250 600 l 25xc1
 287 600 l 25
 287 700 l 25
 363 700 l 25
 363 600 l 25xc080
 325 600 l 25
 325 500 l 25xc1
 287 500 l 25
 287 400 l 25xc2
 250 400 l 25
 250 300 l 25
 213 300 l 25
 213 0 l 25
 137 0 l 25
 137 300 l 25
 100 300 l 25
 100 400 l 25xd5
 63 400 l 25
 63 500 l 25xc8
 25 500 l 25
 25 600 l 25xd0
 -13 600 l 25
 -13 700 l 29xe0
EndSplineSet
Validated: 1
EndChar

StartChar: Z
Encoding: 90 90 53
Width: 350
Flags: HW
HStem: 0 100<25 63 137 325> 600 100<25 213 287 325>
VStem: 63 75<100 200> 100 75<200 300> 137 75<300 400> 175 75<400 500> 213 75<500 600>
LayerCount: 2
Back
Fore
SplineSet
25 700 m 29xc2
 325 700 l 25
 325 600 l 25
 287 600 l 25
 287 500 l 25xc2
 250 500 l 25
 250 400 l 25xc4
 213 400 l 25
 213 300 l 25xc8
 175 300 l 25
 175 200 l 25xd0
 137 200 l 25
 137 100 l 25
 325 100 l 25
 325 0 l 25
 25 0 l 25
 25 100 l 25
 63 100 l 25
 63 200 l 25xe0
 100 200 l 25
 100 300 l 25xd0
 137 300 l 25
 137 400 l 25xc8
 175 400 l 25
 175 500 l 25xc4
 213 500 l 25
 213 600 l 25
 25 600 l 25
 25 700 l 29xc2
EndSplineSet
Validated: 1
EndChar

StartChar: a
Encoding: 97 97 54
Width: 350
Flags: HW
HStem: 0 100<63 250 325 362> 100 100<-13 25> 200 100<63 250> 400 100<25 250>
VStem: -13 75<100 200> 250 75<100 200 300 400>
LayerCount: 2
Back
Fore
SplineSet
63 200 m 29xbc
 63 100 l 25
 250 100 l 25
 250 200 l 25
 63 200 l 29xbc
25 500 m 25
 287 500 l 25
 287 400 l 25
 325 400 l 25
 325 100 l 25
 362 100 l 25
 363 0 l 25
 25 0 l 25xbc
 25 100 l 25
 -13 100 l 25
 -13 200 l 25
 25 200 l 25x5c
 25 300 l 25
 250 300 l 25
 250 400 l 25
 25 400 l 25
 25 500 l 25
EndSplineSet
Validated: 1
EndChar

StartChar: b
Encoding: 98 98 55
Width: 350
Flags: HW
HStem: 0 100<81 269> 300 100<81 119> 400 100<119 269> 680 20G<6 81>
VStem: 6 112<300 400> 6 75<100 300 400 700> 269 75<100 400>
LayerCount: 2
Back
Fore
SplineSet
269 400 m 29xb6
 119 400 l 25
 119 300 l 25xda
 81 300 l 25xd6
 81 100 l 25
 269 100 l 25
 269 400 l 29xb6
6 700 m 25xb6
 81 700 l 25
 81 400 l 25xd6
 119 400 l 25xda
 119 500 l 25xba
 306 500 l 25
 306 400 l 25
 344 400 l 25
 344 100 l 25
 306 100 l 25
 306 0 l 25
 6 0 l 25
 6 700 l 25xb6
EndSplineSet
Validated: 5
EndChar

StartChar: c
Encoding: 99 99 56
Width: 350
Flags: HW
HStem: 0 100<119 344> 200 100<6 44> 400 100<119 344>
VStem: 6 75<200 300> 44 75<100 200 300 400>
CounterMasks: 1 e0
LayerCount: 2
Back
Fore
SplineSet
81 500 m 29xf0
 344 500 l 25
 344 400 l 25
 119 400 l 25
 119 300 l 25xe8
 81 300 l 25
 81 200 l 25xf0
 119 200 l 25
 119 100 l 25xe8
 344 100 l 25
 344 0 l 25
 81 0 l 25
 81 100 l 25xf0
 44 100 l 25
 44 200 l 25xe8
 6 200 l 25
 6 300 l 25xf0
 44 300 l 25
 44 400 l 25xe8
 81 400 l 25
 81 500 l 29xf0
EndSplineSet
Validated: 1
EndChar

StartChar: d
Encoding: 100 100 57
Width: 350
Flags: HW
HStem: 0 100<81 269> 300 100<231 269> 400 100<81 231> 680 20G<269 344>
VStem: 6 75<100 400> 231 112<300 400> 269 75<100 300 400 700>
LayerCount: 2
Back
Fore
SplineSet
81 100 m 29xbc
 269 100 l 25
 269 300 l 25xda
 231 300 l 25
 231 400 l 25xdc
 81 400 l 25
 81 100 l 29xbc
269 700 m 25
 344 700 l 25
 344 0 l 25xda
 44 0 l 25
 44 100 l 25
 6 100 l 25
 6 400 l 25
 44 400 l 25
 44 500 l 25
 231 500 l 25xbc
 231 400 l 25xdc
 269 400 l 25
 269 700 l 25
EndSplineSet
Validated: 5
EndChar

StartChar: e
Encoding: 101 101 58
Width: 350
Flags: HW
HStem: 0 100<81 306> 200 100<81 269> 400 100<81 269>
VStem: 6 75<100 200 300 400> 269 75<300 400>
CounterMasks: 1 e0
LayerCount: 2
Back
Fore
SplineSet
81 400 m 1
 81 300 l 1
 269 300 l 1
 269 400 l 1
 81 400 l 1
44 400 m 1
 44 500 l 1
 305 500 l 1
 306 400 l 25
 344 400 l 25
 344 200 l 1
 81 200 l 1
 81 100 l 1
 306 100 l 1
 306 0 l 1
 44 0 l 1
 44 100 l 1
 6 100 l 1
 6 400 l 5
 44 400 l 1
EndSplineSet
Validated: 1
EndChar

StartChar: f
Encoding: 102 102 59
Width: 350
Flags: HW
HStem: 0 21G<81 156> 300 100<6 81 156 269> 600 100<156 344>
VStem: 81 75<0 300 400 600>
LayerCount: 2
Back
Fore
SplineSet
119 600 m 29
 119 700 l 25
 344 700 l 25
 344 600 l 25
 156 600 l 25
 156 400 l 25
 269 400 l 25
 269 300 l 25
 156 300 l 25
 156 0 l 25
 81 0 l 25
 81 300 l 25
 6 300 l 25
 6 400 l 25
 81 400 l 25
 81 600 l 25
 119 600 l 29
EndSplineSet
Validated: 1
EndChar

StartChar: g
Encoding: 103 103 60
Width: 350
Flags: HW
HStem: -200 100<44 269> 0 100<81 231> 100 100<231 269> 300 100<231 269> 400 100<81 231>
VStem: 6 75<100 400> 44 188<0 100 400 498> 231 112<100 200 300 400> 269 75<-100 100 200 300 400 500>
LayerCount: 2
Back
Fore
SplineSet
81 400 m 29x8c
 81 100 l 25xcc
 231 100 l 25xca
 231 200 l 25xa1
 269 200 l 25
 269 300 l 25xb080
 231 300 l 25xb1
 231 400 l 25xb2
 81 400 l 29x8c
44 400 m 25xaa
 44 498 l 25xaa
 231 500 l 25xa9
 231 400 l 25
 269 400 l 25x9280
 269 500 l 25
 344 500 l 25
 344 -100 l 25
 306 -100 l 25
 306 -200 l 25
 44 -200 l 25
 44 -100 l 25
 269 -100 l 25
 269 100 l 25xaa80
 231 100 l 25
 231 0 l 25
 44 0 l 25xc280
 44 100 l 25xa280
 6 100 l 25
 6 400 l 25xac
 44 400 l 25xaa
EndSplineSet
Validated: 5
EndChar

StartChar: h
Encoding: 104 104 61
Width: 350
Flags: HW
HStem: 0 21G<6 81 269 344> 300 100<81 119> 400 100<119 269> 680 20G<6 81>
VStem: 6 112<300 400> 6 75<0 300 400 700> 269 75<0 400>
LayerCount: 2
Back
Fore
SplineSet
6 700 m 29xd6
 81 700 l 25
 81 400 l 25xd6
 119 400 l 25xda
 119 500 l 25
 306 500 l 25
 306 400 l 25
 344 400 l 25
 344 0 l 25
 269 0 l 25
 269 400 l 25xba
 119 400 l 25
 119 300 l 25xda
 81 300 l 25
 81 0 l 25
 6 0 l 25
 6 700 l 29xd6
EndSplineSet
Validated: 5
EndChar

StartChar: i
Encoding: 105 105 62
Width: 350
Flags: HW
HStem: 0 100<63 137 212 287> 400 100<100 137> 600 100<100 213>
VStem: 100 112<400 500 600 700> 137 75<100 400>
LayerCount: 2
Back
Fore
SplineSet
100 500 m 1xf0
 213 500 l 25xf0
 212 100 l 25
 287 100 l 25
 287 0 l 25
 63 0 l 25
 63 100 l 25
 137 100 l 25
 137 400 l 1xe8
 100 400 l 29
 100 500 l 1xf0
100 700 m 25
 213 700 l 25
 213 600 l 25
 100 600 l 25
 100 700 l 25
EndSplineSet
Validated: 1
EndChar

StartChar: j
Encoding: 106 106 63
Width: 350
Flags: HW
HStem: -200 100<81 269> -100 100<6 44> 400 100<231 269> 600 100<231 343>
VStem: 6 75<-100 0> 231 112<400 500 600 700> 269 75<-100 400>
LayerCount: 2
Back
Fore
SplineSet
231 400 m 29xbc
 231 500 l 25
 344 500 l 25xbc
 344 -100 l 25
 306 -100 l 25x7a
 306 -200 l 25
 44 -200 l 25xba
 44 -100 l 25
 6 -100 l 25
 6 0 l 25
 81 0 l 25x7a
 81 -100 l 25
 269 -100 l 25
 269 400 l 25xba
 231 400 l 29xbc
231 700 m 25
 343 700 l 25
 344 600 l 25
 231 600 l 25
 231 700 l 25
EndSplineSet
Validated: 1
EndChar

StartChar: k
Encoding: 107 107 64
Width: 350
Flags: HW
HStem: 0 100<250 325> 200 100<100 175> 400 100<250 325> 680 20G<25 100>
VStem: 25 75<0 200 300 700> 175 75<100 200 300 400> 213 112<0 100 400 500>
LayerCount: 2
Back
Fore
SplineSet
25 700 m 29xfc
 100 700 l 25
 100 300 l 25
 175 300 l 25
 175 400 l 25xfc
 213 400 l 25
 213 500 l 25
 325 500 l 25
 325 400 l 25xfa
 250 400 l 25
 250 300 l 25xfc
 213 300 l 25
 213 200 l 25xfa
 250 200 l 25
 250 100 l 25xfc
 325 100 l 25
 325 0 l 25
 213 0 l 25
 213 100 l 25xfa
 175 100 l 25
 175 200 l 25
 100 200 l 25
 100 0 l 25
 25 0 l 25
 25 700 l 29xfc
EndSplineSet
Validated: 1
EndChar

StartChar: l
Encoding: 108 108 65
Width: 350
Flags: HW
HStem: 0 100<25 137 213 325> 650 100<63 137>
VStem: 137 75<100 650>
LayerCount: 2
Back
Fore
SplineSet
63 750 m 29
 213 750 l 25
 213 100 l 25
 325 100 l 25
 325 0 l 25
 25 0 l 25
 25 100 l 25
 137 100 l 25
 137 650 l 25
 63 650 l 25
 63 750 l 29
EndSplineSet
Validated: 1
EndChar

StartChar: m
Encoding: 109 109 66
Width: 350
Flags: HW
HStem: 0 21G<-13 63 137 213 287 363> 400 100<63 137 213 287>
VStem: -13 75<0 400> 137 75<0 400> 287 75<0 400>
CounterMasks: 1 38
LayerCount: 2
Back
Fore
SplineSet
-13 0 m 29
 -13 500 l 25
 324 500 l 25
 325 400 l 25
 363 400 l 25
 363 0 l 25
 287 0 l 25
 287 400 l 25
 213 400 l 25
 213 0 l 25
 137 0 l 25
 137 400 l 25
 63 400 l 25
 63 0 l 25
 -13 0 l 29
EndSplineSet
Validated: 1
EndChar

StartChar: n
Encoding: 110 110 67
Width: 350
Flags: HW
HStem: 0 21G<6 81 269 344> 300 100<81 119> 400 100<119 269>
VStem: 6 112<300 400> 6 75<0 300 400 500> 269 75<0 400>
LayerCount: 2
Back
Fore
SplineSet
6 0 m 29xcc
 6 500 l 25
 81 500 l 25xac
 81 400 l 25xcc
 119 400 l 25xd4
 119 500 l 25
 306 500 l 25
 306 400 l 25
 344 400 l 25
 344 0 l 25
 269 0 l 25
 269 400 l 25xb4
 119 400 l 25
 119 300 l 25xd4
 81 300 l 25
 81 0 l 25
 6 0 l 29xcc
EndSplineSet
Validated: 5
EndChar

StartChar: o
Encoding: 111 111 68
Width: 350
Flags: HW
HStem: 0 100<81 269> 400 100<81 269>
VStem: 6 75<100 400> 269 75<100 400>
LayerCount: 2
Back
Fore
SplineSet
81 400 m 29
 81 100 l 25
 269 100 l 25
 269 400 l 25
 81 400 l 29
44 500 m 25
 306 500 l 25
 306 400 l 25
 344 400 l 25
 344 100 l 25
 306 100 l 25
 306 0 l 25
 44 0 l 25
 44 100 l 25
 6 100 l 25
 6 400 l 25
 44 400 l 25
 44 500 l 25
EndSplineSet
Validated: 1
EndChar

StartChar: p
Encoding: 112 112 69
Width: 350
Flags: HW
HStem: -200 21G<6 81> 0 100<119 269> 100 100<81 119> 300 100<81 119> 400 100<119 269>
VStem: 6 112<100 200 300 400> 6 75<-200 100 200 300 400 500> 119 188<0 100 400 500> 269 75<100 400>
LayerCount: 2
Back
Fore
SplineSet
119 300 m 29x9480
 81 300 l 25
 81 200 l 25xb2
 119 200 l 25xb4
 119 100 l 25
 269 100 l 25
 269 400 l 25xcc80
 119 400 l 25
 119 300 l 29x9480
6 500 m 25xaa
 81 500 l 25xaa
 81 400 l 25x92
 119 400 l 25x94
 119 500 l 25
 306 500 l 25
 306 400 l 25x89
 344 400 l 25
 344 100 l 25xa880
 306 100 l 25xa9
 306 0 l 25
 119 0 l 25xc1
 119 100 l 25xc4
 81 100 l 25
 81 -200 l 25
 6 -200 l 25
 6 500 l 25xaa
EndSplineSet
Validated: 5
EndChar

StartChar: q
Encoding: 113 113 70
Width: 350
Flags: HW
HStem: -200 21G<269 344> 0 100<81 231> 100 100<231 269> 300 100<231 269> 400 100<81 231>
VStem: 6 75<100 400> 44 188<0 100 400 500> 231 112<100 200 300 400> 269 75<-200 100 200 300 400 500>
LayerCount: 2
Back
Fore
SplineSet
81 400 m 29x8c
 81 100 l 25xcc
 231 100 l 25xca
 231 200 l 25xa1
 269 200 l 25
 269 300 l 25xb080
 231 300 l 25xb1
 231 400 l 25xb2
 81 400 l 29x8c
44 500 m 25xaa
 231 500 l 25xaa
 231 400 l 25
 269 400 l 25x9280
 269 500 l 25
 344 500 l 25
 344 -200 l 25
 269 -200 l 25
 269 100 l 25xaa80
 231 100 l 25
 231 0 l 25
 44 0 l 25xc280
 44 100 l 25xa280
 6 100 l 25
 6 400 l 25xac
 44 400 l 25
 44 500 l 25xaa
EndSplineSet
Validated: 5
EndChar

StartChar: r
Encoding: 114 114 71
Width: 350
Flags: HW
HStem: 0 21G<6 81> 300 100<81 156> 400 100<156 344>
VStem: 6 75<0 300 400 500>
LayerCount: 2
Back
Fore
SplineSet
6 0 m 29xd0
 6 500 l 25
 81 500 l 25xb0
 81 400 l 25
 156 400 l 25xd0
 156 500 l 25
 344 500 l 25
 344 400 l 25xb0
 156 400 l 25
 156 300 l 25
 81 300 l 25
 81 0 l 25
 6 0 l 29xd0
EndSplineSet
Validated: 5
EndChar

StartChar: s
Encoding: 115 115 72
Width: 350
Flags: HW
HStem: 0 100<44 269> 100 100<306 344> 200 100<81 269> 300 100<6 44> 400 100<81 306>
VStem: 6 75<300 400> 44 262<0 100 200 300 400 500> 269 75<100 200>
LayerCount: 2
Back
Fore
SplineSet
306 400 m 1x0a
 81 400 l 1
 81 300 l 1x2c
 306 300 l 1
 306 200 l 25x52
 344 200 l 25
 344 100 l 25x51
 306 100 l 25x52
 306 0 l 1
 44 0 l 5
 44 100 l 1x82
 269 100 l 1
 269 200 l 1xa1
 44 200 l 1xa2
 44 300 l 1x12
 6 300 l 1
 6 400 l 1x14
 44 400 l 1x12
 44 500 l 1
 306 500 l 1
 306 400 l 1x0a
EndSplineSet
Validated: 1
EndChar

StartChar: t
Encoding: 116 116 73
Width: 350
Flags: HW
HStem: 0 100<156 344> 400 100<6 81 156 269> 680 20G<81 156>
VStem: 81 75<100 400 500 700>
LayerCount: 2
Back
Fore
SplineSet
81 700 m 25
 156 700 l 25
 156 500 l 1
 269 500 l 5
 269 400 l 1
 156 400 l 1
 156 100 l 25
 344 100 l 25
 344 0 l 25
 119 0 l 25
 119 100 l 25
 81 100 l 25
 81 400 l 25
 6 400 l 25
 6 500 l 25
 81 500 l 25
 81 700 l 25
EndSplineSet
Validated: 1
EndChar

StartChar: u
Encoding: 117 117 74
Width: 350
Flags: HW
HStem: 0 100<81 231> 100 100<231 269> 480 20G<6 81 269 344>
VStem: 6 75<100 500> 231 112<100 200> 269 75<0 100 200 500>
LayerCount: 2
Back
Fore
SplineSet
6 500 m 29x78
 81 500 l 25
 81 100 l 25
 231 100 l 25xb8
 231 200 l 25x78
 269 200 l 25x74
 269 500 l 25
 344 500 l 25
 344 0 l 25
 269 0 l 25xb4
 269 100 l 25x74
 231 100 l 25
 231 0 l 25
 44 0 l 25xb8
 44 100 l 25
 6 100 l 25
 6 500 l 29x78
EndSplineSet
Validated: 5
EndChar

StartChar: v
Encoding: 118 118 75
Width: 350
Flags: HW
HStem: 0 21G<137 213> 400 100<-13 25 325 363>
VStem: -13 75<400 500> 25 75<300 400> 63 75<200 300> 137 75<0 100> 213 75<200 300> 250 75<300 400> 287 75<400 500>
LayerCount: 2
Back
Fore
SplineSet
-13 500 m 29xe0
 63 500 l 25
 63 400 l 25xe0
 100 400 l 25
 100 300 l 25xd0
 137 300 l 25
 137 200 l 25
 213 200 l 25
 213 300 l 25xca
 250 300 l 25
 250 400 l 25xc1
 287 400 l 25
 287 500 l 25
 363 500 l 25
 363 400 l 25xc080
 325 400 l 25
 325 300 l 25xc1
 287 300 l 25
 287 200 l 25xc2
 250 200 l 25
 250 100 l 25
 213 100 l 25
 213 0 l 25
 137 0 l 25
 137 100 l 25
 100 100 l 25
 100 200 l 25xd5
 63 200 l 25
 63 300 l 25xc8
 25 300 l 25
 25 400 l 25xd0
 -13 400 l 25
 -13 500 l 29xe0
EndSplineSet
Validated: 1
EndChar

StartChar: w
Encoding: 119 119 76
Width: 350
Flags: HW
HStem: 0 100<100 137 213 250> 480 20G<-13 63 287 363>
VStem: -13 75<200 500> 25 75<100 200> 137 75<100 400> 250 75<100 200> 287 75<200 500>
LayerCount: 2
Back
Fore
SplineSet
287 500 m 29xca
 363 500 l 25
 363 200 l 25xca
 325 200 l 25
 325 100 l 25xcc
 287 100 l 25
 287 0 l 25
 213 0 l 25
 213 100 l 25
 137 100 l 25
 137 0 l 25
 63 0 l 25
 63 100 l 25xea
 25 100 l 25
 25 200 l 25xd8
 -13 200 l 25
 -13 500 l 25
 63 500 l 25
 63 200 l 25xe8
 100 200 l 25
 100 100 l 25
 137 100 l 25
 137 400 l 25
 213 400 l 25
 213 100 l 25
 250 100 l 25
 250 200 l 25xdc
 287 200 l 25
 287 500 l 29xca
EndSplineSet
Validated: 5
EndChar

StartChar: x
Encoding: 120 120 77
Width: 350
Flags: HW
HStem: 0 100<-13 63 287 363> 200 100<137 213> 400 100<-13 63 287 363>
VStem: -13 112<0 100 400 500> 63 75<100 200 300 400> 213 75<100 200 300 400> 250 112<0 100 400 500>
CounterMasks: 1 e0
LayerCount: 2
Back
Fore
SplineSet
-13 500 m 29xf0
 100 500 l 25
 100 400 l 25xf0
 137 400 l 25
 137 300 l 25
 213 300 l 25
 213 400 l 25xec
 250 400 l 25
 250 500 l 25
 363 500 l 25
 363 400 l 25xe2
 287 400 l 25
 287 300 l 25xe4
 250 300 l 25
 250 200 l 25xe2
 287 200 l 25
 287 100 l 25xe4
 363 100 l 25
 363 0 l 25
 250 0 l 25
 250 100 l 25xe2
 213 100 l 25
 213 200 l 25
 137 200 l 25
 137 100 l 25xec
 100 100 l 25
 100 0 l 25
 -13 0 l 25
 -13 100 l 25xf0
 63 100 l 25
 63 200 l 25xe8
 100 200 l 25
 100 300 l 25xf0
 63 300 l 25
 63 400 l 25xe8
 -13 400 l 25
 -13 500 l 29xf0
EndSplineSet
Validated: 1
EndChar

StartChar: y
Encoding: 121 121 78
Width: 350
Flags: HW
HStem: -200 100<6 81> 400 100<6 44 306 344>
VStem: 6 75<400 500> 44 75<300 400> 81 75<-100 0 200 300> 119 112<100 200> 119 75<0 100> 194 75<200 300> 231 75<300 400> 269 75<400 500>
LayerCount: 2
Back
Fore
SplineSet
6 500 m 29xe0
 81 500 l 25
 81 400 l 25xe0
 119 400 l 25
 119 300 l 25xd0
 156 300 l 25
 156 200 l 25
 194 200 l 25
 194 300 l 25xc9
 231 300 l 25
 231 400 l 25xc080
 269 400 l 25
 269 500 l 25
 344 500 l 25
 344 400 l 25xc040
 306 400 l 25
 306 300 l 25xc080
 269 300 l 25
 269 200 l 25xc1
 231 200 l 25
 231 100 l 25xc4
 194 100 l 25
 194 0 l 25xc2
 156 0 l 25
 156 -100 l 25xc8
 119 -100 l 25
 119 -200 l 25
 6 -200 l 25
 6 -100 l 25xe2
 81 -100 l 25
 81 0 l 25xc8
 119 0 l 25xc2
 119 200 l 25xc4
 81 200 l 25
 81 300 l 25xc8
 44 300 l 25
 44 400 l 25xd0
 6 400 l 25
 6 500 l 29xe0
EndSplineSet
Validated: 1
EndChar

StartChar: z
Encoding: 122 122 79
Width: 350
Flags: HW
HStem: 0 100<25 100 175 325> 400 100<25 175 250 325>
VStem: 100 75<100 200> 137 75<200 300> 175 75<300 400>
LayerCount: 2
Back
Fore
SplineSet
25 500 m 29xc8
 325 500 l 25
 325 400 l 25
 250 400 l 25
 250 300 l 25xc8
 213 300 l 25
 213 200 l 25xd0
 175 200 l 25
 175 100 l 25
 325 100 l 25
 325 0 l 25
 25 0 l 25
 25 100 l 25
 100 100 l 25
 100 200 l 25xe0
 137 200 l 25
 137 300 l 25xd0
 175 300 l 25
 175 400 l 25
 25 400 l 25
 25 500 l 29xc8
EndSplineSet
Validated: 1
EndChar

StartChar: edieresis
Encoding: 235 235 82
Width: 350
Flags: HW
HStem: 0 100<81 306> 200 100<81 269> 400 100<81 269> 600 100<44 119 231 306>
VStem: 6 75<100 200 300 400> 44 75<600 700> 231 75<600 700> 269 75<300 400>
LayerCount: 2
Back
Fore
SplineSet
231 700 m 25xf2
 306 700 l 25
 306 600 l 25
 231 600 l 25
 231 700 l 25xf2
44 700 m 25xf4
 119 700 l 25
 119 600 l 25
 44 600 l 25
 44 700 l 25xf4
81 400 m 1xf9
 81 300 l 1
 269 300 l 1
 269 400 l 1
 81 400 l 1xf9
44 400 m 1xf4
 45 500 l 1
 305 500 l 1
 306 400 l 25xf6
 344 400 l 25
 344 200 l 1
 81 200 l 1
 81 100 l 1xf9
 306 100 l 1
 306 0 l 1
 44 0 l 1
 44 100 l 1xf6
 6 100 l 1
 6 400 l 5xf8
 44 400 l 1xf4
EndSplineSet
Validated: 1
EndChar

StartChar: uni0401
Encoding: 1025 1025 97
Width: 350
Flags: HW
HStem: 0 100<81 344> 300 100<81 269> 500 100<81 344> 700 100<44 119 231 306>
VStem: 6 75<100 300 400 500> 44 75<700 800> 231 75<700 800>
LayerCount: 2
Back
Fore
SplineSet
231 700 m 25xf2
 231 800 l 25
 306 800 l 25
 306 700 l 25
 231 700 l 25xf2
44 700 m 25xf6
 44 800 l 25
 119 800 l 25
 119 700 l 25
 44 700 l 25xf6
344 500 m 1
 81 500 l 1
 81 400 l 1
 269 400 l 25
 269 300 l 25
 81 300 l 25
 81 100 l 25
 344 100 l 25
 344 0 l 25
 6 0 l 1
 6 600 l 1xfa
 344 600 l 1
 344 500 l 1
EndSplineSet
Validated: 1
EndChar

StartChar: uni0402
Encoding: 1026 1026 98
Width: 350
Flags: HW
HStem: 0 100<194 306> 300 100<156 306> 600 100<-31 81 156 269>
VStem: 81 75<0 300 400 600> 306 75<100 300>
CounterMasks: 1 e0
LayerCount: 2
Back
Fore
SplineSet
81 0 m 29
 81 600 l 25
 -31 600 l 25
 -31 700 l 25
 269 700 l 25
 269 600 l 25
 156 600 l 25
 156 400 l 25
 344 400 l 25
 344 300 l 25
 381 300 l 25
 381 100 l 25
 344 100 l 25
 344 0 l 25
 194 0 l 25
 194 100 l 25
 306 100 l 25
 306 300 l 25
 156 300 l 25
 156 0 l 25
 81 0 l 29
EndSplineSet
Validated: 1
EndChar

StartChar: uni0403
Encoding: 1027 1027 99
Width: 350
Flags: HW
HStem: 0 21G<6 81> 500 100<81 119 194 344> 700 100<194 231>
VStem: 6 75<0 500> 119 75<600 700> 156 75<700 800>
LayerCount: 2
Back
Fore
SplineSet
6 0 m 29xf8
 6 600 l 25
 119 600 l 25
 119 700 l 25xf8
 156 700 l 25
 156 800 l 25
 231 800 l 25
 231 700 l 25xf4
 194 700 l 25
 194 600 l 25
 344 600 l 25
 344 500 l 25
 81 500 l 25
 81 0 l 25
 6 0 l 29xf8
EndSplineSet
Validated: 1
EndChar

StartChar: uni0404
Encoding: 1028 1028 100
Width: 350
Flags: HW
HStem: 0 100<119 269> 100 100<306 344> 300 100<81 231> 500 100<306 344> 600 100<119 269>
VStem: 6 75<200 300 400 500> 44 75<100 200 500 600> 81 225<0 100 600 700> 269 75<100 200 500 600>
LayerCount: 2
Back
Fore
SplineSet
119 500 m 29x3280
 81 500 l 25
 81 400 l 25
 231 400 l 25
 231 300 l 25
 81 300 l 25
 81 200 l 25x74
 119 200 l 25x72
 119 100 l 25
 269 100 l 25xa280
 269 200 l 25
 344 200 l 25
 344 100 l 25x6280
 306 100 l 25x61
 306 0 l 25
 81 0 l 25xa1
 81 100 l 25x61
 44 100 l 25
 44 200 l 25x62
 6 200 l 25
 6 500 l 25x74
 44 500 l 25x72
 44 600 l 25x2a
 81 600 l 25
 81 700 l 25
 306 700 l 25x29
 306 600 l 25x31
 344 600 l 25
 344 500 l 25
 269 500 l 25x3080
 269 600 l 25
 119 600 l 25x2a80
 119 500 l 29x3280
EndSplineSet
Validated: 1
EndChar

StartChar: uni0405
Encoding: 1029 1029 101
Width: 350
Flags: HW
HStem: 0 100<44 269> 300 100<81 269> 600 100<81 306>
VStem: 6 75<400 600> 44 262<0 100 300 400 600 700> 269 75<100 300>
CounterMasks: 1 e0
LayerCount: 2
Back
Fore
SplineSet
44 600 m 29xe8
 44 700 l 25
 306 700 l 25
 306 600 l 25xe8
 81 600 l 25
 81 400 l 25xf0
 306 400 l 25
 306 300 l 25xe8
 344 300 l 25
 344 100 l 25xe4
 306 100 l 25
 306 0 l 25
 44 0 l 25
 44 100 l 25xe8
 269 100 l 25
 269 300 l 25xe4
 44 300 l 25
 44 400 l 25xe8
 6 400 l 25
 6 600 l 25xf0
 44 600 l 29xe8
EndSplineSet
Validated: 1
EndChar

StartChar: uni0406
Encoding: 1030 1030 102
Width: 350
Flags: HW
HStem: 0 100<25 137 213 325> 600 100<25 137 213 325>
VStem: 137 75<100 600>
LayerCount: 2
Back
Fore
SplineSet
25 700 m 29
 325 700 l 25
 325 600 l 25
 213 600 l 25
 213 100 l 25
 325 100 l 25
 325 0 l 25
 25 0 l 25
 25 100 l 25
 137 100 l 25
 137 600 l 25
 25 600 l 25
 25 700 l 29
EndSplineSet
Validated: 1
EndChar

StartChar: uni0407
Encoding: 1031 1031 103
Width: 350
Flags: HMW
LayerCount: 2
Back
Fore
SplineSet
213 650 m 29
 213 750 l 25
 287 750 l 25
 287 650 l 25
 213 650 l 29
63 650 m 25
 63 750 l 25
 137 750 l 25
 137 650 l 25
 63 650 l 25
25 500 m 25
 25 600 l 25
 325 600 l 25
 325 500 l 25
 213 500 l 25
 213 100 l 25
 325 100 l 25
 325 0 l 25
 25 0 l 25
 25 100 l 25
 137 100 l 25
 137 500 l 25
 25 500 l 25
EndSplineSet
Validated: 1
EndChar

StartChar: uni0408
Encoding: 1032 1032 104
Width: 350
Flags: HW
HStem: 0 100<81 269> 100 100<6 44> 680 20G<269 344>
VStem: 6 75<100 200> 269 75<100 700>
LayerCount: 2
Back
Fore
SplineSet
269 700 m 29xb8
 344 700 l 25
 344 100 l 25
 306 100 l 25x78
 306 0 l 25
 44 0 l 25xb8
 44 100 l 25
 6 100 l 25
 6 200 l 25
 81 200 l 25x78
 81 100 l 25
 269 100 l 25
 269 700 l 29xb8
EndSplineSet
Validated: 1
EndChar

StartChar: uni0409
Encoding: 1033 1033 105
Width: 350
Flags: HW
HStem: 0 100<-31 6 231 306> 300 100<231 306> 600 100<81 156>
VStem: -31 75<0 100> 6 75<100 600> 156 188<0 50 300 400> 156 75<100 300 400 600> 306 75<100 300>
CounterMasks: 1 e0
LayerCount: 2
Back
Fore
SplineSet
231 100 m 29xe3
 306 100 l 25
 306 300 l 25
 231 300 l 25
 231 100 l 29xe3
-31 0 m 25xf0
 -31 100 l 25xf0
 6 100 l 25
 6 600 l 25xe8
 44 600 l 25
 44 700 l 25
 231 700 l 25
 231 400 l 25xf2
 344 400 l 25
 344 300 l 25xe4
 381 300 l 25
 381 50 l 25xe1
 344 50 l 25
 344 0 l 25
 156 0 l 25xe4
 156 600 l 25
 81 600 l 25
 81 100 l 25xea
 44 100 l 25
 44 0 l 25
 -31 0 l 25xf0
EndSplineSet
Validated: 1
EndChar

StartChar: uni040A
Encoding: 1034 1034 106
Width: 350
Flags: HW
HStem: 0 100<231 306> 300 100<44 156 231 306> 680 20G<-31 44 156 231>
VStem: -31 75<0 300 400 700> 156 75<100 300 400 700> 306 75<100 300>
LayerCount: 2
Back
Fore
SplineSet
231 300 m 29
 231 100 l 25
 306 100 l 25
 306 300 l 25
 231 300 l 29
-31 700 m 25
 44 700 l 25
 44 400 l 25
 156 400 l 25
 156 700 l 25
 231 700 l 25
 231 400 l 25
 344 400 l 25
 344 300 l 25
 381 300 l 25
 381 50 l 25
 344 50 l 25
 344 0 l 25
 156 0 l 25
 156 300 l 25
 44 300 l 25
 44 0 l 25
 -31 0 l 25
 -31 700 l 25
EndSplineSet
Validated: 1
EndChar

StartChar: uni040B
Encoding: 1035 1035 107
Width: 350
Flags: HW
HStem: 0 21G<81 156 306 381> 300 100<156 306> 600 100<-31 81 156 269>
VStem: 81 75<0 300 400 600> 306 75<0 300>
LayerCount: 2
Back
Fore
SplineSet
-31 600 m 29
 -31 700 l 25
 269 700 l 25
 269 600 l 25
 156 600 l 25
 156 400 l 25
 344 400 l 25
 344 300 l 25
 381 300 l 25
 381 0 l 25
 306 0 l 25
 306 300 l 25
 156 300 l 25
 156 0 l 25
 81 0 l 25
 81 600 l 25
 -31 600 l 29
EndSplineSet
Validated: 1
EndChar

StartChar: uni040C
Encoding: 1036 1036 108
Width: 350
Flags: HW
HStem: 0 100<250 325> 100 100<175 213> 400 100<175 213> 500 100<250 325> 600 100<137 175> 700 100<213 250>
VStem: 25 150<200 400> 25 75<0 200 400 600> 137 75<600 700> 175 75<700 800> 213 112<0 100 500 600>
LayerCount: 2
Back
Fore
SplineSet
25 0 m 29x8180
 25 600 l 25
 100 600 l 25
 100 400 l 25
 137 400 l 25xa980
 137 500 l 25x1180
 213 500 l 25x2020
 213 600 l 25x2880
 325 600 l 25
 325 500 l 25x1020
 250 500 l 25x1040
 250 400 l 25x2040
 175 400 l 25
 175 200 l 25x62
 250 200 l 25x6040
 250 100 l 25x8040
 325 100 l 25
 325 0 l 25
 213 0 l 25x8020
 213 100 l 25x4020
 137 100 l 25
 137 200 l 25
 100 200 l 25x4180
 100 0 l 25
 25 0 l 29x8180
137 600 m 25
 137 700 l 25x0880
 175 700 l 25x0840
 175 800 l 25
 250 800 l 25
 250 700 l 25x0440
 213 700 l 25x0480
 213 600 l 25
 137 600 l 25
EndSplineSet
Validated: 5
EndChar

StartChar: uni040E
Encoding: 1038 1038 109
Width: 350
Flags: HW
HStem: 0 100<81 269> 100 100<6 44> 300 100<81 269> 680 20G<6 81 269 344> 700 100<156 194>
VStem: 6 75<100 200 400 700> 156 38<700 800> 269 75<100 300 400 700>
CounterMasks: 1 07
LayerCount: 2
Back
Fore
SplineSet
156 700 m 29x2f
 156 800 l 25
 194 800 l 25
 194 700 l 25
 156 700 l 29x2f
6 700 m 25xb7
 81 700 l 25
 81 400 l 25
 269 400 l 25
 269 700 l 25
 344 700 l 25
 344 100 l 25
 306 100 l 25x77
 306 0 l 25
 44 0 l 25xa7
 44 100 l 25
 6 100 l 25
 6 200 l 25
 81 200 l 25x67
 81 100 l 25
 269 100 l 25
 269 300 l 25
 44 300 l 25
 44 400 l 25
 6 400 l 25
 6 700 l 25xb7
EndSplineSet
Validated: 1
EndChar

StartChar: uni040F
Encoding: 1039 1039 110
Width: 350
Flags: HW
HStem: -200 21G<137 213> 0 100<63 137 213 287> 680 20G<-13 63 287 363>
VStem: -13 75<100 700> 137 75<-200 0> 287 75<100 700>
CounterMasks: 1 1c
LayerCount: 2
Back
Fore
SplineSet
-13 0 m 29
 -13 700 l 25
 63 700 l 25
 63 100 l 25
 287 100 l 25
 287 700 l 25
 363 700 l 25
 363 0 l 25
 213 0 l 25
 213 -200 l 25
 137 -200 l 25
 137 0 l 25
 -13 0 l 29
EndSplineSet
Validated: 1
EndChar

StartChar: uni0410
Encoding: 1040 1040 111
Width: 350
Flags: HW
HStem: 0 21G<-13 63 287 363> 200 100<63 287> 600 100<137 213>
VStem: -13 75<0 200 300 400> 25 75<400 500> 63 75<500 600> 213 75<500 600> 250 75<400 500> 287 75<0 200 300 400>
LayerCount: 2
Back
Fore
SplineSet
63 400 m 29xf0
 63 300 l 25
 287 300 l 25
 287 400 l 25xf080
 250 400 l 25
 250 500 l 25xe1
 213 500 l 25
 213 600 l 25
 137 600 l 25
 137 500 l 25xe6
 100 500 l 25
 100 400 l 25xe8
 63 400 l 29xf0
63 0 m 25
 -13 0 l 25
 -13 400 l 25xf080
 25 400 l 25
 25 500 l 25xe8
 63 500 l 25
 63 600 l 25xe4
 100 600 l 25
 100 700 l 25
 249 700 l 25
 250 600 l 25xe9
 287 600 l 25
 287 500 l 25xe2
 325 500 l 25
 325 400 l 25xe1
 363 400 l 25
 363 0 l 25
 287 0 l 25
 287 200 l 25
 63 200 l 25
 63 0 l 25
EndSplineSet
Validated: 1
EndChar

StartChar: uni0411
Encoding: 1041 1041 112
Width: 350
Flags: HW
HStem: 0 100<81 269> 300 100<81 269> 600 100<81 306>
VStem: 6 300<0 100 300 400 600 700> 6 75<100 300 400 600> 269 75<100 300>
CounterMasks: 1 e0
LayerCount: 2
Back
Fore
SplineSet
81 100 m 29xec
 269 100 l 25
 269 300 l 25
 81 300 l 25
 81 100 l 29xec
6 700 m 25xf0
 306 700 l 25
 306 600 l 25xf0
 81 600 l 25
 81 400 l 25xe8
 306 400 l 25
 306 300 l 25xf0
 344 300 l 25
 344 100 l 25xe4
 306 100 l 25
 306 0 l 25
 6 0 l 25
 6 700 l 25xf0
EndSplineSet
Validated: 1
EndChar

StartChar: uni0412
Encoding: 1042 1042 113
Width: 350
Flags: HW
HStem: 0 100<81 269> 300 100<81 269> 600 100<81 269>
VStem: 6 300<0 100 300 400 600 700> 6 75<100 300 400 600> 269 75<100 300 400 600>
CounterMasks: 1 e0
LayerCount: 2
Back
Fore
SplineSet
81 600 m 29xec
 81 400 l 25
 269 400 l 25
 269 600 l 25
 81 600 l 29xec
81 300 m 25
 81 100 l 25
 269 100 l 25
 269 300 l 25
 81 300 l 25
6 0 m 25xf0
 6 700 l 25
 306 700 l 25
 306 600 l 25xf0
 344 600 l 25
 344 400 l 25xe4
 306 400 l 25
 306 300 l 25xf0
 344 300 l 25
 344 100 l 25xe4
 306 100 l 25
 306 0 l 25
 6 0 l 25xf0
EndSplineSet
Validated: 1
EndChar

StartChar: uni0413
Encoding: 1043 1043 114
Width: 350
Flags: HW
HStem: 0 21G<6 81> 600 100<81 344>
VStem: 6 75<0 600>
LayerCount: 2
Back
Fore
SplineSet
6 700 m 29
 344 700 l 25
 344 600 l 25
 81 600 l 25
 81 0 l 25
 6 0 l 25
 6 700 l 29
EndSplineSet
Validated: 1
EndChar

StartChar: uni0414
Encoding: 1044 1044 115
Width: 350
Flags: HW
HStem: 0 100<119 231> 600 100<156 231>
VStem: 6 75<-100 0> 44 75<100 500> 81 75<500 600> 231 75<100 600> 269 75<-100 0>
LayerCount: 2
Back
Fore
SplineSet
156 600 m 29xcc
 156 500 l 25xcc
 119 500 l 25
 119 100 l 25xd0
 231 100 l 25
 231 600 l 25
 156 600 l 29xcc
81 500 m 25
 81 600 l 25xc8
 119 600 l 25
 119 700 l 25
 306 700 l 25
 306 100 l 25xd4
 344 100 l 25
 344 -100 l 25
 269 -100 l 25
 269 0 l 25
 81 0 l 25
 81 -100 l 25
 6 -100 l 25
 6 100 l 25xe2
 44 100 l 25
 44 500 l 25xd0
 81 500 l 25
EndSplineSet
Validated: 1
EndChar

StartChar: uni0415
Encoding: 1045 1045 116
Width: 350
Flags: HW
HStem: 0 100<81 344> 300 100<81 269> 600 100<81 344>
VStem: 6 75<100 300 400 600>
CounterMasks: 1 e0
LayerCount: 2
Back
Fore
SplineSet
344 600 m 29
 81 600 l 29
 81 400 l 29
 269 400 l 29
 269 300 l 29
 81 300 l 29
 81 100 l 29
 344 100 l 29
 344 0 l 29
 6 0 l 29
 6 700 l 29
 344 700 l 29
 344 600 l 29
EndSplineSet
Validated: 1
EndChar

StartChar: uni0416
Encoding: 1046 1046 117
Width: 350
Flags: HW
HStem: 0 21G<-13 63 137 213 287 363> 300 100<100 137 213 250> 680 20G<-13 62 137 213 287 363>
VStem: -13 75<0 200 500 700> 25 75<200 300 400 500> 137 75<0 300 400 700> 250 75<200 300 400 500> 287 75<0 200 500 700>
LayerCount: 2
Back
Fore
SplineSet
-13 700 m 29xf4
 62 700 l 25
 63 500 l 25xf4
 99 500 l 25
 100 400 l 25
 137 400 l 25
 137 700 l 25
 213 700 l 25
 213 400 l 25
 250 400 l 25
 250 500 l 25xee
 287 500 l 25
 287 700 l 25
 363 700 l 25
 363 500 l 25xe5
 325 500 l 25
 325 400 l 25xe6
 287 400 l 25xe5
 287 300 l 25
 325 300 l 25
 325 200 l 25xe6
 363 200 l 25
 363 0 l 25
 287 0 l 25
 287 200 l 25xe5
 250 200 l 25
 250 300 l 25
 213 300 l 25
 213 0 l 25
 137 0 l 25
 137 300 l 25
 100 300 l 25
 100 200 l 25xee
 63 200 l 25
 63 0 l 25
 -13 0 l 25
 -13 200 l 25xf4
 25 200 l 25
 25 300 l 25xec
 63 300 l 25
 63 400 l 25xf4
 25 400 l 25
 25 500 l 25xec
 -13 500 l 25
 -13 700 l 29xf4
EndSplineSet
Validated: 1
EndChar

StartChar: uni0417
Encoding: 1047 1047 118
Width: 350
Flags: HW
HStem: 0 100<81 269> 100 100<6 44> 300 100<119 269> 500 100<6 44> 600 100<81 269>
VStem: 6 75<100 200 500 600> 269 75<100 300 400 600>
LayerCount: 2
Back
Fore
SplineSet
6 500 m 29x36
 6 600 l 1
 44 600 l 25x36
 44 700 l 25
 306 700 l 25
 306 600 l 25
 344 600 l 25
 344 400 l 25
 306 400 l 25
 306 300 l 25
 344 300 l 25
 344 100 l 25
 306 100 l 25x6e
 306 0 l 25
 44 0 l 25xa6
 44 100 l 25
 6 100 l 25
 6 200 l 25
 81 200 l 25x66
 81 100 l 25
 269 100 l 25
 269 300 l 25
 119 300 l 25
 119 400 l 25
 269 400 l 25
 269 600 l 25
 81 600 l 25xae
 81 500 l 1
 6 500 l 29x36
EndSplineSet
Validated: 1
EndChar

StartChar: uni0418
Encoding: 1048 1048 119
Width: 350
Flags: HW
HStem: 0 21G<-13 100 287 363> 680 20G<-13 63 250 363>
VStem: -13 112<0 100> -13 75<200 700> 100 75<200 300> 137 75<300 400> 175 75<400 500> 250 112<600 700> 287 75<0 500>
LayerCount: 2
Back
Fore
SplineSet
-13 700 m 29xd0
 63 700 l 29
 63 200 l 29
 100 200 l 29
 100 300 l 29xd8
 137 300 l 29
 137 400 l 29xc4
 175 400 l 29
 175 500 l 29xc2
 213 500 l 29
 213 600 l 29
 250 600 l 29
 250 700 l 29
 363 700 l 29xc5
 363 0 l 29
 287 0 l 29
 287 500 l 29
 250 500 l 29
 250 400 l 29xc280
 213 400 l 29
 213 300 l 29xc4
 175 300 l 29
 175 200 l 29xc8
 137 200 l 29
 137 100 l 29
 100 100 l 29
 100 0 l 29
 -13 0 l 29xe4
 -13 700 l 29xd0
EndSplineSet
Validated: 1
EndChar

StartChar: uni0419
Encoding: 1049 1049 120
Width: 350
Flags: HW
HStem: 0 21G<-13 100 287 363> 680 20G<-13 63 250 363> 700 100<137 175>
VStem: -13 112<0 100> -13 75<200 700> 100 75<200 300> 137 75<300 400> 137 38<700 800> 175 75<400 500> 250 112<600 700> 287 75<0 500>
LayerCount: 2
Back
Fore
SplineSet
137 700 m 29xa1
 137 800 l 25
 175 800 l 25
 175 700 l 25
 137 700 l 29xa1
-13 700 m 25xc8
 63 700 l 25
 63 200 l 25
 100 200 l 25
 100 300 l 25xcc
 137 300 l 25
 137 400 l 25xc2
 175 400 l 25
 175 500 l 25xc080
 213 500 l 25
 213 600 l 25
 250 600 l 25
 250 700 l 25
 363 700 l 25xc240
 363 0 l 25
 287 0 l 25
 287 500 l 25
 250 500 l 25
 250 400 l 25xc0a0
 213 400 l 25
 213 300 l 25xc2
 175 300 l 25
 175 200 l 25xc4
 137 200 l 25
 137 100 l 25
 100 100 l 25
 100 0 l 25
 -13 0 l 25xd1
 -13 700 l 25xc8
EndSplineSet
Validated: 1
EndChar

StartChar: uni041A
Encoding: 1050 1050 121
Width: 350
Flags: HW
HStem: 0 100<269 344> 200 100<156 194> 300 100<81 119> 400 100<156 194> 600 100<269 344>
VStem: 6 75<0 300 400 700> 119 112<200 300 400 500> 194 75<100 200 500 600> 231 112<0 100 600 700>
LayerCount: 2
Back
Fore
SplineSet
6 700 m 29xae
 81 700 l 25
 81 400 l 25
 119 400 l 25xae
 119 500 l 25x9e
 194 500 l 25
 194 600 l 25x9d
 231 600 l 25
 231 700 l 25
 344 700 l 25
 344 600 l 25x9c80
 269 600 l 25
 269 500 l 25x9d
 231 500 l 25
 231 400 l 25
 156 400 l 25
 156 300 l 25xde
 231 300 l 25xae
 231 200 l 25xce
 269 200 l 25
 269 100 l 25xcd
 344 100 l 25
 344 0 l 25
 231 0 l 25
 231 100 l 25xcc80
 194 100 l 25
 194 200 l 25xcd
 119 200 l 25xce
 119 300 l 25
 81 300 l 25
 81 0 l 25
 6 0 l 25
 6 700 l 29xae
EndSplineSet
Validated: 1
EndChar

StartChar: uni041B
Encoding: 1051 1051 122
Width: 350
Flags: HW
HStem: 0 100<6 44> 600 100<156 269>
VStem: 6 75<0 100> 44 75<100 200> 81 75<200 600> 269 75<0 600>
LayerCount: 2
Back
Fore
SplineSet
6 0 m 29xe4
 6 100 l 25xe4
 44 100 l 25
 44 200 l 25xd4
 81 200 l 25
 81 600 l 25xcc
 119 600 l 25
 119 700 l 25xd4
 344 700 l 25
 344 0 l 25
 269 0 l 25
 269 600 l 25
 156 600 l 25
 156 200 l 25xcc
 119 200 l 25
 119 100 l 25xd4
 81 100 l 25
 81 0 l 25
 6 0 l 29xe4
EndSplineSet
Validated: 1
EndChar

StartChar: uni041C
Encoding: 1052 1052 123
Width: 350
Flags: HW
HStem: 0 21G<-13 63 287 363> 680 20G<-13 100 250 363>
VStem: -13 112<600 700> -13 75<0 500> 137 75<300 400> 250 112<600 700> 287 75<0 500>
LayerCount: 2
Back
Fore
SplineSet
63 0 m 29xd8
 -13 0 l 25xd8
 -13 700 l 25
 100 700 l 25
 100 600 l 25
 137 600 l 25
 137 500 l 25
 213 500 l 25
 213 600 l 25
 250 600 l 25
 250 700 l 25
 363 700 l 25xec
 363 0 l 25
 287 0 l 25
 287 500 l 25xca
 250 500 l 25
 250 400 l 25
 213 400 l 25
 213 300 l 25
 137 300 l 25
 137 400 l 25
 100 400 l 25
 100 500 l 25xec
 63 500 l 25
 63 0 l 29xd8
EndSplineSet
Validated: 1
EndChar

StartChar: uni041D
Encoding: 1053 1053 124
Width: 350
Flags: HW
HStem: 0 21G<6 81 269 344> 300 100<81 269> 680 20G<6 81 269 344>
VStem: 6 75<0 300 400 700> 269 75<0 300 400 700>
LayerCount: 2
Back
Fore
SplineSet
6 700 m 29
 81 700 l 25
 81 400 l 25
 269 400 l 25
 269 700 l 25
 344 700 l 25
 344 0 l 25
 269 0 l 25
 269 300 l 25
 81 300 l 25
 81 0 l 25
 6 0 l 25
 6 700 l 29
EndSplineSet
Validated: 1
EndChar

StartChar: uni041E
Encoding: 1054 1054 125
Width: 350
Flags: HW
HStem: 0 100<100 250> 600 100<100 250>
VStem: -13 75<200 500> 25 75<100 200 500 600> 63 225<0 100 600 700> 250 75<100 200 500 600> 287 75<200 500>
LayerCount: 2
Back
Fore
SplineSet
250 100 m 29xd4
 250 200 l 25xd4
 287 200 l 25
 287 500 l 25xc2
 250 500 l 25
 250 600 l 25
 100 600 l 25
 100 500 l 25xd4
 63 500 l 25
 63 200 l 25xe0
 100 200 l 25
 100 100 l 25
 250 100 l 29xd4
287 0 m 25xc8
 63 0 l 25
 63 100 l 25xc8
 25 100 l 25
 25 200 l 25xd0
 -13 200 l 25
 -13 500 l 25xe0
 25 500 l 25
 25 600 l 25xd0
 63 600 l 25
 63 700 l 25
 287 700 l 25
 287 600 l 25xc8
 325 600 l 25
 325 500 l 25xc4
 363 500 l 25
 363 200 l 25xc2
 325 200 l 25
 325 100 l 25xc4
 287 100 l 25
 287 0 l 25xc8
EndSplineSet
Validated: 1
EndChar

StartChar: uni041F
Encoding: 1055 1055 126
Width: 350
Flags: HW
HStem: 0 21G<6 81 269 344> 600 100<81 269>
VStem: 6 75<0 600> 269 75<0 600>
LayerCount: 2
Back
Fore
SplineSet
6 700 m 29
 344 700 l 25
 344 0 l 25
 269 0 l 25
 269 600 l 25
 81 600 l 25
 81 0 l 25
 6 0 l 25
 6 700 l 29
EndSplineSet
Validated: 1
EndChar

StartChar: uni0420
Encoding: 1056 1056 127
Width: 350
Flags: HW
HStem: 0 21G<6 81> 300 100<81 269> 600 100<81 269>
VStem: 6 75<0 300 400 600> 269 75<400 600>
LayerCount: 2
Back
Fore
SplineSet
81 600 m 29
 81 400 l 25
 269 400 l 25
 269 600 l 25
 81 600 l 29
6 700 m 25
 306 700 l 25
 306 650 l 25
 344 650 l 25
 344 400 l 25
 306 400 l 25
 306 300 l 25
 81 300 l 25
 81 0 l 25
 6 0 l 25
 6 700 l 25
EndSplineSet
Validated: 1
EndChar

StartChar: uni0421
Encoding: 1057 1057 128
Width: 350
Flags: HW
HStem: 0 100<119 269> 100 100<306 344> 500 100<306 344> 600 100<119 269>
VStem: 6 75<200 500> 44 75<100 200 500 600> 81 225<0 100 600 700> 269 75<100 200 500 600>
LayerCount: 2
Back
Fore
SplineSet
81 700 m 29x12
 306 700 l 25x12
 306 600 l 25x22
 344 600 l 25
 344 500 l 25
 269 500 l 25x21
 269 600 l 25
 119 600 l 25x15
 119 500 l 25x25
 81 500 l 25
 81 200 l 25x68
 119 200 l 25x64
 119 100 l 25
 269 100 l 25x85
 269 200 l 25
 344 200 l 25
 344 100 l 25x45
 306 100 l 25x42
 306 0 l 25
 81 0 l 25x82
 81 100 l 25x42
 44 100 l 25
 44 200 l 25x44
 6 200 l 25
 6 500 l 25x68
 44 500 l 25x64
 44 600 l 25x14
 81 600 l 25
 81 700 l 29x12
EndSplineSet
Validated: 1
EndChar

StartChar: uni0422
Encoding: 1058 1058 129
Width: 350
Flags: HW
HStem: 0 21G<137 213> 600 100<-13 137 213 363>
VStem: 137 75<0 600>
LayerCount: 2
Back
Fore
SplineSet
-13 700 m 1
 363 700 l 5
 363 600 l 1
 213 600 l 1
 213 0 l 25
 137 0 l 25
 137 600 l 1
 -13 600 l 1
 -13 700 l 1
EndSplineSet
Validated: 1
EndChar

StartChar: uni0423
Encoding: 1059 1059 130
Width: 350
Flags: HW
HStem: 0 100<81 269> 100 100<6 44> 300 100<81 269> 680 20G<6 81 269 344>
VStem: 6 75<100 200 400 700> 269 75<100 300 400 700>
LayerCount: 2
Back
Fore
SplineSet
6 700 m 29xbc
 81 700 l 25
 81 400 l 25
 269 400 l 25
 269 700 l 25
 344 700 l 25
 344 100 l 25
 306 100 l 25x7c
 306 0 l 25
 44 0 l 25xbc
 44 100 l 25
 6 100 l 25
 6 200 l 25
 81 200 l 25x7c
 81 100 l 25
 269 100 l 25
 269 300 l 25
 44 300 l 25
 44 400 l 25
 6 400 l 25
 6 700 l 29xbc
EndSplineSet
Validated: 1
EndChar

StartChar: uni0424
Encoding: 1060 1060 131
Width: 350
Flags: HW
HStem: 0 21G<137 213> 100 100<63 137 213 287> 500 100<63 137 213 287> 680 20G<137 213>
VStem: -13 75<200 500> 137 75<0 100 200 500 600 700> 287 75<200 500>
CounterMasks: 1 0e
LayerCount: 2
Back
Fore
SplineSet
213 500 m 29
 213 200 l 25
 287 200 l 25
 287 500 l 25
 213 500 l 29
63 500 m 25
 63 200 l 25
 137 200 l 25
 137 500 l 25
 63 500 l 25
137 600 m 25
 137 700 l 1
 213 700 l 25
 213 600 l 25
 325 600 l 25
 325 500 l 25
 363 500 l 25
 363 200 l 25
 325 200 l 25
 325 100 l 25
 213 100 l 25
 213 0 l 25
 137 0 l 25
 137 100 l 25
 25 100 l 25
 25 200 l 25
 -13 200 l 25
 -13 500 l 25
 25 500 l 25
 25 600 l 1
 137 600 l 25
EndSplineSet
Validated: 1
EndChar

StartChar: uni0425
Encoding: 1061 1061 132
Width: 350
Flags: HW
HStem: 0 100<25 63 287 325> 600 100<25 63 287 325>
VStem: 25 75<0 100 600 700> 63 75<100 200 500 600> 100 150<200 300 400 500> 213 75<100 200 500 600> 250 75<0 100 600 700>
LayerCount: 2
Back
Fore
SplineSet
25 700 m 29xe0
 100 700 l 25
 100 600 l 25xe0
 137 600 l 25
 137 500 l 25
 213 500 l 25
 213 600 l 25xd4
 250 600 l 25
 250 700 l 25
 325 700 l 25
 325 600 l 25xc2
 287 600 l 25
 287 500 l 25xc4
 250 500 l 25
 250 400 l 25xc8
 213 400 l 25
 213 300 l 25xc4
 250 300 l 25
 250 200 l 25xc8
 287 200 l 25
 287 100 l 25xc4
 325 100 l 25
 325 0 l 25
 250 0 l 25
 250 100 l 25xc2
 213 100 l 25
 213 200 l 25
 137 200 l 25
 137 100 l 25xd4
 100 100 l 25
 100 0 l 25
 25 0 l 25
 25 100 l 25xe0
 63 100 l 25
 63 200 l 25xd0
 100 200 l 25
 100 300 l 25xc8
 137 300 l 25
 137 400 l 25xd0
 100 400 l 25
 100 500 l 25xc8
 63 500 l 25
 63 600 l 25xd0
 25 600 l 25
 25 700 l 29xe0
EndSplineSet
Validated: 1
EndChar

StartChar: uni0426
Encoding: 1062 1062 133
Width: 350
Flags: HW
HStem: 0 100<81 194> 680 20G<6 81 194 269>
VStem: 6 75<100 700> 194 75<100 700> 269 75<-100 0>
LayerCount: 2
Back
Fore
SplineSet
6 700 m 29xe8
 81 700 l 25
 81 100 l 25
 194 100 l 25
 194 700 l 25
 269 700 l 25
 269 100 l 25xf0
 344 100 l 25
 344 -100 l 25
 269 -100 l 25
 269 0 l 25
 6 0 l 25
 6 700 l 29xe8
EndSplineSet
Validated: 1
EndChar

StartChar: uni0427
Encoding: 1063 1063 134
Width: 350
Flags: HW
HStem: 0 21G<269 344> 300 100<119 269> 680 20G<6 81 269 344>
VStem: 6 75<500 700> 44 75<400 500> 269 75<0 300 400 700>
LayerCount: 2
Back
Fore
SplineSet
6 700 m 29xf4
 81 700 l 25
 81 500 l 25xf4
 119 500 l 25
 119 400 l 25xec
 269 400 l 25
 269 700 l 25
 344 700 l 25
 344 0 l 25
 269 0 l 25
 269 300 l 25
 81 300 l 25
 81 400 l 25xf4
 44 400 l 25
 44 500 l 25xec
 6 500 l 25
 6 700 l 29xf4
EndSplineSet
Validated: 1
EndChar

StartChar: uni0428
Encoding: 1064 1064 135
Width: 350
Flags: HW
HStem: 0 100<63 137 213 287> 680 20G<-13 63 137 213 287 363>
VStem: -13 75<100 700> 137 75<100 700> 287 75<100 700>
CounterMasks: 1 38
LayerCount: 2
Back
Fore
SplineSet
-13 700 m 29
 63 700 l 25
 63 100 l 25
 137 100 l 25
 137 700 l 25
 213 700 l 25
 213 100 l 25
 287 100 l 25
 287 700 l 25
 363 700 l 25
 363 0 l 25
 -13 0 l 25
 -13 700 l 29
EndSplineSet
Validated: 1
EndChar

StartChar: uni0429
Encoding: 1065 1065 136
Width: 350
Flags: HW
HStem: 0 100<44 119 194 269> 680 20G<-31 44 119 194 269 344>
VStem: -31 75<100 700> 119 75<100 700> 269 75<100 700> 306 75<-100 0>
LayerCount: 2
Back
Fore
SplineSet
-31 700 m 29xf4
 44 700 l 25
 44 100 l 25
 119 100 l 25
 119 700 l 25
 194 700 l 25
 194 100 l 25
 269 100 l 25
 269 700 l 25
 344 700 l 25
 344 100 l 25xf8
 381 100 l 25
 381 -100 l 25
 306 -100 l 25
 306 0 l 25
 -31 0 l 25
 -31 700 l 29xf4
EndSplineSet
Validated: 1
EndChar

StartChar: uni042A
Encoding: 1066 1066 137
Width: 350
Flags: HW
HStem: 0 100<137 287> 300 100<137 287> 600 100<-13 63>
VStem: 63 75<100 300 400 600> 287 75<100 300>
CounterMasks: 1 e0
LayerCount: 2
Back
Fore
SplineSet
137 300 m 29
 137 100 l 25
 287 100 l 25
 287 300 l 25
 137 300 l 29
-13 700 m 25
 137 700 l 25
 137 400 l 25
 325 400 l 25
 325 300 l 25
 363 300 l 25
 363 100 l 25
 325 100 l 25
 325 0 l 25
 63 0 l 25
 63 600 l 25
 -13 600 l 25
 -13 700 l 25
EndSplineSet
Validated: 1
EndChar

StartChar: uni042B
Encoding: 1067 1067 138
Width: 350
Flags: HW
HStem: 0 100<63 175> 300 100<63 175> 680 20G<-13 63 287 363>
VStem: -13 225<0 100 300 400> -13 75<100 300 400 700> 175 75<100 300> 287 75<0 700>
LayerCount: 2
Back
Fore
SplineSet
175 300 m 29xee
 63 300 l 25
 63 100 l 25
 175 100 l 25
 175 300 l 29xee
287 700 m 25
 363 700 l 25
 363 0 l 25
 287 0 l 25
 287 700 l 25
-13 700 m 25
 63 700 l 25
 63 400 l 25xea
 213 400 l 25
 213 300 l 25xf2
 250 300 l 25
 250 100 l 25xe6
 213 100 l 25
 213 0 l 25
 -13 0 l 25xf2
 -13 700 l 25
EndSplineSet
Validated: 1
EndChar

StartChar: uni042C
Encoding: 1068 1068 139
Width: 350
Flags: HW
HStem: 0 100<100 250> 300 100<100 250> 680 20G<25 99>
VStem: 25 74<100 300 400 700> 250 75<101 300>
LayerCount: 2
Back
Fore
SplineSet
100 100 m 29
 250 100 l 25
 250 300 l 25
 100 300 l 25
 100 100 l 29
25 700 m 25
 99 700 l 25
 99 400 l 25
 287 400 l 25
 287 300 l 25
 323 300 l 25
 325 101 l 25
 287 100 l 25
 287 0 l 25
 25 0 l 25
 25 700 l 25
EndSplineSet
Validated: 1
EndChar

StartChar: uni042D
Encoding: 1069 1069 140
Width: 350
Flags: HW
HStem: 0 100<81 231> 100 100<6 44> 300 100<119 269> 500 100<6 44> 600 100<81 231>
VStem: 6 75<100 200 500 600> 44 225<0 100 600 700> 231 75<100 200 500 600> 269 75<200 300 400 500>
LayerCount: 2
Back
Fore
SplineSet
6 500 m 29x35
 6 600 l 25x35
 44 600 l 25x32
 44 700 l 25
 269 700 l 25
 269 600 l 25x2a
 306 600 l 25x29
 306 500 l 25x31
 344 500 l 25
 344 200 l 25x7080
 306 200 l 25
 306 100 l 25x71
 269 100 l 25x72
 269 0 l 25
 44 0 l 25xa2
 44 100 l 25x62
 6 100 l 25
 6 200 l 25
 81 200 l 25x64
 81 100 l 25
 231 100 l 25xa5
 231 200 l 25x65
 269 200 l 25
 269 300 l 25
 119 300 l 25
 119 400 l 25
 269 400 l 25
 269 500 l 25x7080
 231 500 l 25x71
 231 600 l 25
 81 600 l 25x2d
 81 500 l 25
 6 500 l 29x35
EndSplineSet
Validated: 1
EndChar

StartChar: uni042E
Encoding: 1070 1070 141
Width: 350
Flags: HW
HStem: 0 100<194 269> 300 100<81 119> 600 100<194 269>
VStem: 6 75<0 300 400 700> 119 75<100 300 400 600> 156 150<0 100 600 700> 269 75<100 600>
CounterMasks: 1 e0
LayerCount: 2
Back
Fore
SplineSet
194 600 m 29xfa
 194 100 l 25
 269 100 l 25
 269 600 l 25
 194 600 l 29xfa
6 700 m 25
 81 700 l 25
 81 400 l 25
 119 400 l 25
 119 600 l 25xf8
 156 600 l 25
 156 700 l 25
 306 700 l 25
 306 600 l 25xf4
 344 600 l 25
 344 100 l 25xf2
 306 100 l 25
 306 0 l 25
 156 0 l 25
 156 100 l 25xf4
 119 100 l 25
 119 300 l 25
 81 300 l 25
 81 0 l 25
 6 0 l 25
 6 700 l 25
EndSplineSet
Validated: 1
EndChar

StartChar: uni042F
Encoding: 1071 1071 142
Width: 350
Flags: HW
HStem: 0 100<6 81> 300 100<81 156> 600 100<81 269>
VStem: 6 75<400 600> 81 112<100 200> 269 75<0 200 400 600>
CounterMasks: 1 e0
LayerCount: 2
Back
Fore
SplineSet
81 600 m 29xf4
 81 400 l 25
 269 400 l 25
 269 600 l 25
 81 600 l 29xf4
44 700 m 25
 344 700 l 25
 344 0 l 25
 269 0 l 25
 269 200 l 25
 194 200 l 25
 194 100 l 25xec
 156 100 l 25
 156 0 l 25
 6 0 l 25
 6 100 l 25xf4
 81 100 l 25
 81 200 l 25xec
 156 200 l 25
 156 300 l 25
 44 300 l 25
 44 400 l 25
 6 400 l 25
 6 600 l 25
 44 600 l 25
 44 700 l 25
EndSplineSet
Validated: 1
EndChar

StartChar: uni0430
Encoding: 1072 1072 143
Width: 350
Flags: HW
HStem: 0 100<63 250 325 362> 100 100<-13 25> 200 100<63 250> 400 100<25 250>
VStem: -13 75<100 200> 250 75<100 200 300 400>
LayerCount: 2
Back
Fore
SplineSet
63 200 m 29xbc
 63 100 l 25
 250 100 l 25
 250 200 l 25
 63 200 l 29xbc
25 500 m 25
 287 500 l 25
 287 400 l 25
 325 400 l 25
 325 100 l 25
 362 100 l 25
 363 0 l 25
 25 0 l 25xbc
 25 100 l 25
 -13 100 l 25
 -13 200 l 25
 25 200 l 25x5c
 25 300 l 25
 250 300 l 25
 250 400 l 25
 25 400 l 25
 25 500 l 25
EndSplineSet
Validated: 1
EndChar

StartChar: uni0431
Encoding: 1073 1073 144
Width: 350
Flags: HW
HStem: 0 100<81 269> 300 200<156 269> 300 100<81 156> 600 100<44 81 156 344>
VStem: 6 75<100 300> 81 75<500 600> 156 112<400 500> 269 75<100 300>
LayerCount: 2
Back
Fore
SplineSet
81 300 m 29xb9
 81 100 l 25
 269 100 l 25
 269 300 l 25xd9
 81 300 l 29xb9
44 700 m 25
 344 700 l 25
 344 600 l 25
 156 600 l 25
 156 500 l 25xd5
 269 500 l 25xd2
 269 400 l 25xb2
 306 400 l 25
 306 300 l 25
 344 300 l 25
 344 100 l 25xb1
 306 100 l 25
 306 0 l 25
 44 0 l 25
 44 100 l 25
 6 100 l 25
 6 300 l 25
 44 300 l 25
 44 400 l 25
 156 400 l 25xba
 156 500 l 25
 81 500 l 25
 81 600 l 25xd4
 44 600 l 25
 44 700 l 25
EndSplineSet
Validated: 5
EndChar

StartChar: uni0432
Encoding: 1074 1074 145
Width: 350
Flags: HW
HStem: 0 100<81 269> 100 100<306 344> 200 100<81 269> 300 100<306 344> 400 100<81 269>
VStem: 6 300<0 100 200 300 400 500> 6 75<100 200 300 400> 269 75<100 200 300 400>
LayerCount: 2
Back
Fore
SplineSet
81 200 m 29xa3
 81 100 l 25
 269 100 l 25
 269 200 l 25
 81 200 l 29xa3
81 400 m 25x2b
 81 300 l 25
 269 300 l 25
 269 400 l 25
 81 400 l 25x2b
6 500 m 25x8c
 306 500 l 25x8c
 306 400 l 25x14
 344 400 l 25
 344 300 l 25x11
 306 300 l 25
 306 200 l 25x54
 344 200 l 25
 344 100 l 25x51
 306 100 l 25x54
 306 0 l 25
 6 0 l 25
 6 500 l 25x8c
EndSplineSet
Validated: 1
EndChar

StartChar: uni0433
Encoding: 1075 1075 146
Width: 350
Flags: HW
HStem: 0 21G<6 81> 400 100<81 344>
VStem: 6 75<0 400>
LayerCount: 2
Back
Fore
SplineSet
6 0 m 29
 6 500 l 25
 344 500 l 25
 344 401 l 25
 81 400 l 25
 81 0 l 25
 6 0 l 29
EndSplineSet
Validated: 1
EndChar

StartChar: uni0434
Encoding: 1076 1076 147
Width: 350
Flags: HW
HStem: -100 200<-13 62 287 363> -1 101<62 63 137 213> 400 100<137 213>
VStem: -13 75<-100 -1> 63 75<100 400> 213 75<100 400> 287 75<-100 0>
LayerCount: 2
Back
Fore
SplineSet
137 400 m 29x6c
 137 100 l 25
 213 100 l 25
 213 400 l 25
 137 400 l 29x6c
100 500 m 25
 287 500 l 25x6a
 287 100 l 25xa4
 363 100 l 25
 363 -100 l 25
 287 -100 l 25xa2
 287 0 l 25
 62 -1 l 25x62
 63 -100 l 25
 -13 -100 l 25
 -13 100 l 25xb2
 63 100 l 25
 63 400 l 25
 100 400 l 25
 100 500 l 25
EndSplineSet
Validated: 1
EndChar

StartChar: uni0435
Encoding: 1077 1077 148
Width: 350
Flags: HW
HStem: 0 100<81 306> 200 100<81 269> 400 100<81 269>
VStem: 6 75<100 200 300 400> 269 75<300 400>
CounterMasks: 1 e0
LayerCount: 2
Back
Fore
SplineSet
81 400 m 1
 81 300 l 1
 269 300 l 1
 269 400 l 1
 81 400 l 1
44 400 m 1
 44 500 l 1
 305 500 l 1
 306 400 l 25
 344 400 l 25
 344 200 l 1
 81 200 l 1
 81 100 l 1
 306 100 l 1
 306 0 l 1
 44 0 l 1
 44 100 l 1
 6 100 l 1
 6 400 l 5
 44 400 l 1
EndSplineSet
Validated: 1
EndChar

StartChar: uni0436
Encoding: 1078 1078 149
Width: 350
Flags: HW
HStem: 0 100<-13 25 325 363> 200 100<100 137 213 250> 400 100<-13 25 325 363>
VStem: -13 75<0 100 400 500> 25 75<100 200 300 400> 137 75<0 200 300 500> 250 75<100 200 300 400> 287 75<0 100 400 500>
CounterMasks: 1 e0
LayerCount: 2
Back
Fore
SplineSet
-13 500 m 29xf4
 63 500 l 25
 63 400 l 25xf4
 100 400 l 25
 100 300 l 25
 137 300 l 25
 137 500 l 25
 213 500 l 25
 213 300 l 25
 250 300 l 25
 250 400 l 25xee
 287 400 l 25
 287 500 l 25
 363 500 l 25
 363 400 l 25xe5
 325 400 l 25
 325 300 l 25xe6
 287 300 l 25
 287 200 l 25xe5
 325 200 l 25
 325 100 l 25xe6
 363 100 l 25
 363 0 l 25
 287 0 l 25
 287 100 l 25xe5
 250 100 l 25
 250 200 l 25
 213 200 l 25
 213 0 l 25
 137 0 l 25
 137 200 l 25
 100 200 l 25
 100 100 l 25xee
 63 100 l 25
 63 0 l 25
 -13 0 l 25
 -13 100 l 25xf4
 25 100 l 25
 25 200 l 25xec
 63 200 l 25
 63 300 l 25xf4
 25 300 l 25
 25 400 l 25xec
 -13 400 l 25
 -13 500 l 29xf4
EndSplineSet
Validated: 1
EndChar

StartChar: uni0437
Encoding: 1079 1079 150
Width: 350
Flags: HW
HStem: 0 100<81 269> 100 100<6 44 306 344> 300 100<6 44 306 344> 400 100<81 269>
VStem: 6 75<100 200 300 400> 269 75<100 200 300 400>
LayerCount: 2
Back
Fore
SplineSet
6 400 m 29x2c
 44 400 l 1x2c
 44 500 l 25
 306 500 l 25x1c
 306 400 l 25
 344 400 l 25
 344 300 l 25
 306 300 l 25
 306 200 l 25
 344 200 l 25
 344 100 l 25
 306 100 l 25x6c
 306 0 l 25
 44 0 l 25x8c
 44 100 l 25
 6 100 l 25
 6 200 l 25
 81 200 l 25x4c
 81 100 l 25
 269 100 l 25x8c
 269 200 l 25
 156 200 l 25
 156 300 l 25
 269 300 l 25x6c
 269 400 l 25
 81 400 l 25x1c
 81 300 l 25
 6 300 l 1
 6 400 l 29x2c
EndSplineSet
Validated: 1
EndChar

StartChar: uni0438
Encoding: 1080 1080 151
Width: 350
Flags: HW
HStem: 0 100<81 119> 100 100<119 156> 200 100<156 194> 300 100<194 231> 400 100<231 269>
VStem: 6 112<0 100> 6 75<100 500> 119 38<100 200> 156 38<200 300> 194 38<300 400> 231 112<400 500> 269 75<0 400>
LayerCount: 2
Back
Fore
SplineSet
6 0 m 29x84
 6 500 l 5
 81 500 l 29
 81 100 l 29x8a
 119 100 l 29x8c
 119 200 l 29
 156 200 l 29x41
 156 300 l 29
 194 300 l 29x2080
 194 400 l 29
 231 400 l 29x1040
 231 500 l 29
 344 500 l 29x0820
 344 0 l 29
 269 0 l 29
 269 400 l 29x8810
 231 400 l 29
 231 300 l 29x1050
 194 300 l 29
 194 200 l 29x2080
 156 200 l 29
 156 100 l 29x41
 119 100 l 29
 119 0 l 5
 6 0 l 29x84
EndSplineSet
Validated: 5
EndChar

StartChar: uni0439
Encoding: 1081 1081 152
Width: 350
Flags: HW
HStem: 0 100<81 119> 100 100<119 156> 200 100<156 194> 300 100<194 231> 400 100<231 269> 600 100<119 231> 700 100<44 81 269 306>
VStem: 6 75<100 500> 44 75<700 800> 119 38<100 200> 156 38<200 300> 194 38<300 400> 231 75<700 800> 269 75<0 400>
LayerCount: 2
Back
Fore
SplineSet
44 800 m 29x0280
 119 800 l 29x0280
 119 700 l 29
 231 700 l 29x0488
 231 800 l 29
 306 800 l 29
 306 700 l 29x0288
 269 700 l 29x0204
 269 600 l 29
 81 600 l 29x0504
 81 700 l 29x0304
 44 700 l 29
 44 800 l 29x0280
6 0 m 25x8140
 6 500 l 1
 81 500 l 25
 81 100 l 25
 119 100 l 25x8940
 119 200 l 25
 156 200 l 25x4140
 156 300 l 25
 194 300 l 25x2020
 194 400 l 25
 231 400 l 25x1010
 231 500 l 25x0808
 344 500 l 25
 344 0 l 25
 269 0 l 25
 269 400 l 25x8804
 231 400 l 25
 231 300 l 25x1014
 194 300 l 25
 194 200 l 25x2020
 156 200 l 25
 156 100 l 25x4040
 119 100 l 25
 119 0 l 1
 6 0 l 25x8140
EndSplineSet
Validated: 5
EndChar

StartChar: uni043A
Encoding: 1082 1082 153
Width: 350
Flags: HW
HStem: 0 100<269 344> 200 100<81 194> 400 100<269 344>
VStem: 6 75<0 200 300 500> 194 75<100 200 300 400> 231 112<0 100 400 500>
CounterMasks: 1 e0
LayerCount: 2
Back
Fore
SplineSet
6 500 m 29xf8
 81 500 l 25
 81 300 l 25
 194 300 l 25
 194 400 l 25xf8
 231 400 l 25
 231 500 l 25
 344 500 l 25
 344 400 l 25xf4
 269 400 l 25
 269 300 l 25xf8
 231 300 l 25
 231 200 l 25xf4
 269 200 l 25
 269 100 l 25xf8
 344 100 l 25
 344 0 l 25
 231 0 l 25
 231 100 l 25xf4
 194 100 l 25
 194 200 l 25
 81 200 l 25
 81 0 l 25
 6 0 l 25
 6 500 l 29xf8
EndSplineSet
Validated: 1
EndChar

StartChar: uni043B
Encoding: 1083 1083 154
Width: 350
Flags: HW
HStem: 0 100<6 44> 400 100<119 269>
VStem: 6 75<0 100> 44 75<100 400> 269 75<0 400>
LayerCount: 2
Back
Fore
SplineSet
6 100 m 29xe8
 44 100 l 25
 44 400 l 25xd8
 81 400 l 25
 81 500 l 25xe8
 344 500 l 25
 344 0 l 25
 269 0 l 25
 269 400 l 25
 119 400 l 25
 119 100 l 25xd8
 81 100 l 25
 81 0 l 25
 6 0 l 25
 6 100 l 29xe8
EndSplineSet
Validated: 1
EndChar

StartChar: uni043C
Encoding: 1084 1084 155
Width: 350
Flags: HW
HStem: 0 21G<6 81 269 344> 480 20G<6 119 231 344>
VStem: 6 112<400 500> 6 75<0 300> 119 112<200 300> 231 112<400 500> 269 75<0 300>
LayerCount: 2
Back
Fore
SplineSet
6 0 m 29xda
 6 500 l 25
 119 500 l 25
 119 400 l 25
 156 400 l 25
 156 300 l 25
 194 300 l 25
 194 400 l 25
 231 400 l 25
 231 500 l 25
 344 500 l 25xe4
 344 0 l 25
 269 0 l 25
 269 300 l 25
 231 300 l 25
 231 200 l 25
 194 200 l 25
 194 100 l 25
 156 100 l 25
 156 200 l 25
 119 200 l 25
 119 300 l 25
 81 300 l 25
 81 0 l 25
 6 0 l 29xda
EndSplineSet
Validated: 1
EndChar

StartChar: uni043D
Encoding: 1085 1085 156
Width: 350
Flags: HW
HStem: 0 21G<25 100 250 325> 200 100<100 250> 480 20G<25 100 250 325>
VStem: 25 75<0 200 300 500> 250 75<0 200 300 500>
LayerCount: 2
Back
Fore
SplineSet
25 500 m 25
 100 500 l 25
 100 300 l 1
 250 300 l 1
 250 500 l 5
 325 500 l 1
 325 0 l 1
 250 0 l 1
 250 200 l 1
 100 200 l 1
 100 0 l 25
 25 0 l 25
 25 500 l 25
EndSplineSet
Validated: 1
EndChar

StartChar: uni043E
Encoding: 1086 1086 157
Width: 350
Flags: HW
HStem: 0 100<81 269> 400 100<81 269>
VStem: 6 75<100 400> 269 75<100 400>
LayerCount: 2
Back
Fore
SplineSet
81 400 m 29
 81 100 l 25
 269 100 l 25
 269 400 l 25
 81 400 l 29
44 500 m 25
 306 500 l 25
 306 400 l 25
 344 400 l 25
 344 100 l 25
 306 100 l 25
 306 0 l 25
 44 0 l 25
 44 100 l 25
 6 100 l 25
 6 400 l 25
 44 400 l 25
 44 500 l 25
EndSplineSet
Validated: 1
EndChar

StartChar: uni043F
Encoding: 1087 1087 158
Width: 350
Flags: HW
HStem: 0 21G<6 81 269 344> 400 100<81 269>
VStem: 6 75<0 400> 269 75<0 400>
LayerCount: 2
Back
Fore
SplineSet
6 0 m 29
 6 500 l 25
 344 500 l 25
 344 0 l 25
 269 0 l 25
 269 400 l 25
 81 400 l 25
 81 0 l 25
 6 0 l 29
EndSplineSet
Validated: 1
EndChar

StartChar: uni0440
Encoding: 1088 1088 159
Width: 350
Flags: HW
HStem: -200 21G<6 81> 0 100<119 269> 100 100<81 119> 300 100<81 119> 400 100<119 269>
VStem: 6 112<100 200 300 400> 6 75<-200 100 200 300 400 500> 119 188<0 100 400 500> 269 75<100 400>
LayerCount: 2
Back
Fore
SplineSet
119 300 m 29x9480
 81 300 l 25
 81 200 l 25xb2
 119 200 l 25xb4
 119 100 l 25
 269 100 l 25
 269 400 l 25xcc80
 119 400 l 25
 119 300 l 29x9480
6 500 m 25xaa
 81 500 l 25xaa
 81 400 l 25x92
 119 400 l 25x94
 119 500 l 25
 306 500 l 25
 306 400 l 25x89
 344 400 l 25
 344 100 l 25xa880
 306 100 l 25xa9
 306 0 l 25
 119 0 l 25xc1
 119 100 l 25xc4
 81 100 l 25
 81 -200 l 25
 6 -200 l 25
 6 500 l 25xaa
EndSplineSet
Validated: 5
EndChar

StartChar: uni0441
Encoding: 1089 1089 160
Width: 350
Flags: HW
HStem: 0 100<119 344> 200 100<6 44> 400 100<119 344>
VStem: 6 75<200 300> 44 75<100 200 300 400>
CounterMasks: 1 e0
LayerCount: 2
Back
Fore
SplineSet
81 500 m 29xf0
 344 500 l 25
 344 400 l 25
 119 400 l 25
 119 300 l 25xe8
 81 300 l 25
 81 200 l 25xf0
 119 200 l 25
 119 100 l 25xe8
 344 100 l 25
 344 0 l 25
 81 0 l 25
 81 100 l 25xf0
 44 100 l 25
 44 200 l 25xe8
 6 200 l 25
 6 300 l 25xf0
 44 300 l 25
 44 400 l 25xe8
 81 400 l 25
 81 500 l 29xf0
EndSplineSet
Validated: 1
EndChar

StartChar: uni0442
Encoding: 1090 1090 161
Width: 350
Flags: HW
HStem: 0 21G<137 213> 400 100<-13 137 213 363>
VStem: 137 75<0 400>
LayerCount: 2
Back
Fore
SplineSet
-13 500 m 1
 363 500 l 1
 363 400 l 5
 213 400 l 1
 213 0 l 25
 137 0 l 25
 137 400 l 1
 -13 400 l 1
 -13 500 l 1
EndSplineSet
Validated: 1
EndChar

StartChar: uni0443
Encoding: 1091 1091 162
Width: 350
Flags: HW
HStem: -200 100<6 81> 400 100<6 44 306 344>
VStem: 6 75<400 500> 44 75<300 400> 81 75<-100 0 200 300> 119 112<100 200> 119 75<0 100> 194 75<200 300> 231 75<300 400> 269 75<400 500>
LayerCount: 2
Back
Fore
SplineSet
6 500 m 29xe0
 81 500 l 25
 81 400 l 25xe0
 119 400 l 25
 119 300 l 25xd0
 156 300 l 25
 156 200 l 25
 194 200 l 25
 194 300 l 25xc9
 231 300 l 25
 231 400 l 25xc080
 269 400 l 25
 269 500 l 25
 344 500 l 25
 344 400 l 25xc040
 306 400 l 25
 306 300 l 25xc080
 269 300 l 25
 269 200 l 25xc1
 231 200 l 25
 231 100 l 25xc4
 194 100 l 25
 194 0 l 25xc2
 156 0 l 25
 156 -100 l 25xc8
 119 -100 l 25
 119 -200 l 25
 6 -200 l 25
 6 -100 l 25xe2
 81 -100 l 25
 81 0 l 25xc8
 119 0 l 25xc2
 119 200 l 25xc4
 81 200 l 25
 81 300 l 25xc8
 44 300 l 25
 44 400 l 25xd0
 6 400 l 25
 6 500 l 29xe0
EndSplineSet
Validated: 1
EndChar

StartChar: uni0444
Encoding: 1092 1092 163
Width: 350
Flags: HW
HStem: -200 21G<137 213> 0 100<63 137 213 287> 400 100<63 137 213 287> 680 20G<137 213>
VStem: -13 75<100 400> 137 75<-200 0 100 400 500 700> 287 75<100 400>
CounterMasks: 1 0e
LayerCount: 2
Back
Fore
SplineSet
137 400 m 29
 63 400 l 25
 63 100 l 25
 137 100 l 25
 137 400 l 29
213 400 m 25
 213 100 l 25
 287 100 l 25
 287 400 l 25
 213 400 l 25
137 700 m 25
 213 700 l 25
 213 500 l 25
 325 500 l 25
 325 400 l 25
 363 400 l 25
 363 100 l 25
 325 100 l 25
 325 0 l 25
 213 0 l 25
 213 -200 l 25
 137 -200 l 25
 137 0 l 25
 25 0 l 25
 25 100 l 25
 -13 100 l 25
 -13 400 l 25
 25 400 l 25
 25 500 l 25
 137 500 l 25
 137 700 l 25
EndSplineSet
Validated: 1
EndChar

StartChar: uni0445
Encoding: 1093 1093 164
Width: 350
Flags: HW
HStem: 0 100<-13 63 287 363> 200 100<137 213> 400 100<-13 63 287 363>
VStem: -13 112<0 100 400 500> 63 75<100 200 300 400> 213 75<100 200 300 400> 250 112<0 100 400 500>
CounterMasks: 1 e0
LayerCount: 2
Back
Fore
SplineSet
-13 500 m 29xf0
 100 500 l 25
 100 400 l 25xf0
 137 400 l 25
 137 300 l 25
 213 300 l 25
 213 400 l 25xec
 250 400 l 25
 250 500 l 25
 363 500 l 25
 363 400 l 25xe2
 287 400 l 25
 287 300 l 25xe4
 250 300 l 25
 250 200 l 25xe2
 287 200 l 25
 287 100 l 25xe4
 363 100 l 25
 363 0 l 25
 250 0 l 25
 250 100 l 25xe2
 213 100 l 25
 213 200 l 25
 137 200 l 25
 137 100 l 25xec
 100 100 l 25
 100 0 l 25
 -13 0 l 25
 -13 100 l 25xf0
 63 100 l 25
 63 200 l 25xe8
 100 200 l 25
 100 300 l 25xf0
 63 300 l 25
 63 400 l 25xe8
 -13 400 l 25
 -13 500 l 29xf0
EndSplineSet
Validated: 1
EndChar

StartChar: uni0446
Encoding: 1094 1094 165
Width: 350
Flags: HW
HStem: 0 100<81 194> 480 20G<6 81 194 269>
VStem: 6 75<100 500> 194 75<100 500> 269 75<-100 0>
LayerCount: 2
Back
Fore
SplineSet
6 500 m 29xe8
 81 500 l 25
 81 100 l 25
 194 100 l 25
 194 500 l 25
 269 500 l 25
 269 100 l 25xf0
 344 100 l 25
 344 -100 l 25
 269 -100 l 25
 269 0 l 25
 6 0 l 25
 6 500 l 29xe8
EndSplineSet
Validated: 1
EndChar

StartChar: uni0447
Encoding: 1095 1095 166
Width: 350
Flags: HW
HStem: 0 21G<269 344> 200 100<81 269> 480 20G<6 81 269 344>
VStem: 6 75<300 500> 269 75<0 200 300 500>
LayerCount: 2
Back
Fore
SplineSet
6 500 m 29
 81 500 l 25
 81 300 l 25
 269 300 l 25
 269 500 l 25
 344 500 l 25
 344 0 l 25
 269 0 l 25
 269 200 l 25
 44 200 l 25
 44 300 l 25
 6 300 l 25
 6 500 l 29
EndSplineSet
Validated: 1
EndChar

StartChar: uni0448
Encoding: 1096 1096 167
Width: 350
Flags: HW
HStem: 0 100<63 137 213 287> 480 20G<-13 63 137 213 287 363>
VStem: -13 75<100 500> 137 75<100 500> 287 75<100 500>
CounterMasks: 1 38
LayerCount: 2
Back
Fore
SplineSet
-13 500 m 29
 63 500 l 25
 63 100 l 25
 137 100 l 25
 137 500 l 25
 213 500 l 25
 213 100 l 25
 287 100 l 25
 287 500 l 25
 363 500 l 25
 363 0 l 25
 -13 0 l 25
 -13 500 l 29
EndSplineSet
Validated: 1
EndChar

StartChar: uni0449
Encoding: 1097 1097 168
Width: 350
Flags: HW
HStem: 0 100<44 119 194 269> 480 20G<-31 44 119 194 269 344>
VStem: -31 75<100 500> 119 75<100 500> 269 75<100 500> 306 75<-100 0>
LayerCount: 2
Back
Fore
SplineSet
-31 500 m 29xf4
 44 500 l 25
 44 100 l 25
 119 100 l 25
 119 500 l 25
 194 500 l 25
 194 100 l 25
 269 100 l 25
 269 500 l 25
 344 500 l 25
 344 100 l 25xf8
 381 100 l 25
 381 -100 l 25
 306 -100 l 25
 306 0 l 25
 -31 0 l 25
 -31 500 l 29xf4
EndSplineSet
Validated: 1
EndChar

StartChar: uni044A
Encoding: 1098 1098 169
Width: 350
Flags: HW
HStem: 0 100<137 287> 100 100<325 363> 200 100<137 287> 400 100<-13 63>
VStem: 63 75<100 200 300 400> 287 75<100 200>
LayerCount: 2
Back
Fore
SplineSet
137 200 m 29xbc
 137 100 l 25
 287 100 l 25
 287 200 l 25
 137 200 l 29xbc
-13 500 m 25
 137 500 l 25
 137 300 l 25
 325 300 l 25xbc
 325 200 l 25
 363 200 l 25
 363 100 l 25
 325 100 l 25x5c
 325 0 l 25
 63 0 l 25
 63 400 l 25
 -13 400 l 25
 -13 500 l 25
EndSplineSet
Validated: 1
EndChar

StartChar: uni044B
Encoding: 1099 1099 170
Width: 350
Flags: HW
HStem: 0 100<63 175> 100 100<213 250> 200 100<63 175> 480 20G<-13 63 287 363>
VStem: -13 225<0 100 200 300> -13 75<100 200 300 500> 175 75<100 200> 287 75<0 500>
LayerCount: 2
Back
Fore
SplineSet
287 0 m 29x91
 287 500 l 25
 363 500 l 25
 363 0 l 25
 287 0 l 29x91
63 200 m 25xb7
 63 100 l 25
 175 100 l 25
 175 200 l 25
 63 200 l 25xb7
-13 500 m 25
 63 500 l 25
 63 300 l 25xb5
 213 300 l 25xb9
 213 200 l 25x59
 250 200 l 25
 250 100 l 25x53
 213 100 l 25x59
 213 0 l 25
 -13 0 l 25x99
 -13 500 l 25
EndSplineSet
Validated: 1
EndChar

StartChar: uni044C
Encoding: 1100 1100 171
Width: 350
Flags: HW
HStem: 0 100<81 269> 100 100<306 344> 200 100<81 269> 480 20G<6 81>
VStem: 6 75<100 200 300 500> 269 75<100 200>
LayerCount: 2
Back
Fore
SplineSet
81 100 m 1xbc
 269 100 l 1
 269 200 l 1
 81 200 l 1
 81 100 l 1xbc
6 500 m 1
 81 500 l 1
 81 300 l 5
 306 300 l 1xbc
 306 200 l 25
 344 200 l 25
 344 100 l 25
 306 100 l 25x5c
 306 0 l 1
 6 0 l 1
 6 500 l 1
EndSplineSet
Validated: 1
EndChar

StartChar: uni044D
Encoding: 1101 1101 172
Width: 350
Flags: HW
HStem: 0 100<81 269> 100 100<6 44> 200 100<156 269> 300 100<6 44> 400 100<81 269>
VStem: 6 75<100 200 300 400> 269 75<100 200 300 400>
LayerCount: 2
Back
Fore
SplineSet
6 300 m 29x16
 6 400 l 25
 44 400 l 25x16
 44 500 l 25
 306 500 l 25
 306 400 l 25
 344 400 l 25
 344 100 l 25
 306 100 l 25x4e
 306 0 l 25
 44 0 l 25x86
 44 100 l 25
 6 100 l 25
 6 200 l 25x46
 81 200 l 25
 81 100 l 25
 269 100 l 25
 269 200 l 25
 156 200 l 25
 156 300 l 25
 269 300 l 25
 269 400 l 25
 81 400 l 25xae
 81 300 l 25
 6 300 l 29x16
EndSplineSet
Validated: 1
EndChar

StartChar: uni044E
Encoding: 1102 1102 173
Width: 350
Flags: HW
HStem: 0 100<194 269> 200 100<81 119> 400 100<194 269>
VStem: 6 75<0 200 300 500> 119 75<100 200 300 400> 156 150<0 100 400 500> 269 75<100 400>
CounterMasks: 1 e0
LayerCount: 2
Back
Fore
SplineSet
194 100 m 29xfa
 269 100 l 25
 269 400 l 25
 194 400 l 25
 194 100 l 29xfa
6 0 m 25
 6 500 l 25
 81 500 l 25
 81 300 l 25
 119 300 l 25
 119 400 l 25xf8
 156 400 l 25
 156 500 l 25
 306 500 l 25
 306 400 l 25xf4
 344 400 l 25
 344 100 l 25xf2
 306 100 l 25
 306 0 l 25
 156 0 l 25
 156 100 l 25xf4
 119 100 l 25
 119 200 l 25
 81 200 l 25
 81 0 l 25
 6 0 l 25
EndSplineSet
Validated: 1
EndChar

StartChar: uni044F
Encoding: 1103 1103 174
Width: 350
Flags: HW
HStem: 0 100<44 119> 200 100<81 119 231 269> 300 100<6 44> 400 100<81 269>
VStem: 6 75<300 400> 44 112<0 100> 119 112<100 200> 269 75<0 200 300 400>
LayerCount: 2
Back
Fore
SplineSet
81 400 m 29xd9
 81 300 l 25
 269 300 l 25
 269 400 l 25
 81 400 l 29xd9
6 400 m 25xa9
 44 400 l 25xa5
 44 500 l 25x95
 344 500 l 25
 344 0 l 25
 269 0 l 25
 269 200 l 25
 231 200 l 25
 231 100 l 25xd3
 156 100 l 25
 156 0 l 25
 44 0 l 25
 44 100 l 25xd5
 119 100 l 25
 119 200 l 25xd3
 44 200 l 25xd5
 44 300 l 25xa5
 6 300 l 25
 6 400 l 25xa9
EndSplineSet
Validated: 1
EndChar

StartChar: uni2116
Encoding: 8470 8470 175
Width: 350
Flags: HW
HStem: 0 21G<-50 25 100 175> 200 100<213 400> 400 100<287 325> 500 100<213 250 363 400> 600 100<287 325>
VStem: -50 112<400 600> -50 75<0 250 600 700> 63 112<100 250> 100 75<0 100 400 700> 213 75<500 600> 250 112<400 500 600 700> 325 75<500 600>
LayerCount: 2
Back
Fore
SplineSet
213 300 m 29xc050
 400 300 l 25
 400 200 l 25
 213 200 l 25
 213 300 l 29xc050
287 600 m 25xe850
 287 500 l 25
 325 500 l 25
 325 600 l 25
 287 600 l 25xe850
250 600 m 25xd020
 250 700 l 25
 363 700 l 25xc820
 363 600 l 25xd020
 400 600 l 25
 400 500 l 25xd010
 363 500 l 25xd020
 363 400 l 25
 250 400 l 25xe020
 250 500 l 25xd020
 213 500 l 25
 213 600 l 25xd040
 250 600 l 25xd020
-50 0 m 25xeb
 -50 700 l 25
 25 700 l 25
 25 600 l 25xeb
 63 600 l 25
 63 400 l 25
 100 400 l 25
 100 700 l 25
 175 700 l 25
 175 0 l 25
 100 0 l 25
 100 100 l 25xec80
 63 100 l 25
 63 250 l 25
 25 250 l 25
 25 0 l 25
 -50 0 l 25xeb
EndSplineSet
Validated: 1
EndChar

StartChar: asciitilde
Encoding: 126 126 176
Width: 350
Flags: HW
HStem: 500 100<6 44 194 269> 600 100<81 156 306 344>
VStem: 6 75<501 600> 269 75<600 700>
LayerCount: 2
Back
Fore
SplineSet
6 600 m 29xb0
 44 600 l 25xb0
 44 700 l 25
 194 700 l 25x70
 194 600 l 25
 269 600 l 25xb0
 269 700 l 25
 344 700 l 25
 344 600 l 25
 306 600 l 25x70
 306 500 l 25
 156 500 l 25xb0
 156 600 l 25
 81 600 l 25x70
 81 500 l 25
 6 501 l 25
 6 600 l 29xb0
EndSplineSet
Validated: 1
EndChar

StartChar: section
Encoding: 167 167 177
Width: 350
Flags: HW
HStem: 0 100<63 175> 100 100<-13 25> 200 100<137 175> 300 100<63 100 250 287> 400 100<175 213> 500 100<325 363> 600 100<175 287>
VStem: -13 75<100 200> 63 75<300 400> 100 75<500 600> 175 75<100 200> 213 75<300 400> 287 75<500 600>
LayerCount: 2
Back
Fore
SplineSet
213 400 m 29x0890
 137 400 l 25
 137 300 l 25x2890
 213 300 l 25x1090
 213 400 l 29x0890
287 500 m 25x0488
 287 600 l 25
 175 600 l 25
 175 500 l 25x0a48
 250 500 l 25
 250 400 l 25x1420
 287 400 l 25
 287 300 l 25x1410
 250 300 l 25
 250 100 l 25x5420
 213 100 l 25x5410
 213 0 l 25
 25 0 l 25x8010
 25 100 l 25
 -13 100 l 25
 -13 200 l 25x4110
 63 200 l 25
 63 100 l 25
 175 100 l 25
 175 200 l 25xa120
 100 200 l 25xa040
 100 300 l 25x1040
 63 300 l 25
 63 400 l 25x1080
 100 400 l 25
 100 600 l 25x1240
 137 600 l 25
 137 700 l 25
 325 700 l 25x1280
 325 600 l 25
 363 600 l 25
 363 500 l 25
 287 500 l 25x0488
EndSplineSet
Validated: 1
EndChar

StartChar: parenleft
Encoding: 40 40 178
Width: 350
Flags: HW
HStem: 0 100<194 269> 600 100<194 269>
VStem: 81 75<200 500> 119 75<100 200 500 600> 156 112<0 100 600 700>
LayerCount: 2
Back
Fore
SplineSet
156 600 m 29xc8
 156 700 l 25
 269 700 l 25
 269 600 l 25xc8
 194 600 l 25
 194 500 l 25xd0
 156 500 l 25
 156 200 l 25xe0
 194 200 l 25
 194 100 l 25xd0
 269 100 l 25
 269 0 l 25
 156 0 l 25
 156 100 l 25xc8
 119 100 l 25
 119 200 l 25xd0
 81 200 l 25
 81 500 l 25xe0
 119 500 l 25
 119 600 l 25xd0
 156 600 l 29xc8
EndSplineSet
Validated: 1
EndChar

StartChar: quotedbl
Encoding: 34 34 179
Width: 350
Flags: HW
HStem: 400 100<25 63 213 250> 600 100<25 63 213 250>
VStem: 25 75<400 500> 63 75<500 600> 213 75<400 500> 250 75<500 600>
LayerCount: 2
Back
Fore
SplineSet
213 400 m 29xc8
 213 500 l 29xc8
 250 500 l 29
 250 600 l 29xc4
 213 600 l 29
 213 700 l 29xc8
 325 700 l 29
 325 500 l 29xc4
 287 500 l 29
 287 400 l 29
 213 400 l 29xc8
25 600 m 29xe0
 25 700 l 29xe0
 137 700 l 29
 137 500 l 29xd0
 100 500 l 29
 100 400 l 29
 25 400 l 29
 25 500 l 29xe0
 63 500 l 29
 63 600 l 29xd0
 25 600 l 29xe0
EndSplineSet
Validated: 1
EndChar

StartChar: numbersign
Encoding: 35 35 180
Width: 350
Flags: HW
HStem: 0 21G<63 137 213 287> 200 100<-13 63 137 213 287 363> 400 100<-13 63 137 213 287 363> 680 20G<63 137 213 287>
VStem: 63 75<0 200 300 400 500 700> 213 75<0 200 300 400 500 700>
LayerCount: 2
Back
Fore
SplineSet
137 300 m 29
 213 300 l 25
 213 400 l 25
 137 400 l 25
 137 300 l 29
63 700 m 25
 137 700 l 25
 137 500 l 25
 213 500 l 25
 213 700 l 25
 287 700 l 25
 287 500 l 25
 363 500 l 25
 363 400 l 25
 287 400 l 25
 287 300 l 25
 363 300 l 25
 363 200 l 25
 287 200 l 25
 287 0 l 25
 213 0 l 25
 213 200 l 25
 137 200 l 25
 137 0 l 25
 63 0 l 25
 63 200 l 25
 -13 200 l 25
 -13 300 l 25
 63 300 l 25
 63 400 l 25
 -13 400 l 25
 -13 500 l 25
 63 500 l 25
 63 700 l 25
EndSplineSet
Validated: 1
EndChar

StartChar: dollar
Encoding: 36 36 181
Width: 350
Flags: HW
HStem: 0 100<63 137 213 287> 100 100<-13 25> 300 100<63 137 213 287> 500 100<325 363> 600 100<63 137 213 287>
VStem: -13 75<100 200 400 600> 25 300<0 100 300 400 600 700> 137 75<-100 0 100 300 400 600 700 800> 287 75<100 300 500 600>
LayerCount: 2
Back
Fore
SplineSet
287 100 m 29xa180
 287 300 l 25
 213 300 l 25
 213 100 l 25
 287 100 l 29xa180
137 600 m 25x2d
 63 600 l 25
 63 400 l 25
 137 400 l 25
 137 600 l 25x2d
213 800 m 25
 213 700 l 1xa9
 325 700 l 25xaa
 325 600 l 25x32
 363 600 l 25
 363 500 l 25
 287 500 l 25x3080
 287 600 l 25
 213 600 l 25
 213 400 l 25x2980
 325 400 l 25
 325 300 l 25x2a
 363 300 l 25
 363 100 l 25x6880
 325 100 l 25x6a
 325 0 l 25xa2
 213 0 l 25
 213 -100 l 25
 137 -100 l 25
 137 0 l 25xa1
 25 0 l 25xa2
 25 100 l 25x62
 -13 100 l 25
 -13 200 l 25
 63 200 l 25x64
 63 100 l 25
 137 100 l 25
 137 300 l 25xa5
 25 300 l 25
 25 400 l 25xa2
 -13 400 l 25
 -13 600 l 25xac
 25 600 l 25
 25 700 l 25xaa
 137 700 l 25
 137 800 l 1
 213 800 l 25
EndSplineSet
Validated: 1
EndChar

StartChar: percent
Encoding: 37 37 182
Width: 350
Flags: HW
HStem: 0 100<25 63 287 325> 100 100<213 250 363 400> 200 100<287 325> 400 100<25 63> 500 100<-50 -13 100 137> 600 100<25 63 287 325>
VStem: -50 75<500 600> -13 112<400 500 600 700> 25 75<0 100> 63 75<100 200 500 600> 100 75<200 300> 137 75<300 400> 175 75<400 500> 213 75<100 200 500 600> 250 112<0 100 200 300> 250 75<600 700> 325 75<100 200>
LayerCount: 2
Back
Fore
SplineSet
250 700 m 29x0401
 325 700 l 25
 325 600 l 25x0401
 287 600 l 25x0404
 287 500 l 25x0804
 250 500 l 25x0808
 250 400 l 25x1008
 213 400 l 25
 213 300 l 25x3010
 175 300 l 25
 175 200 l 25x3020
 137 200 l 25x3040
 137 100 l 25x4040
 100 100 l 25x4080
 100 0 l 25
 25 0 l 25
 25 100 l 25x8080
 63 100 l 25
 63 200 l 25xa040
 100 200 l 25
 100 300 l 25xa020
 137 300 l 25
 137 400 l 25xb010
 175 400 l 25xb008
 175 500 l 25x0808
 213 500 l 25x0804
 213 600 l 25x0404
 250 600 l 25
 250 700 l 29x0401
287 100 m 25xa00480
 325 100 l 25
 325 200 l 25
 287 200 l 25
 287 100 l 25xa00480
250 300 m 25x2002
 363 300 l 25x2002
 363 200 l 25x4002
 400 200 l 25
 400 100 l 25x400080
 363 100 l 25x4002
 363 0 l 25
 250 0 l 25x8002
 250 100 l 25x4002
 213 100 l 25
 213 200 l 25x4004
 250 200 l 25x4002
 250 300 l 25x2002
25 600 m 25x1640
 25 500 l 25
 63 500 l 25
 63 600 l 25
 25 600 l 25x1640
-50 600 m 25x0a
 -13 600 l 25x09
 -13 700 l 25
 100 700 l 25x05
 100 600 l 25x09
 137 600 l 25
 137 500 l 25x0840
 100 500 l 25x09
 100 400 l 25
 -13 400 l 25x11
 -13 500 l 25x09
 -50 500 l 25
 -50 600 l 25x0a
EndSplineSet
Validated: 1
EndChar

StartChar: ampersand
Encoding: 38 38 183
Width: 350
Flags: HW
HStem: 0 100<44 194 306 381> 100 100<-31 6 231 269> 200 100<306 344> 300 100<81 156> 600 100<81 156>
VStem: -31 75<100 200> 6 75<200 300 400 600> 44 150<300 400 600 700> 156 75<200 300 400 600> 269 112<0 100> 269 75<200 300>
LayerCount: 2
Back
Fore
SplineSet
81 300 m 29x1a80
 81 200 l 25x2a80
 44 200 l 25
 44 100 l 25xac
 194 100 l 25
 194 200 l 25xa9
 156 200 l 25xa880
 156 300 l 25
 81 300 l 29x1a80
81 600 m 25
 81 400 l 25
 156 400 l 25x1a80
 156 600 l 25
 81 600 l 25
44 700 m 25x59
 194 700 l 25
 194 600 l 25x59
 231 600 l 25
 231 400 l 25x5880
 194 400 l 25
 194 300 l 25x59
 231 300 l 25
 231 200 l 25
 269 200 l 25
 269 300 l 25x58a0
 344 300 l 25
 344 200 l 25x28a0
 306 200 l 25
 306 100 l 25
 381 100 l 25
 381 0 l 25
 269 0 l 25xa840
 269 100 l 25
 231 100 l 25x48c0
 231 0 l 25
 6 0 l 25x8ac0
 6 100 l 25x4ac0
 -31 100 l 25
 -31 200 l 25x4c
 6 200 l 25
 6 300 l 25x5a
 44 300 l 25
 44 400 l 25x59
 6 400 l 25
 6 600 l 25x5a
 44 600 l 25
 44 700 l 25x59
EndSplineSet
Validated: 1
EndChar

StartChar: quotesingle
Encoding: 39 39 184
Width: 350
Flags: HW
HStem: 400 100<25 63 213 250> 600 100<25 63 213 250>
VStem: 25 75<400 500> 63 75<500 600> 213 75<400 500> 250 75<500 600>
LayerCount: 2
Back
Fore
SplineSet
213 400 m 29xc8
 213 500 l 29xc8
 250 500 l 29
 250 600 l 29xc4
 213 600 l 29
 213 700 l 29xc8
 325 700 l 29
 325 500 l 29xc4
 287 500 l 29
 287 400 l 29
 213 400 l 29xc8
25 600 m 29xe0
 25 700 l 29xe0
 137 700 l 29
 137 500 l 29xd0
 100 500 l 29
 100 400 l 29
 25 400 l 29
 25 500 l 29xe0
 63 500 l 29
 63 600 l 29xd0
 25 600 l 29xe0
EndSplineSet
Validated: 1
EndChar

StartChar: parenright
Encoding: 41 41 185
Width: 350
Flags: HW
HStem: 0 100<81 156> 600 100<81 156>
VStem: 81 112<0 100 600 700> 156 75<100 200 500 600> 194 75<200 500>
LayerCount: 2
Back
Fore
SplineSet
81 700 m 29xe0
 194 700 l 25
 194 600 l 25xe0
 231 600 l 25
 231 500 l 25xd0
 269 500 l 25
 269 200 l 25xc8
 231 200 l 25
 231 100 l 25xd0
 194 100 l 25
 194 0 l 25
 81 0 l 25
 81 100 l 25xe0
 156 100 l 25
 156 200 l 25xd0
 194 200 l 25
 194 500 l 25xc8
 156 500 l 25
 156 600 l 25xd0
 81 600 l 25
 81 700 l 29xe0
EndSplineSet
Validated: 1
EndChar

StartChar: braceleft
Encoding: 123 123 186
Width: 350
Flags: HW
HStem: 0 100<213 287> 300 100<63 137> 600 100<213 287>
VStem: 63 112<300 400> 137 75<100 300 400 600> 175 112<0 100 600 700>
CounterMasks: 1 e0
LayerCount: 2
Back
Fore
SplineSet
287 700 m 29xe4
 287 600 l 1xe4
 213 600 l 25
 213 400 l 25xe8
 175 400 l 25
 175 300 l 25xf0
 213 300 l 25
 213 100 l 25xe8
 287 100 l 25
 287 0 l 25
 175 0 l 25
 175 100 l 25xe4
 137 100 l 25
 137 300 l 25xe8
 63 300 l 25
 63 400 l 25xf0
 137 400 l 25
 137 600 l 25xe8
 175 600 l 25
 175 700 l 1
 287 700 l 29xe4
EndSplineSet
Validated: 1
EndChar

StartChar: bar
Encoding: 124 124 187
Width: 350
Flags: HW
HStem: 0 21G<137 213> 680 20G<137 213>
VStem: 137 75<0 700>
LayerCount: 2
Back
Fore
SplineSet
137 700 m 29
 213 700 l 25
 213 0 l 25
 137 0 l 25
 137 700 l 29
EndSplineSet
Validated: 1
EndChar

StartChar: braceright
Encoding: 125 125 188
Width: 350
Flags: HW
HStem: 0 100<63 137> 300 100<213 287> 600 100<63 137>
VStem: 63 112<0 100 600 700> 137 75<100 300 400 600> 175 112<300 400>
CounterMasks: 1 e0
LayerCount: 2
Back
Fore
SplineSet
63 700 m 29xf0
 175 700 l 25
 175 600 l 25xf0
 213 600 l 25
 213 400 l 25xe8
 287 400 l 25
 287 300 l 25xe4
 213 300 l 25
 213 100 l 25xe8
 175 100 l 25
 175 0 l 25
 63 0 l 25
 63 100 l 25xf0
 137 100 l 25
 137 300 l 25xe8
 175 300 l 25
 175 400 l 25xe4
 137 400 l 25
 137 600 l 25xe8
 63 600 l 25
 63 700 l 29xf0
EndSplineSet
Validated: 1
EndChar

StartChar: uni0451
Encoding: 1105 1105 189
Width: 350
Flags: HW
HStem: 0 100<81 306> 200 100<81 269> 400 100<81 269> 600 100<44 119 231 306>
VStem: 6 75<100 200 300 400> 44 75<600 700> 231 75<600 700> 269 75<300 400>
LayerCount: 2
Back
Fore
SplineSet
231 700 m 25xf2
 306 700 l 25
 306 600 l 25
 231 600 l 25
 231 700 l 25xf2
44 700 m 25xf4
 119 700 l 25
 119 600 l 25
 44 600 l 25
 44 700 l 25xf4
81 400 m 1xf9
 81 300 l 1
 269 300 l 1
 269 400 l 1
 81 400 l 1xf9
44 400 m 1xf4
 45 500 l 1
 305 500 l 1
 306 400 l 25xf6
 344 400 l 25
 344 200 l 1
 81 200 l 1
 81 100 l 1xf9
 306 100 l 1
 306 0 l 1
 44 0 l 1
 44 100 l 1xf6
 6 100 l 1
 6 400 l 5xf8
 44 400 l 1xf4
EndSplineSet
Validated: 1
EndChar

StartChar: underscore
Encoding: 95 95 190
Width: 350
Flags: HW
HStem: -100 100<-13 363>
LayerCount: 2
Back
Fore
SplineSet
-13 -100 m 29
 -13 0 l 1
 363 0 l 25
 363 -100 l 1
 -13 -100 l 29
EndSplineSet
Validated: 1
EndChar

StartChar: asciicircum
Encoding: 94 94 191
Width: 350
Flags: HW
HStem: 400 100<44 81 269 306> 600 100<156 194>
VStem: 44 75<400 500> 81 75<500 600> 194 75<500 600> 231 75<400 500>
LayerCount: 2
Back
Fore
SplineSet
44 400 m 29xe0
 44 500 l 25xe0
 81 500 l 25
 81 600 l 25xd0
 119 600 l 25
 119 700 l 25
 231 700 l 25
 231 600 l 25xe4
 269 600 l 25
 269 500 l 25xc8
 306 500 l 25
 306 400 l 25
 231 400 l 25
 231 500 l 25xc4
 194 500 l 25
 194 600 l 25
 156 600 l 25
 156 500 l 25xd8
 119 500 l 25
 119 400 l 25
 44 400 l 29xe0
EndSplineSet
Validated: 1
EndChar

StartChar: grave
Encoding: 96 96 192
Width: 350
Flags: HW
HStem: 400 100<213 250> 600 100<100 137>
VStem: 100 75<600 700> 137 75<500 600> 175 75<400 500>
LayerCount: 2
Back
Fore
SplineSet
100 700 m 29xe0
 175 700 l 25
 175 600 l 25xe0
 213 600 l 25
 213 500 l 25xd0
 250 500 l 25
 250 400 l 25
 175 400 l 25
 175 500 l 25xc8
 137 500 l 25
 137 600 l 25xd0
 100 600 l 25
 100 700 l 29xe0
EndSplineSet
Validated: 1
EndChar

StartChar: bracketleft
Encoding: 91 91 193
Width: 350
Flags: HW
HStem: 0 100<175 250> 600 100<175 250>
VStem: 100 150<0 100 600 700> 100 75<100 600>
LayerCount: 2
Back
Fore
SplineSet
250 600 m 29xe0
 175 600 l 25
 175 100 l 25xd0
 250 100 l 25
 250 0 l 25
 100 0 l 25
 100 700 l 25
 250 700 l 25
 250 600 l 29xe0
EndSplineSet
Validated: 1
EndChar

StartChar: bracketright
Encoding: 93 93 194
Width: 350
Flags: HW
HStem: 0 100<100 175> 600 100<100 175>
VStem: 100 150<0 100 600 700> 175 75<100 600>
LayerCount: 2
Back
Fore
SplineSet
100 700 m 29xe0
 249 700 l 1
 250 0 l 25
 100 0 l 25
 100 100 l 25xe0
 175 100 l 25
 175 600 l 25xd0
 100 600 l 1
 100 700 l 29xe0
EndSplineSet
Validated: 1
EndChar

StartChar: backslash
Encoding: 92 92 195
Width: 350
Flags: HW
HStem: 0 100<287 325> 600 100<25 63>
VStem: 25 75<600 700> 63 75<500 600> 100 75<400 500> 137 75<300 400> 175 75<200 300> 213 75<100 200> 250 75<0 100>
LayerCount: 2
Back
Fore
SplineSet
25 600 m 29xe0
 25 700 l 25
 100 700 l 25
 100 600 l 25xe0
 137 600 l 25
 137 500 l 25xd0
 175 500 l 25
 175 400 l 25xc8
 213 400 l 25
 213 300 l 25xc4
 250 300 l 25
 250 200 l 25xc2
 287 200 l 25
 287 100 l 25xc1
 325 100 l 25
 325 0 l 25
 250 0 l 25
 250 100 l 25xc080
 213 100 l 25
 213 200 l 25xc1
 175 200 l 25
 175 300 l 25xc2
 137 300 l 25
 137 400 l 25xc4
 100 400 l 25
 100 500 l 25xc8
 63 500 l 25
 63 600 l 25xd0
 25 600 l 29xe0
EndSplineSet
Validated: 1
EndChar

StartChar: Odieresis
Encoding: 214 214 196
Width: 350
Flags: HMW
LayerCount: 2
Back
Fore
SplineSet
100 500 m 29
 100 400 l 25
 63 400 l 25
 63 200 l 25
 100 200 l 25
 100 100 l 25
 250 100 l 25
 250 200 l 25
 287 200 l 25
 287 400 l 25
 250 400 l 25
 250 500 l 25
 100 500 l 29
63 600 m 25
 287 600 l 25
 287 500 l 25
 325 500 l 25
 325 400 l 25
 363 400 l 25
 363 200 l 25
 325 200 l 25
 325 100 l 25
 287 100 l 25
 287 0 l 25
 63 0 l 25
 63 100 l 25
 25 100 l 25
 25 200 l 25
 -13 200 l 25
 -13 400 l 25
 25 400 l 25
 25 500 l 25
 63 500 l 25
 63 600 l 25
213 700 m 25
 213 800 l 25
 287 800 l 25
 287 700 l 25
 213 700 l 25
63 700 m 25
 63 800 l 25
 137 800 l 25
 137 700 l 25
 63 700 l 25
EndSplineSet
Validated: 1
EndChar

StartChar: acute
Encoding: 180 180 197
Width: 350
Flags: HW
HStem: 400 100<100 137> 600 100<213 250>
VStem: 100 75<400 500> 137 75<500 600> 175 75<600 700>
LayerCount: 2
Back
Fore
SplineSet
175 600 m 29xc8
 175 700 l 25
 250 700 l 25
 250 600 l 25xc8
 213 600 l 25
 213 500 l 25xd0
 175 500 l 25
 175 400 l 25
 100 400 l 25
 100 500 l 25xe0
 137 500 l 25
 137 600 l 25xd0
 175 600 l 29xc8
EndSplineSet
Validated: 1
EndChar

StartChar: plusminus
Encoding: 177 177 198
Width: 350
Flags: HW
HStem: 100 100<25 325> 451 99<25 137 213 325> 680 20G<137 213>
VStem: 137 75<300 450 550 700>
LayerCount: 2
Back
Fore
SplineSet
25 200 m 29
 325 200 l 25
 325 101 l 25
 25 100 l 25
 25 200 l 29
25 550 m 25
 137 550 l 25
 137 700 l 25
 213 700 l 25
 213 550 l 25
 325 551 l 25
 325 450 l 25
 213 450 l 25
 213 300 l 25
 137 300 l 25
 137 451 l 25
 25 451 l 25
 25 550 l 25
EndSplineSet
Validated: 1
EndChar

StartChar: uni20BD
Encoding: 8381 8381 199
Width: 350
Flags: HW
HStem: 0 21G<44 119> 150 100<-31 44 119 269> 300 100<-31 44 119 306> 600 100<119 306>
VStem: 44 75<0 150 250 300 400 600> 306 75<400 600>
LayerCount: 2
Back
Fore
SplineSet
119 400 m 25
 306 400 l 25
 306 600 l 25
 119 600 l 25
 119 400 l 25
44 700 m 25
 344 700 l 25
 344 650 l 25
 381 650 l 25
 381 400 l 25
 344 400 l 25
 344 300 l 25
 119 300 l 25
 119 250 l 1
 269 250 l 5
 269 150 l 1
 119 150 l 1
 119 0 l 25
 44 0 l 25
 44 150 l 25
 -31 150 l 25
 -31 250 l 25
 44 250 l 25
 44 300 l 25
 -31 300 l 25
 -31 400 l 25
 44 400 l 25
 44 700 l 25
EndSplineSet
Validated: 1
EndChar

StartChar: Udieresis
Encoding: 220 220 200
Width: 350
Flags: HW
HStem: 0 100<81 269> 700 100<44 119 231 306>
VStem: 6 75<100 600> 44 75<700 800> 231 75<700 800> 269 75<100 600>
LayerCount: 2
Back
Fore
SplineSet
231 800 m 29xc8
 306 800 l 25
 306 700 l 25
 231 700 l 25
 231 800 l 29xc8
44 700 m 25xd0
 44 800 l 25
 119 800 l 25
 119 700 l 25
 44 700 l 25xd0
6 600 m 1xe0
 81 600 l 1
 81 100 l 1
 269 100 l 1
 269 600 l 1
 344 600 l 1
 344 100 l 1xe4
 306 100 l 25
 306 0 l 25
 44 0 l 25
 44 100 l 25xd8
 6 100 l 1
 6 600 l 1xe0
EndSplineSet
Validated: 1
EndChar

StartChar: Adieresis
Encoding: 196 196 201
Width: 350
Flags: HW
HStem: 0 21G<-13 63 287 363> 200 100<63 287> 500 100<100 250> 700 100<63 137 213 287>
VStem: -13 75<0 200 300 400> 25 75<400 500> 63 75<700 800> 213 75<700 800> 250 75<400 500> 287 75<0 200 300 400>
LayerCount: 2
Back
Fore
SplineSet
213 700 m 25xf1
 213 800 l 25
 287 800 l 25
 287 700 l 25
 213 700 l 25xf1
63 700 m 25xf2
 63 800 l 25
 137 800 l 25
 137 700 l 25
 63 700 l 25xf2
63 300 m 25xf8
 287 300 l 25
 287 400 l 25xf840
 250 400 l 1
 250 500 l 25
 100 500 l 1
 100 400 l 29xf480
 63 400 l 1
 63 300 l 25xf8
-13 0 m 25
 -13 400 l 1xf840
 25 400 l 25
 25 500 l 25xf4
 63 500 l 25
 63 600 l 25
 287 600 l 25
 287 500 l 25xf240
 325 500 l 25
 325 400 l 25xf080
 363 400 l 25
 363 0 l 25
 287 0 l 25
 287 200 l 25
 63 200 l 25
 63 0 l 1
 -13 0 l 25
EndSplineSet
Validated: 1
EndChar

StartChar: adieresis
Encoding: 228 228 202
Width: 350
Flags: HW
HStem: 0 100<63 250 325 362> 100 100<-13 25> 200 100<63 250> 400 100<25 250> 600 100<63 137 213 287>
VStem: -13 75<100 200> 63 75<600 700> 213 75<600 700> 250 75<100 200 300 400>
LayerCount: 2
Back
Fore
SplineSet
213 600 m 29x19
 213 700 l 29
 287 700 l 29
 287 600 l 29
 213 600 l 29x19
63 600 m 29x1a
 63 700 l 29
 137 700 l 29
 137 600 l 29
 63 600 l 29x1a
63 200 m 25xbc80
 63 100 l 25
 250 100 l 25
 250 200 l 25
 63 200 l 25xbc80
25 500 m 25
 287 500 l 25
 287 400 l 25x39
 325 400 l 25
 325 100 l 25
 362 100 l 25
 363 0 l 25
 25 0 l 25xb880
 25 100 l 25
 -13 100 l 25
 -13 200 l 25
 25 200 l 25x5c80
 25 300 l 25
 250 300 l 25
 250 400 l 25
 25 400 l 25
 25 500 l 25
EndSplineSet
Validated: 1
EndChar

StartChar: odieresis
Encoding: 246 246 203
Width: 350
Flags: HW
HStem: 0 100<81 269> 400 100<81 269> 600 100<44 119 231 306>
VStem: 6 75<100 400> 44 75<600 700> 231 75<600 700> 269 75<100 400>
LayerCount: 2
Back
Fore
SplineSet
231 600 m 29xe4
 231 700 l 29
 306 700 l 29
 306 600 l 29
 231 600 l 29xe4
44 600 m 25xe8
 44 700 l 25
 119 700 l 25
 119 600 l 25
 44 600 l 25xe8
81 400 m 25xf2
 81 100 l 25
 269 100 l 25
 269 400 l 25
 81 400 l 25xf2
44 500 m 25xe8
 306 500 l 25
 306 400 l 25xec
 344 400 l 25
 344 100 l 25xe2
 306 100 l 25
 306 0 l 25
 44 0 l 25
 44 100 l 25xec
 6 100 l 25
 6 400 l 25xf0
 44 400 l 25
 44 500 l 25xe8
EndSplineSet
Validated: 1
EndChar

StartChar: germandbls
Encoding: 223 223 204
Width: 350
Flags: HW
HStem: 0 100<119 269> 300 100<156 231> 600 100<119 231>
VStem: 6 75<0 500> 44 75<500 600> 156 112<300 400> 231 75<400 600> 269 75<100 300>
CounterMasks: 1 e0
LayerCount: 2
Back
Fore
SplineSet
81 600 m 25xf0
 81 700 l 1
 269 700 l 25
 269 600 l 25xf1
 306 600 l 25
 306 400 l 25xe2
 269 400 l 25
 269 300 l 25xe4
 344 300 l 25
 344 100 l 25xe1
 306 100 l 25
 306 0 l 25xe2
 119 0 l 25
 119 100 l 25
 269 100 l 25xe9
 269 300 l 25
 156 300 l 25
 156 400 l 25xe4
 231 400 l 25
 231 600 l 25
 119 600 l 25
 119 500 l 25xea
 81 500 l 25
 81 0 l 25
 6 0 l 25
 6 500 l 25xf0
 44 500 l 25
 44 600 l 1xe8
 81 600 l 25xf0
EndSplineSet
Validated: 5
EndChar

StartChar: uniFFFD
Encoding: 65533 65533 205
Width: 350
Flags: HW
HStem: -200 21G<100 250> 100 100<137 213> 480 20G<137 213> 600 200<100 250>
VStem: -13 75<400 500> 25 112<0 100> 25 75<500 600> 63 225<-100 0 600 700> 100 150<-200 -100 700 800> 137 75<400 500> 213 112<0 100> 250 75<500 600> 287 112<300 400> 287 75<400 500>
LayerCount: 2
Back
Fore
SplineSet
137 200 m 29xf040
 250 200 l 25
 250 300 l 25xf050
 287 300 l 25xf008
 287 500 l 25xf004
 250 500 l 25
 250 600 l 25
 100 600 l 25
 100 500 l 25xf210
 63 500 l 25
 63 400 l 25
 137 400 l 25
 137 500 l 25
 213 500 l 25xf840
 213 300 l 25xf020
 137 300 l 25
 137 200 l 29xf040
137 0 m 25xf420
 213 0 l 25
 213 100 l 25
 137 100 l 25
 137 0 l 25xf420
-50 200 m 25
 -50 400 l 25
 -13 400 l 25
 -13 500 l 25xf8
 25 500 l 25
 25 600 l 25xf2
 63 600 l 25
 63 700 l 25xf1
 100 700 l 25
 100 800 l 25
 250 800 l 25
 250 700 l 25xf080
 287 700 l 25
 287 600 l 25xf1
 325 600 l 25
 325 500 l 25xf010
 363 500 l 25
 363 400 l 25xf004
 400 400 l 25
 400 200 l 25xf008
 363 200 l 25
 363 100 l 25xf004
 325 100 l 25
 325 0 l 25xf020
 287 0 l 25
 287 -100 l 25xf1
 250 -100 l 25
 250 -200 l 25
 100 -200 l 25
 100 -100 l 25xf080
 63 -100 l 25
 63 0 l 25xf1
 25 0 l 25
 25 100 l 25xf4
 -13 100 l 25
 -13 200 l 25xf8
 -50 200 l 25
EndSplineSet
Validated: 1
EndChar

StartChar: Oslash
Encoding: 216 216 206
Width: 350
Flags: HW
HStem: 0 100<100 250> 600 100<100 250>
VStem: -13 75<200 500> 25 75<100 200 500 600> 63 225<0 100 600 700> 250 75<100 200 500 600> 287 75<200 500>
LayerCount: 2
Back
Fore
SplineSet
250 100 m 29xd4
 250 200 l 25xd4
 287 200 l 25
 287 500 l 25xc2
 250 500 l 25
 250 600 l 25
 100 600 l 25
 100 500 l 25xd4
 63 500 l 25
 63 200 l 25xe0
 100 200 l 25
 100 100 l 25
 250 100 l 29xd4
287 0 m 25xc8
 63 0 l 25
 63 100 l 25xc8
 25 100 l 25
 25 200 l 25xd0
 -13 200 l 25
 -13 500 l 25xe0
 25 500 l 25
 25 600 l 25xd0
 63 600 l 25
 63 700 l 25
 287 700 l 25
 287 600 l 25xc8
 325 600 l 25
 325 500 l 25xc4
 363 500 l 25
 363 200 l 25xc2
 325 200 l 25
 325 100 l 25xc4
 287 100 l 25
 287 0 l 25xc8
EndSplineSet
Validated: 1
EndChar

StartChar: multiply
Encoding: 215 215 207
Width: 350
Flags: HMW
LayerCount: 2
Back
Fore
SplineSet
63 200 m 29
 63 300 l 25
 137 300 l 25
 137 400 l 25
 63 400 l 25
 63 500 l 25
 137 500 l 25
 137 400 l 25
 213 400 l 25
 213 500 l 25
 287 500 l 25
 287 400 l 25
 213 400 l 25
 213 300 l 25
 287 300 l 25
 287 200 l 25
 213 200 l 25
 213 300 l 25
 137 300 l 25
 137 200 l 25
 63 200 l 29
EndSplineSet
Validated: 5
EndChar

StartChar: divide
Encoding: 247 247 208
Width: 350
Flags: HMW
LayerCount: 2
Back
Fore
SplineSet
137 100 m 29
 137 200 l 25
 213 200 l 25
 213 100 l 25
 137 100 l 29
25 300 m 25
 25 400 l 25
 325 400 l 25
 325 300 l 25
 25 300 l 25
137 500 m 25
 137 600 l 25
 213 600 l 25
 213 500 l 25
 137 500 l 25
EndSplineSet
Validated: 1
EndChar

StartChar: brokenbar
Encoding: 166 166 209
Width: 350
Flags: HW
HStem: 0 21G<137 213> 680 20G<137 213>
VStem: 137 75<0 700>
LayerCount: 2
Back
Fore
SplineSet
137 700 m 29
 213 700 l 25
 213 0 l 25
 137 0 l 25
 137 700 l 29
EndSplineSet
Validated: 1
EndChar

StartChar: degree
Encoding: 176 176 210
Width: 350
Flags: HMW
LayerCount: 2
Back
Fore
SplineSet
137 600 m 29
 137 500 l 25
 213 500 l 25
 213 600 l 25
 137 600 l 29
100 600 m 25
 100 700 l 25
 250 700 l 25
 250 600 l 25
 287 600 l 25
 287 500 l 25
 250 500 l 25
 250 400 l 25
 100 400 l 25
 100 500 l 25
 63 500 l 25
 63 600 l 25
 100 600 l 25
EndSplineSet
Validated: 1
EndChar

StartChar: arrowright
Encoding: 8594 8594 211
Width: 350
Flags: HW
HStem: 100 100<156 194> 300 100<-31 194 306 381> 500 100<156 194>
VStem: 156 75<100 200 500 600> 194 112<200 300 400 500>
CounterMasks: 1 e0
LayerCount: 2
Back
Fore
SplineSet
156 500 m 29xf0
 156 600 l 25
 231 600 l 25
 231 500 l 25xf0
 306 500 l 25
 306 400 l 25
 381 400 l 25
 381 300 l 25
 306 300 l 25
 306 200 l 25xe8
 231 200 l 25
 231 100 l 25
 156 100 l 25
 156 200 l 25xf0
 194 200 l 25
 194 300 l 25
 -31 300 l 25
 -31 400 l 25
 194 400 l 25
 194 500 l 25xe8
 156 500 l 29xf0
EndSplineSet
Validated: 1
EndChar

StartChar: arrowleft
Encoding: 8592 8592 212
Width: 350
Flags: HW
HStem: 100 100<175 213> 300 100<-13 63 175 363> 500 100<175 213>
VStem: 63 112<200 300 400 500> 137 75<100 200 500 600>
CounterMasks: 1 e0
LayerCount: 2
Back
Fore
SplineSet
137 500 m 29xe8
 137 600 l 25
 213 600 l 25
 213 500 l 25xe8
 175 500 l 25
 175 400 l 25
 363 400 l 25
 363 300 l 25
 175 300 l 25
 175 200 l 25xf0
 213 200 l 25
 213 100 l 25
 137 100 l 25
 137 200 l 25xe8
 63 200 l 25
 63 300 l 25
 -13 300 l 25
 -13 400 l 25
 63 400 l 25
 63 500 l 25xf0
 137 500 l 29xe8
EndSplineSet
Validated: 1
EndChar

StartChar: arrowup
Encoding: 8593 8593 213
Width: 350
Flags: HW
HStem: 0 21G<137 213> 300 100<25 63 287 325> 680 20G<137 213>
VStem: 25 75<300 400> 137 75<0 400 600 700> 250 75<300 400>
CounterMasks: 1 1c
LayerCount: 2
Back
Fore
SplineSet
100 300 m 29
 25 300 l 25
 25 400 l 25
 63 400 l 25
 63 500 l 25
 100 500 l 25
 100 600 l 25
 137 600 l 25
 137 700 l 25
 213 700 l 25
 213 600 l 25
 250 600 l 25
 250 500 l 25
 287 500 l 25
 287 400 l 25
 325 400 l 25
 325 300 l 25
 250 300 l 25
 250 400 l 25
 213 400 l 25
 213 0 l 25
 137 0 l 25
 137 400 l 25
 100 400 l 25
 100 300 l 29
EndSplineSet
Validated: 1
EndChar

StartChar: arrowdown
Encoding: 8595 8595 214
Width: 350
Flags: HW
HStem: 0 21G<137 213> 300 100<25 63 287 325> 680 20G<137 213>
VStem: 25 75<300 400> 137 75<0 100 300 700> 250 75<300 400>
CounterMasks: 1 1c
LayerCount: 2
Back
Fore
SplineSet
137 300 m 29
 137 700 l 1
 213 700 l 25
 213 300 l 25
 250 300 l 25
 250 400 l 25
 325 400 l 25
 325 300 l 25
 287 300 l 25
 287 200 l 25
 250 200 l 25
 250 100 l 25
 213 100 l 25
 213 0 l 25
 137 0 l 25
 137 100 l 25
 100 100 l 25
 100 200 l 25
 63 200 l 25
 63 300 l 25
 25 300 l 25
 25 400 l 25
 100 400 l 25
 100 300 l 1
 137 300 l 29
EndSplineSet
Validated: 1
EndChar

StartChar: arrowboth
Encoding: 8596 8596 215
Width: 350
Flags: HW
HStem: 100 100<25 100 250 325> 200 300<-50 25 325 400> 300 100<-125 -50 25 325 400 475> 500 100<25 100 250 325>
VStem: -50 75<200 300 400 500> 25 75<100 200 500 600> 250 75<100 200 500 600> 325 75<200 300 400 500>
LayerCount: 2
Back
Fore
SplineSet
-125 300 m 29x28
 -125 400 l 25
 -50 400 l 25x28
 -50 500 l 25
 25 500 l 25x48
 25 600 l 25
 100 600 l 25
 100 500 l 25x14
 25 500 l 25x48
 25 400 l 25
 325 400 l 25x29
 325 500 l 25x42
 250 500 l 25
 250 600 l 25
 325 600 l 25x12
 325 500 l 25x42
 400 500 l 25x41
 400 400 l 25
 475 400 l 25
 475 300 l 25
 400 300 l 25x21
 400 200 l 25x41
 325 200 l 25
 325 100 l 25
 250 100 l 25
 250 200 l 25
 325 200 l 25x82
 325 300 l 25
 25 300 l 25
 25 200 l 25xa9
 100 200 l 25
 100 100 l 25
 25 100 l 25xa4
 25 200 l 25xa8
 -50 200 l 25x48
 -50 300 l 25
 -125 300 l 29x28
EndSplineSet
Validated: 5
EndChar

StartChar: arrowupdn
Encoding: 8597 8597 216
Width: 350
Flags: HW
HStem: 0 21G<100 250> 200 100<25 63 287 325> 400 100<25 63 287 325> 680 20G<100 250>
VStem: 25 75<200 300 400 500> 63 225<100 200 500 600> 100 150<0 100 600 700> 250 75<200 300 400 500>
LayerCount: 2
Back
Fore
SplineSet
25 200 m 29xf8
 25 300 l 25
 100 300 l 25
 100 200 l 25
 137 200 l 25
 137 500 l 25
 100 500 l 25
 100 400 l 25
 25 400 l 25
 25 500 l 25xf8
 63 500 l 25
 63 600 l 25xf4
 100 600 l 25
 100 700 l 25
 250 700 l 25
 250 600 l 25xf2
 287 600 l 25
 287 500 l 25xf4
 325 500 l 25
 325 400 l 25
 250 400 l 25
 250 500 l 25
 213 500 l 25
 213 200 l 25
 250 200 l 25
 250 300 l 25
 325 300 l 25
 325 200 l 25xf1
 287 200 l 25
 287 100 l 25xf4
 250 100 l 25
 250 0 l 25
 100 0 l 25
 100 100 l 25xf2
 63 100 l 25
 63 200 l 25xf4
 25 200 l 29xf8
EndSplineSet
Validated: 1
EndChar

StartChar: uni2600
Encoding: 9728 9728 217
Width: 350
Flags: HW
HStem: -100 100<137 213> 0 100<-50 25 325 400> 200 300<63 137 213 287> 300 100<-200 -87 -13 63 287 363 437 550> 600 100<-87 -13 363 437> 700 100<137 213>
VStem: -200 112<300 400> -87 75<600 700> -50 75<0 100> 63 225<200 300 400 500> 137 75<-100 0 100 200 500 600 700 800> 325 75<0 100> 363 75<600 700> 437 112<300 400>
LayerCount: 2
Back
Fore
SplineSet
363 600 m 25x0808
 363 700 l 25
 437 700 l 25
 437 600 l 25
 363 600 l 25x0808
137 700 m 25x0420
 137 800 l 25
 213 800 l 25
 213 700 l 25
 137 700 l 25x0420
-87 600 m 25x09
 -87 700 l 25
 -13 700 l 25
 -13 600 l 25
 -87 600 l 25x09
437 300 m 1x1004
 437 400 l 25
 550 400 l 1
 550 300 l 25
 437 300 l 1x1004
-200 300 m 1x12
 -200 400 l 25
 -87 400 l 1
 -87 300 l 25
 -200 300 l 1x12
325 0 m 25x4010
 325 100 l 25
 400 100 l 25
 400 0 l 25
 325 0 l 25x4010
137 -100 m 25x8020
 137 0 l 25
 213 0 l 25
 213 -100 l 25
 137 -100 l 25x8020
-50 0 m 25x4080
 -50 100 l 25
 25 100 l 25
 25 0 l 25
 -50 0 l 25x4080
-13 300 m 25x1140
 -13 400 l 1
 63 400 l 25x1140
 63 500 l 1x2140
 137 500 l 1
 137 600 l 1
 213 600 l 1
 213 500 l 25x2820
 287 500 l 25x2840
 287 400 l 25
 363 400 l 25
 363 300 l 25
 287 300 l 25x1048
 287 200 l 25x2048
 213 200 l 25
 213 100 l 25
 137 100 l 25
 137 200 l 25x6020
 63 200 l 25x6040
 63 300 l 1
 -13 300 l 25x1140
EndSplineSet
Validated: 1
EndChar

StartChar: uni2601
Encoding: 9729 9729 218
Width: 350
Flags: HW
HStem: 100 300<25 100 213 325> 200 100<-50 25 363 400> 480 20G<100 213>
VStem: 100 112<400 500>
LayerCount: 2
Back
Fore
SplineSet
-50 200 m 29x70
 -50 300 l 25
 25 300 l 25x70
 25 400 l 25
 100 400 l 25
 100 500 l 25
 213 500 l 25
 213 400 l 25
 325 400 l 25xb0
 325 300 l 25
 400 300 l 25
 400 200 l 25
 363 200 l 25x70
 363 100 l 25
 25 100 l 25xb0
 25 200 l 25
 -50 200 l 29x70
EndSplineSet
Validated: 1
EndChar

StartChar: uni2602
Encoding: 9730 9730 219
Width: 350
Flags: HW
HStem: -100 100<63 137> 400 200<25 100 250 325> 400 100<-50 25 325 400> 680 20G<100 250>
VStem: 63 112<-100 0> 137 75<0 400>
LayerCount: 2
Back
Fore
SplineSet
-50 400 m 29xb4
 -50 500 l 25
 25 500 l 25xb4
 25 600 l 25
 100 600 l 25
 100 700 l 25
 250 700 l 25
 250 600 l 25
 325 600 l 25xd4
 325 500 l 25
 400 500 l 25
 400 400 l 25
 213 400 l 25
 213 0 l 25xb4
 175 0 l 25
 175 -100 l 25
 63 -100 l 25
 63 0 l 25xb8
 137 0 l 25
 137 400 l 25
 -50 400 l 29xb4
EndSplineSet
Validated: 1
EndChar

StartChar: uni2603
Encoding: 9731 9731 220
Width: 350
Flags: HW
HStem: -100 100<-13 63 325 400> -100 50<137 175 213 250> 0 100<100 287> 50 50<-50 -13 363 400> 100 100<25 63 325 363> 150 50<-50 -13> 200 100<137 175 213 250> 250 50<-13 25 363 400> 350 50<-50 -13 363 400> 400 100<25 63 137 175 213 250 325 363> 500 100<-13 25 63 100 287 325 363 400> 600 200<137 250> 650 50<-13 25 325 363> 750 50<-50 -13 63 100 287 325 363 400>
VStem: -50 38<50 100 150 200 350 400 750 800> -13 38<250 300 500 600 650 700> 25 38<400 500> 63 75<300 400 500 600> 63 38<750 800> 100 75<400 500> 137 38<-100 -50> 213 75<400 500> 213 38<-100 -50> 250 75<300 400 500 600> 287 38<750 800> 325 38<400 500 650 700> 363 38<50 100 250 300 350 400 500 600 750 800>
LayerCount: 2
Back
Fore
SplineSet
137 500 m 29x225041
 175 500 l 29
 175 400 l 29x225010
 137 400 l 29
 137 300 l 29x225040
 175 300 l 29
 175 200 l 29x225008
 100 200 l 29
 100 100 l 29
 287 100 l 29
 287 200 l 29
 213 200 l 29
 213 300 l 29x22501280
 250 300 l 29
 250 400 l 29x225001
 213 400 l 29
 213 500 l 29x225004
 250 500 l 29
 250 600 l 29
 137 600 l 29
 137 500 l 29x225041
-13 -100 m 29x800110a0
 -13 0 l 29
 63 0 l 29
 63 100 l 29x880120
 25 100 l 29
 25 200 l 29x880080
 63 200 l 29x880020
 63 400 l 29
 100 400 l 29x884090
 100 500 l 29x002090
 63 500 l 29x004090
 63 600 l 29x002040
 100 600 l 29
 100 700 l 29x002810
 137 700 l 29x002808
 137 800 l 29
 250 800 l 29x001009
 250 700 l 29x000809
 287 700 l 29
 287 600 l 29x00280080
 325 600 l 29x002801
 325 500 l 29x004001
 287 500 l 29x002004
 287 400 l 29x004004
 325 400 l 29x004001
 325 200 l 29x08400040
 363 200 l 29x08400020
 363 100 l 29x10000020
 325 100 l 29
 325 0 l 29x88000040
 400 0 l 29
 400 -100 l 29x88000020
 287 -100 l 29
 287 0 l 29
 100 0 l 29
 100 -100 l 29x600010a0
 -13 -100 l 29x800110a0
25 500 m 29x0041
 63 500 l 29
 63 400 l 29
 25 400 l 29x004080
 25 500 l 29x0041
-13 600 m 29x0021
 25 600 l 29x0021
 25 500 l 29x0041
 -13 500 l 29
 -13 600 l 29x0021
-50 50 m 29x1002
 -50 100 l 5
 -13 100 l 29
 -13 50 l 5
 -50 50 l 29x1002
-50 150 m 29x0402
 -50 200 l 5
 -13 200 l 29
 -13 150 l 5
 -50 150 l 29x0402
-13 250 m 29x0101
 -13 300 l 5
 25 300 l 29
 25 250 l 5
 -13 250 l 29x0101
-50 350 m 29x0082
 -50 400 l 5
 -13 400 l 29
 -13 350 l 5
 -50 350 l 29x0082
137 -100 m 29x400008
 137 -50 l 29
 175 -50 l 29
 175 -100 l 29
 137 -100 l 29x400008
213 -100 m 29x400002
 213 -50 l 29
 250 -50 l 29
 250 -100 l 29
 213 -100 l 29x400002
363 50 m 29x10000020
 363 100 l 29
 400 100 l 29
 400 50 l 29
 363 50 l 29x10000020
363 250 m 29x01000020
 363 300 l 29
 400 300 l 29
 400 250 l 29
 363 250 l 29x01000020
363 350 m 29x00800020
 363 400 l 29x00800040
 400 400 l 29
 400 350 l 29
 363 350 l 29x00800020
325 400 m 29x004001
 325 500 l 29x004001
 363 500 l 29x00400040
 363 400 l 29x00800040
 325 400 l 29x004001
363 500 m 29x00400040
 363 600 l 29
 400 600 l 29
 400 500 l 29x00200020
 363 500 l 29x00400040
325 650 m 29x00080040
 325 700 l 29
 363 700 l 29
 363 650 l 29
 325 650 l 29x00080040
363 750 m 29x00040020
 363 800 l 29
 400 800 l 29
 400 750 l 29
 363 750 l 29x00040020
287 750 m 29x00040080
 287 800 l 29
 325 800 l 29
 325 750 l 29
 287 750 l 29x00040080
63 750 m 29x000420
 63 800 l 5
 100 800 l 29
 100 750 l 5
 63 750 l 29x000420
-50 750 m 29x0006
 -50 800 l 5
 -13 800 l 29
 -13 750 l 5
 -50 750 l 29x0006
-13 650 m 29x0009
 -13 700 l 5
 25 700 l 29
 25 650 l 5
 -13 650 l 29x0009
EndSplineSet
Validated: 5
EndChar

StartChar: uni26C4
Encoding: 9924 9924 221
Width: 350
Flags: HW
HStem: -100 100<-31 44 306 381> 100 100<6 44 306 344> 200 100<119 156 194 231> 400 100<6 44 119 156 194 231 306 344> 500 100<-31 6 44 81 269 306 344 381> 600 200<119 231>
VStem: -31 38<500 600> 6 75<100 200> 6 38<400 500> 44 75<300 400 500 600> 81 75<400 500> 119 112<700 800> 194 75<400 500> 231 75<300 400 500 600> 269 75<100 200> 306 38<400 500> 344 38<500 600>
LayerCount: 2
Back
Fore
SplineSet
119 500 m 29xb444
 156 500 l 29
 156 400 l 29xb420
 119 400 l 29
 119 300 l 29xb440
 156 300 l 29
 156 200 l 29xb420
 81 200 l 29xb5
 81 100 l 29
 269 100 l 29xc102
 269 200 l 29xa102
 194 200 l 29
 194 300 l 29xa008
 231 300 l 29
 231 400 l 29xb004
 194 400 l 29
 194 500 l 29xb008
 231 500 l 29
 231 600 l 29
 119 600 l 29
 119 500 l 29xb444
-31 -100 m 29xd222
 -31 0 l 29
 44 0 l 29
 44 100 l 29xd240
 6 100 l 29
 6 200 l 29xd1
 44 200 l 29xd040
 44 400 l 29
 81 400 l 29xd0a0
 81 500 l 29x88a0
 44 500 l 29x90a0
 44 600 l 29x8840
 81 600 l 29
 81 700 l 29x8820
 119 700 l 29
 119 800 l 29
 231 800 l 29x8410
 231 700 l 29
 269 700 l 29
 269 600 l 29x8812
 306 600 l 29x8804
 306 500 l 29x9004
 269 500 l 29x8808
 269 400 l 29x9008
 306 400 l 29x9004
 306 200 l 29xd001
 344 200 l 5
 344 100 l 29xd002
 306 100 l 5
 306 0 l 29xd001
 381 0 l 29
 381 -100 l 29xd00080
 269 -100 l 29
 269 0 l 29
 81 0 l 29
 81 -100 l 29
 -31 -100 l 29xd222
6 500 m 29
 44 500 l 29
 44 400 l 29
 6 400 l 29x9080
 6 500 l 29
-31 600 m 29x8a
 6 600 l 29x8a
 6 500 l 29x92
 -31 500 l 29
 -31 600 l 29x8a
306 400 m 29x9004
 306 500 l 29x9004
 344 500 l 29
 344 400 l 29x9001
 306 400 l 29x9004
344 500 m 29x9001
 344 600 l 29
 381 600 l 29
 381 500 l 29x880080
 344 500 l 29x9001
EndSplineSet
Validated: 5
EndChar

StartChar: uni2614
Encoding: 9748 9748 222
Width: 350
Flags: HW
HStem: -100 100<63 137> 0 100<-13 25 325 363> 150 100<-50 -13 363 400> 250 100<25 63 287 325> 400 200<25 100 250 325> 400 100<-50 25 325 400> 600 100<-50 -13 363 400> 700 100<25 63 287 325>
VStem: -50 38<150 250 600 700> -13 38<0 100> 25 38<250 350 700 800> 63 112<-100 0> 137 75<0 400> 287 38<250 350 700 800> 325 38<0 100> 363 38<150 250 600 700>
LayerCount: 2
Back
Fore
SplineSet
63 -100 m 29x8010
 63 0 l 25x8010
 137 0 l 25
 137 400 l 25
 -50 400 l 25
 -50 500 l 25
 25 500 l 25x84a8
 25 600 l 25
 100 600 l 25
 100 700 l 25
 250 700 l 25
 250 600 l 25
 325 600 l 25x09aa
 325 500 l 25x04aa
 400 500 l 25
 400 400 l 25
 213 400 l 25
 213 0 l 25x4409
 175 0 l 25x4410
 175 -100 l 25
 63 -100 l 29x8010
-13 0 m 1x4040
 -13 100 l 1
 25 100 l 1
 25 0 l 1
 -13 0 l 1x4040
325 0 m 1x4002
 325 100 l 1
 363 100 l 1
 363 0 l 1
 325 0 l 1x4002
-50 150 m 1x2080
 -50 250 l 1
 -13 250 l 1
 -13 150 l 1
 -50 150 l 1x2080
25 250 m 1x1020
 25 350 l 1
 63 350 l 1
 63 250 l 1
 25 250 l 1x1020
363 150 m 1x2001
 363 250 l 1
 400 250 l 1
 400 150 l 1
 363 150 l 1x2001
287 250 m 1x1004
 287 350 l 1
 325 350 l 1
 325 250 l 1
 287 250 l 1x1004
363 600 m 1x0201
 363 700 l 1
 400 700 l 1
 400 600 l 1
 363 600 l 1x0201
-50 600 m 1x0280
 -50 700 l 1
 -13 700 l 1
 -13 600 l 1
 -50 600 l 1x0280
287 700 m 1x0104
 287 800 l 1
 325 800 l 1
 325 700 l 1
 287 700 l 1x0104
25 700 m 1x0120
 25 800 l 1
 63 800 l 1
 63 700 l 1
 25 700 l 1x0120
EndSplineSet
Validated: 1
EndChar

StartChar: uni2669
Encoding: 9833 9833 223
Width: 350
Flags: HW
HStem: 0 300<81 231> 100 100<44 81>
VStem: 231 75<300 800>
LayerCount: 2
Back
Fore
SplineSet
81 100 m 29x60
 44 100 l 25
 44 200 l 25
 81 200 l 25x60
 81 300 l 25
 231 300 l 25xa0
 231 800 l 25
 306 800 l 25
 306 100 l 25
 269 100 l 25x60
 269 0 l 25
 81 0 l 25xa0
 81 100 l 29x60
EndSplineSet
Validated: 1
EndChar

StartChar: uni2757
Encoding: 10071 10071 225
Width: 350
Flags: HW
HStem: 0 100<137 213> 680 20G<137 213>
VStem: 137 75<0 100 200 700>
LayerCount: 2
Back
Fore
SplineSet
137 700 m 29
 213 700 l 25
 213 200 l 25
 137 200 l 25
 137 700 l 29
213 0 m 25
 137 0 l 1
 137 100 l 25
 213 100 l 1
 213 0 l 25
EndSplineSet
Validated: 1
EndChar

StartChar: uni2753
Encoding: 10067 10067 226
Width: 350
Flags: HW
HStem: 0 100<156 231> 200 100<156 231> 300 100<231 269> 600 100<81 269>
VStem: 6 75<400 600> 156 75<0 100 200 300> 231 75<300 400> 269 75<400 600>
LayerCount: 2
Back
Fore
SplineSet
156 300 m 1xdc
 231 300 l 1
 231 200 l 1
 156 200 l 1
 156 300 l 1xdc
231 0 m 25
 156 0 l 1
 156 100 l 25
 231 100 l 1
 231 0 l 25
6 600 m 25
 44 600 l 25
 44 700 l 25
 306 700 l 25
 306 600 l 25xba
 344 600 l 25
 344 400 l 25xb9
 305 400 l 25
 306 300 l 25xba
 231 300 l 25xdc
 231 400 l 25xba
 269 400 l 25
 269 600 l 25
 81 600 l 25
 81 400 l 25
 6 400 l 25xb9
 6 600 l 25
EndSplineSet
Validated: 5
EndChar

StartChar: uni2795
Encoding: 10133 10133 227
Width: 350
Flags: HW
HStem: 250 100<25 137 213 325>
VStem: 137 75<50 250 350 550>
LayerCount: 2
Back
Fore
SplineSet
137 550 m 29
 213 550 l 25
 213 350 l 25
 325 350 l 25
 325 250 l 25
 213 250 l 25
 213 50 l 25
 137 50 l 25
 137 250 l 25
 25 250 l 25
 25 350 l 25
 137 350 l 25
 137 550 l 29
EndSplineSet
Validated: 1
EndChar

StartChar: uni2796
Encoding: 10134 10134 228
Width: 350
Flags: HW
HStem: 250 100<25 325>
LayerCount: 2
Back
Fore
SplineSet
25 250 m 29
 25 350 l 25
 325 350 l 25
 325 250 l 25
 25 250 l 29
EndSplineSet
Validated: 1
EndChar

StartChar: uni231A
Encoding: 8986 8986 229
Width: 350
Flags: HW
HStem: -100 200<63 287> 0 100<25 63 287 325> 300 100<213 287> 480 20G<137 213> 600 200<63 287> 600 100<25 63 287 325>
VStem: -87 75<200 500> -50 75<100 200 500 600> 63 225<-100 0 700 800> 137 75<400 500> 325 75<100 200 500 600> 363 75<200 500>
LayerCount: 2
Back
Fore
SplineSet
137 500 m 29x3040
 213 500 l 25
 213 400 l 25x3040
 287 400 l 25
 287 300 l 25x3080
 137 300 l 25
 137 500 l 29x3040
25 600 m 25x7520
 25 500 l 25x7520
 -13 500 l 25
 -13 200 l 25x76
 25 200 l 25
 25 100 l 25
 325 100 l 25
 325 200 l 25x7520
 363 200 l 25
 363 500 l 25x7410
 325 500 l 25
 325 600 l 25
 25 600 l 25x7520
63 700 m 25x7680
 63 800 l 25
 287 800 l 25x3a80
 287 700 l 25
 363 700 l 25
 363 600 l 25x3690
 400 600 l 25
 400 500 l 25x3420
 437 500 l 25
 437 200 l 25x3410
 400 200 l 25
 400 100 l 25x7420
 363 100 l 25
 363 0 l 25
 287 0 l 25x7490
 287 -100 l 25
 63 -100 l 25xb090
 63 0 l 25
 -13 0 l 25
 -13 100 l 25x7290
 -50 100 l 25
 -50 200 l 25x71
 -87 200 l 25
 -87 500 l 25x72
 -50 500 l 25
 -50 600 l 25x75
 -13 600 l 25
 -13 700 l 25
 63 700 l 25x7680
EndSplineSet
Validated: 1
EndChar

StartChar: uni2797
Encoding: 10135 10135 230
Width: 350
Flags: HW
HStem: 100 100<137 213> 300 100<25 325> 500 100<137 213>
VStem: 137 75<100 200 500 600>
CounterMasks: 1 e0
LayerCount: 2
Back
Fore
SplineSet
137 100 m 29
 137 200 l 25
 213 200 l 25
 213 100 l 25
 137 100 l 29
25 300 m 25
 25 400 l 25
 325 400 l 25
 325 300 l 25
 25 300 l 25
137 500 m 25
 137 600 l 25
 213 600 l 25
 213 500 l 25
 137 500 l 25
EndSplineSet
Validated: 1
EndChar

StartChar: uni25B6
Encoding: 9654 9654 231
Width: 350
Flags: HMW
LayerCount: 2
Back
Fore
SplineSet
6 0 m 29
 6 700 l 25
 119 700 l 25
 119 600 l 25
 194 600 l 25
 194 500 l 25
 269 500 l 25
 269 400 l 25
 344 400 l 25
 344 300 l 25
 269 300 l 25
 269 200 l 25
 194 200 l 25
 194 100 l 25
 119 100 l 25
 119 0 l 25
 6 0 l 29
EndSplineSet
Validated: 1
EndChar

StartChar: uni25C0
Encoding: 9664 9664 232
Width: 350
Flags: HMW
LayerCount: 2
Back
Fore
SplineSet
231 0 m 29
 231 100 l 25
 156 100 l 25
 156 200 l 25
 81 200 l 25
 81 300 l 25
 6 300 l 25
 6 400 l 25
 81 400 l 25
 81 500 l 25
 156 500 l 25
 156 600 l 25
 231 600 l 25
 231 700 l 25
 344 700 l 25
 344 0 l 25
 231 0 l 29
EndSplineSet
Validated: 1
EndChar

StartChar: H18543
Encoding: 9642 9642 233
Width: 350
Flags: HMW
LayerCount: 2
Back
Fore
SplineSet
81 100 m 29
 81 400 l 25
 269 400 l 25
 269 100 l 25
 81 100 l 29
EndSplineSet
Validated: 1
EndChar

StartChar: triagup
Encoding: 9650 9650 234
Width: 350
Flags: HMW
LayerCount: 2
Back
Fore
SplineSet
-13 100 m 29
 -13 200 l 29
 25 200 l 29
 25 300 l 29
 63 300 l 29
 63 400 l 29
 100 400 l 29
 100 500 l 29
 137 500 l 29
 137 600 l 29
 213 600 l 29
 213 500 l 29
 250 500 l 29
 250 400 l 29
 287 400 l 29
 287 300 l 29
 325 300 l 29
 325 200 l 29
 363 200 l 29
 363 100 l 29
 -13 100 l 29
EndSplineSet
Validated: 1
EndChar

StartChar: triagdn
Encoding: 9660 9660 235
Width: 350
Flags: HMW
LayerCount: 2
Back
Fore
SplineSet
-13 500 m 29
 -13 600 l 25
 363 600 l 25
 363 500 l 25
 325 500 l 25
 325 400 l 25
 287 400 l 25
 287 300 l 25
 250 300 l 25
 250 200 l 25
 213 200 l 25
 213 100 l 25
 137 100 l 25
 137 200 l 25
 100 200 l 25
 100 300 l 25
 63 300 l 25
 63 400 l 25
 25 400 l 25
 25 500 l 25
 -13 500 l 29
EndSplineSet
Validated: 1
EndChar

StartChar: H18551
Encoding: 9643 9643 236
Width: 350
Flags: HW
HStem: 100 100<119 231> 300 100<119 231>
VStem: 81 38<200 300> 231 38<200 300>
LayerCount: 2
Back
Fore
SplineSet
119 200 m 29
 231 200 l 25
 231 300 l 25
 119 300 l 25
 119 200 l 29
81 100 m 25
 81 400 l 25
 269 400 l 25
 269 100 l 25
 81 100 l 25
EndSplineSet
Validated: 1
EndChar

StartChar: uni231B
Encoding: 8987 8987 237
Width: 350
Flags: HW
HStem: -100 300<-31 6 119 231 344 381> -100 200<44 119 231 306> -100 100<-69 -31 381 419> 200 100<44 81 269 306> 400 100<44 81 269 306> 600 200<44 306> 700 100<-69 -31 381 419>
VStem: -31 75<100 200 500 600> 6 112<200 300> 231 112<200 300> 306 75<100 200 500 600>
LayerCount: 2
Back
Fore
SplineSet
231 100 m 29x4840
 306 100 l 25
 306 200 l 25x5820
 231 200 l 25x8840
 231 100 l 29x4840
119 300 m 25x18c0
 119 200 l 25
 231 200 l 25x88c0
 231 300 l 25
 119 300 l 25x18c0
44 100 m 25x59
 119 100 l 25x5880
 119 200 l 25x8880
 44 200 l 25
 44 100 l 25x59
156 400 m 25
 194 400 l 25
 194 500 l 25
 306 500 l 25
 306 600 l 25
 44 600 l 25
 44 500 l 25x0d20
 156 500 l 25
 156 400 l 25
-69 -100 m 25x2820
 -69 0 l 25
 -31 0 l 25x2920
 -31 200 l 25x8920
 6 200 l 25x8880
 6 300 l 25
 81 300 l 25
 81 400 l 25
 6 400 l 25
 6 500 l 25x1880
 -31 500 l 25
 -31 700 l 25
 -69 700 l 25
 -69 800 l 25
 419 800 l 25
 419 700 l 25
 381 700 l 25
 381 500 l 25x1b20
 344 500 l 25
 344 400 l 25
 269 400 l 25
 269 300 l 25
 344 300 l 25x1a40
 344 200 l 25x8840
 381 200 l 25x8820
 381 0 l 25
 419 0 l 25
 419 -100 l 25
 -69 -100 l 25x2820
EndSplineSet
Validated: 5
EndChar

StartChar: uni23F3
Encoding: 9203 9203 238
Width: 350
Flags: HW
HStem: -100 200<44 306> -100 100<-69 -31 381 419> 200 100<44 81 269 306> 400 100<44 81 269 306> 500 300<-31 6 119 231 344 381> 600 200<44 119 231 306> 700 100<-69 -31 381 419>
VStem: -31 75<100 200 500 600> 6 112<400 500> 231 112<400 500> 306 75<100 200 500 600>
LayerCount: 2
Back
Fore
SplineSet
44 100 m 29xa120
 306 100 l 25
 306 200 l 25
 194 200 l 25
 194 300 l 25
 156 300 l 25
 156 200 l 25
 44 200 l 25
 44 100 l 29xa120
231 500 m 25x2840
 306 500 l 25
 306 600 l 25x3420
 231 600 l 25x3440
 231 500 l 25x2840
119 400 m 25x30c0
 231 400 l 25x30c0
 231 500 l 25
 119 500 l 25x28c0
 119 400 l 25x30c0
44 500 m 25x35
 119 500 l 25x2880
 119 600 l 25x2480
 44 600 l 25
 44 500 l 25x35
-69 -100 m 25x7020
 -69 0 l 25
 -31 0 l 25
 -31 200 l 25x7120
 6 200 l 25
 6 300 l 25
 81 300 l 25
 81 400 l 25
 6 400 l 25x7080
 6 500 l 25x2880
 -31 500 l 25x29
 -31 700 l 25
 -69 700 l 25
 -69 800 l 25
 419 800 l 25
 419 700 l 25
 381 700 l 25x2320
 381 500 l 25x2920
 344 500 l 25x2840
 344 400 l 25
 269 400 l 25
 269 300 l 25
 344 300 l 25
 344 200 l 25x3040
 381 200 l 25
 381 0 l 25
 419 0 l 25
 419 -100 l 25
 -69 -100 l 25x7020
EndSplineSet
Validated: 5
EndChar

StartChar: uni26D4
Encoding: 9940 9940 239
Width: 350
Flags: HW
HStem: -100 400<25 325> 400 400<25 325>
VStem: -125 112<300 400> 363 112<300 400>
LayerCount: 2
Back
Fore
SplineSet
-13 300 m 29
 363 300 l 25
 363 400 l 25
 -13 400 l 25
 -13 300 l 29
25 -100 m 25
 25 0 l 25
 -50 0 l 25
 -50 100 l 25
 -87 100 l 25
 -87 200 l 25
 -125 200 l 25
 -125 500 l 25
 -87 500 l 25
 -87 600 l 25
 -50 600 l 25
 -50 700 l 25
 25 700 l 25
 25 800 l 25
 325 800 l 25
 325 700 l 25
 400 700 l 25
 400 600 l 25
 437 600 l 25
 437 500 l 25
 475 500 l 25
 475 200 l 25
 437 200 l 25
 437 100 l 25
 400 100 l 25
 400 0 l 25
 325 0 l 25
 325 -100 l 25
 25 -100 l 25
EndSplineSet
Validated: 1
EndChar

StartChar: uni26C5
Encoding: 9925 9925 240
Width: 350
Flags: HW
HStem: 0 300<25 63 213 325> 100 100<-50 -13 363 400> 500 100<25 100>
VStem: -50 75<300 500> 100 75<400 500>
LayerCount: 2
Back
Fore
SplineSet
63 300 m 29xb8
 63 400 l 25
 100 400 l 25
 100 500 l 25
 25 500 l 25
 25 300 l 25
 63 300 l 29xb8
-50 300 m 25
 -50 500 l 25
 -13 500 l 25
 -13 600 l 25
 137 600 l 25
 137 500 l 25
 175 500 l 25
 175 400 l 25
 213 400 l 25
 213 300 l 25
 325 300 l 25xb8
 325 200 l 25
 400 200 l 25
 400 100 l 25
 363 100 l 25x78
 363 0 l 25
 25 0 l 25xb8
 25 100 l 25
 -50 100 l 25
 -50 200 l 25
 -13 200 l 25x78
 -13 300 l 25
 -50 300 l 25
EndSplineSet
Validated: 1
EndChar

StartChar: musicalnote
Encoding: 9834 9834 241
Width: 350
Flags: HW
HStem: 0 300<6 156> 100 100<-31 6> 700 100<231 269>
VStem: 156 75<300 700> 269 75<600 700> 306 75<400 600>
LayerCount: 2
Back
Fore
SplineSet
6 0 m 29xb8
 6 100 l 25
 -31 100 l 25
 -31 200 l 25
 6 200 l 25x78
 6 300 l 25
 156 300 l 25
 156 800 l 25
 306 800 l 25
 306 700 l 25xb4
 344 700 l 25
 344 600 l 25xb8
 381 600 l 25
 381 400 l 25
 306 400 l 25
 306 600 l 25xb4
 269 600 l 25
 269 700 l 25
 231 700 l 25
 231 100 l 25
 194 100 l 25x78
 194 0 l 25
 6 0 l 29xb8
EndSplineSet
Validated: 1
EndChar

StartChar: musicalnotedbl
Encoding: 9835 9835 242
Width: 350
Flags: HW
HStem: 0 300<-69 44 269 381> 100 100<-106 -69 231 269> 700 100<119 381>
VStem: 44 75<300 700> 381 75<300 700>
LayerCount: 2
Back
Fore
SplineSet
-106 100 m 29x78
 -106 200 l 5
 -69 200 l 29x78
 -69 300 l 29
 44 300 l 29xb8
 44 800 l 29
 456 800 l 29
 456 100 l 29
 419 100 l 29x78
 419 0 l 29
 269 0 l 29xb8
 269 100 l 29
 231 100 l 29
 231 200 l 29
 269 200 l 29x78
 269 300 l 29
 381 300 l 29xb8
 381 700 l 29
 119 700 l 29
 119 100 l 29
 81 100 l 29x78
 81 0 l 29
 -69 0 l 29xb8
 -69 100 l 5
 -106 100 l 29x78
EndSplineSet
Validated: 1
EndChar

StartChar: uni266C
Encoding: 9836 9836 243
Width: 350
Flags: HW
HStem: 0 300<-69 44 269 381> 100 100<-106 -69 231 269> 500 100<119 381> 700 100<119 381>
VStem: 44 75<300 500 600 700> 381 75<300 500 600 700>
LayerCount: 2
Back
Fore
SplineSet
119 600 m 1x3c
 381 600 l 29
 381 700 l 1
 119 700 l 25
 119 600 l 1x3c
-106 100 m 25x7c
 -106 200 l 1
 -69 200 l 25x7c
 -69 300 l 25
 44 300 l 25xbc
 44 800 l 25
 456 800 l 25
 456 100 l 25
 419 100 l 25x7c
 419 0 l 25
 269 0 l 25xbc
 269 100 l 25
 231 100 l 25
 231 200 l 25
 269 200 l 25x7c
 269 300 l 25
 381 300 l 1xbc
 381 500 l 1
 119 500 l 1
 119 100 l 1
 81 100 l 25x7c
 81 0 l 25
 -69 0 l 25xbc
 -69 100 l 1
 -106 100 l 25x7c
EndSplineSet
Validated: 1
EndChar

StartChar: Idieresis
Encoding: 207 207 244
Width: 350
Flags: HW
HStem: 0 100<25 137 213 325> 600 100<25 137 213 325>
VStem: 137 75<100 600>
LayerCount: 2
Back
Fore
SplineSet
25 700 m 29
 325 700 l 25
 325 600 l 25
 213 600 l 25
 213 100 l 25
 325 100 l 25
 325 0 l 25
 25 0 l 25
 25 100 l 25
 137 100 l 25
 137 600 l 25
 25 600 l 25
 25 700 l 29
EndSplineSet
Validated: 1
EndChar

StartChar: idieresis
Encoding: 239 239 245
Width: 350
Flags: HW
HStem: 0 100<63 137 212 287> 400 100<100 137> 600 100<100 213>
VStem: 100 112<400 500 600 700> 137 75<100 400>
LayerCount: 2
Back
Fore
SplineSet
100 500 m 1xf0
 213 500 l 25xf0
 212 100 l 25
 287 100 l 25
 287 0 l 25
 63 0 l 25
 63 100 l 25
 137 100 l 25
 137 400 l 1xe8
 100 400 l 29
 100 500 l 1xf0
100 700 m 25
 213 700 l 25
 213 600 l 25
 100 600 l 25
 100 700 l 25
EndSplineSet
Validated: 1
EndChar

StartChar: onequarter
Encoding: 188 188 246
Width: 350
Flags: HW
HStem: -200 21G<287 363> -100 100<213 287> 200 100<250 287> 500 100<-13 25> 680 20G<25 100>
VStem: -13 112<500 600> 25 75<200 500 600 700> 137 75<0 100> 175 75<100 200> 213 75<200 300> 287 75<-200 -100 0 100>
LayerCount: 2
Back
Fore
SplineSet
213 200 m 29xf840
 213 300 l 29
 287 300 l 29
 287 200 l 29xf840
 250 200 l 29
 250 100 l 29xf880
 213 100 l 29
 213 0 l 29
 287 0 l 29
 287 100 l 29
 363 100 l 29
 363 -200 l 29
 287 -200 l 29
 287 -100 l 29
 137 -100 l 29
 137 100 l 29xf920
 175 100 l 29
 175 200 l 29xf880
 213 200 l 29xf840
25 600 m 25xfa
 25 700 l 25
 100 700 l 25
 100 200 l 25
 25 200 l 25
 25 500 l 25xfa
 -13 500 l 25
 -13 600 l 25xfc
 25 600 l 25xfa
EndSplineSet
Validated: 1
EndChar

StartChar: onehalf
Encoding: 189 189 247
Width: 350
Flags: HW
HStem: -200 100<137 175 250 363> 0 100<250 287> 100 100<137 175 325 363> 200 100<213 287> 500 100<-13 25> 680 20G<25 100>
VStem: -13 112<500 600> 25 75<200 500 600 700> 137 75<100 200> 175 75<-100 0> 250 75<0 100> 287 75<100 200>
LayerCount: 2
Back
Fore
SplineSet
137 100 m 29xac90
 137 200 l 25xac90
 175 200 l 25xac40
 175 300 l 25x9c40
 325 300 l 25x9c20
 325 200 l 25xac20
 363 200 l 25
 363 100 l 25xac10
 325 100 l 25xac20
 325 0 l 25xcc20
 250 0 l 25
 250 -100 l 25xcc40
 363 -100 l 25
 363 -200 l 25
 137 -200 l 25
 137 -100 l 25xcc90
 175 -100 l 25
 175 0 l 25
 250 0 l 25xcc40
 250 100 l 25xcc20
 287 100 l 25
 287 200 l 25
 213 200 l 25xdc90
 213 100 l 25
 137 100 l 29xac90
25 600 m 25x9d
 25 700 l 25
 100 700 l 25
 100 200 l 25
 25 200 l 25
 25 500 l 25x9d
 -13 500 l 25
 -13 600 l 25x9e
 25 600 l 25x9d
EndSplineSet
Validated: 5
EndChar

StartChar: threequarters
Encoding: 190 190 248
Width: 350
Flags: HW
HStem: -200 21G<306 381> -100 100<231 306> 200 100<-31 81 269 306> 400 100<6 81> 600 100<-31 81>
VStem: 6 112<400 500> 81 75<300 400 500 600> 156 75<0 100> 194 75<100 200> 231 75<200 300> 306 75<-200 -100 0 100>
LayerCount: 2
Back
Fore
SplineSet
231 200 m 25xf840
 231 300 l 25
 306 300 l 25
 306 200 l 25xf840
 269 200 l 25
 269 100 l 25xf880
 231 100 l 25
 231 0 l 25
 306 0 l 25
 306 100 l 25
 381 100 l 25
 381 -200 l 25
 306 -200 l 25
 306 -100 l 25
 156 -100 l 25
 156 100 l 25xf920
 194 100 l 25
 194 200 l 25xf880
 231 200 l 25xf840
-31 600 m 1
 -31 700 l 1
 156 700 l 1xf9
 156 500 l 25xfa
 119 500 l 25
 119 400 l 25xfc
 156 400 l 25
 156 300 l 25xfa
 119 300 l 25
 119 200 l 1xfc
 -31 200 l 1
 -31 300 l 1
 81 300 l 1
 81 400 l 25xfa
 6 400 l 25
 6 500 l 25xfc
 81 500 l 25
 81 600 l 1xfa
 -31 600 l 1
EndSplineSet
Validated: 1
EndChar

StartChar: udieresis
Encoding: 252 252 249
Width: 350
Flags: HW
HStem: 0 100<81 231> 100 100<231 269> 480 20G<6 81 269 344>
VStem: 6 75<100 500> 231 112<100 200> 269 75<0 100 200 500>
LayerCount: 2
Back
Fore
SplineSet
6 500 m 29x78
 81 500 l 25
 81 100 l 25
 231 100 l 25xb8
 231 200 l 25x78
 269 200 l 25x74
 269 500 l 25
 344 500 l 25
 344 0 l 25
 269 0 l 25xb4
 269 100 l 25x74
 231 100 l 25
 231 0 l 25
 44 0 l 25xb8
 44 100 l 25
 6 100 l 25
 6 500 l 29x78
EndSplineSet
Validated: 5
EndChar

StartChar: oslash
Encoding: 248 248 250
Width: 350
Flags: HW
HStem: 0 100<81 269> 400 100<81 269>
VStem: 6 75<100 400> 269 75<100 400>
LayerCount: 2
Back
Fore
SplineSet
81 400 m 29
 81 100 l 25
 269 100 l 25
 269 400 l 25
 81 400 l 29
44 500 m 25
 306 500 l 25
 306 400 l 25
 344 400 l 25
 344 100 l 25
 306 100 l 25
 306 0 l 25
 44 0 l 25
 44 100 l 25
 6 100 l 25
 6 400 l 25
 44 400 l 25
 44 500 l 25
EndSplineSet
Validated: 1
EndChar

StartChar: copyright
Encoding: 169 169 251
Width: 350
Flags: HW
HStem: 0 100<63 287> 200 100<137 250> 300 100<63 100> 400 100<137 250> 600 100<63 287>
VStem: -50 75<200 500> -13 75<100 200 500 600> 63 75<300 400> 100 150<200 300 400 500> 287 75<100 200 500 600> 325 75<200 500>
LayerCount: 2
Back
Fore
SplineSet
100 400 m 29xa880
 100 500 l 1
 250 500 l 25
 250 400 l 25x9880
 137 400 l 25
 137 300 l 25xd9
 250 300 l 25
 250 200 l 25
 100 200 l 25xd880
 100 300 l 25xa880
 63 300 l 25
 63 400 l 1xa9
 100 400 l 29xa880
63 500 m 25xda40
 25 500 l 25
 25 200 l 25xdc
 63 200 l 25
 63 100 l 25
 287 100 l 25
 287 200 l 25xda40
 325 200 l 25
 325 500 l 25xd820
 287 500 l 25
 287 600 l 25
 63 600 l 25
 63 500 l 25xda40
25 600 m 25
 25 700 l 25
 325 700 l 25
 325 600 l 25xdc20
 363 600 l 25
 363 500 l 25xd840
 400 500 l 25
 400 200 l 25xd820
 363 200 l 25
 363 100 l 25xd840
 325 100 l 25
 325 0 l 25
 25 0 l 25
 25 100 l 25xdc20
 -13 100 l 25
 -13 200 l 25xda
 -50 200 l 25
 -50 500 l 25xdc
 -13 500 l 25
 -13 600 l 25xda
 25 600 l 25
EndSplineSet
Validated: 1
EndChar

StartChar: registered
Encoding: 174 174 252
Width: 350
Flags: HW
HStem: 0 100<63 287> 200 100<213 287> 400 100<213 250> 600 100<63 287>
VStem: -50 75<200 500> -13 75<100 200 500 600> 100 112<300 400> 100 75<200 300> 213 75<200 300> 287 75<100 200 500 600> 325 75<200 500>
LayerCount: 2
Back
Fore
SplineSet
100 200 m 29xf1
 100 500 l 25xf1
 250 500 l 25
 250 400 l 25
 213 400 l 25
 213 300 l 25xf2
 287 300 l 25
 287 200 l 25
 213 200 l 25xf080
 213 300 l 25xf2
 175 300 l 25
 175 200 l 25
 100 200 l 29xf1
63 500 m 25xf440
 25 500 l 25
 25 200 l 25xf8
 63 200 l 25
 63 100 l 25
 287 100 l 25xf440
 287 200 l 25
 325 200 l 25
 325 500 l 25xf0a0
 287 500 l 25
 287 600 l 25
 63 600 l 25
 63 500 l 25xf440
25 600 m 25
 25 700 l 25
 325 700 l 25
 325 600 l 25xf820
 363 600 l 25
 363 500 l 25xf040
 400 500 l 25
 400 200 l 25xf020
 363 200 l 25
 363 100 l 25xf040
 325 100 l 25
 325 0 l 25
 25 0 l 25
 25 100 l 25xf820
 -13 100 l 25
 -13 200 l 25xf4
 -50 200 l 25
 -50 500 l 25xf8
 -13 500 l 25
 -13 600 l 25xf4
 25 600 l 25
EndSplineSet
Validated: 5
EndChar

StartChar: uni00B2
Encoding: 178 178 253
Width: 350
Flags: HW
HStem: 300 100<63 100 175 287> 500 100<175 213> 600 100<63 100 250 287> 700 100<137 213>
VStem: 63 75<600 700> 100 75<400 500> 175 75<500 600> 213 75<600 700>
LayerCount: 2
Back
Fore
SplineSet
100 700 m 29xa4
 100 800 l 25x94
 250 800 l 25x92
 250 700 l 25xa2
 287 700 l 25
 287 600 l 25xa1
 250 600 l 25xa2
 250 500 l 25xc2
 175 500 l 25
 175 400 l 25xc4
 287 400 l 25
 287 300 l 25
 63 300 l 25
 63 400 l 25xc9
 100 400 l 25
 100 500 l 25
 175 500 l 25xc4
 175 600 l 25xc2
 213 600 l 25
 213 700 l 25
 137 700 l 25xd9
 137 600 l 25
 63 600 l 25
 63 700 l 25xa9
 100 700 l 29xa4
EndSplineSet
Validated: 5
EndChar

StartChar: uni00B3
Encoding: 179 179 254
Width: 350
Flags: HW
HStem: 300 100<63 213> 400 100<250 287> 500 100<137 213> 700 100<63 213>
VStem: 137 112<500 600> 213 75<400 500 600 700>
LayerCount: 2
Back
Fore
SplineSet
63 700 m 29xb4
 63 800 l 29
 287 800 l 29
 287 600 l 29xb4
 250 600 l 29xb8
 250 500 l 29x58
 287 500 l 29
 287 400 l 29x54
 250 400 l 29x58
 250 300 l 29x98
 63 300 l 29
 63 400 l 29
 213 400 l 29
 213 500 l 29xb4
 137 500 l 29
 137 600 l 29xb8
 213 600 l 29
 213 700 l 29
 63 700 l 29xb4
EndSplineSet
Validated: 1
EndChar

StartChar: uni00B9
Encoding: 185 185 255
Width: 350
Flags: HW
HStem: 600 100<119 156>
VStem: 119 112<600 700> 156 75<400 600 700 800>
LayerCount: 2
Back
Fore
SplineSet
156 700 m 29xa0
 156 800 l 25
 231 800 l 25
 231 400 l 25
 156 400 l 25
 156 600 l 25xa0
 119 600 l 25
 119 700 l 25xc0
 156 700 l 29xa0
EndSplineSet
Validated: 1
EndChar

StartChar: Euro
Encoding: 8364 8364 256
Width: 350
Flags: HW
HStem: 0 100<137 287> 100 100<325 363> 200 100<-13 25 137 250> 400 100<-13 25 137 250> 500 100<325 363> 600 100<137 287>
VStem: 63 75<100 200 500 600> 100 225<0 100 600 700> 287 75<100 200 500 600>
LayerCount: 2
Back
Fore
SplineSet
137 500 m 29x1680
 250 500 l 25
 250 400 l 25
 100 400 l 25
 100 300 l 25x35
 250 300 l 25
 250 200 l 25
 137 200 l 25
 137 100 l 25
 287 100 l 25
 287 200 l 25xb680
 363 200 l 25
 363 100 l 25x4280
 325 100 l 25x41
 325 0 l 25
 100 0 l 25x81
 100 100 l 25x41
 63 100 l 25x42
 63 200 l 25
 -13 200 l 25
 -13 300 l 25
 25 300 l 25
 25 400 l 25
 -13 400 l 25
 -13 500 l 25x32
 63 500 l 25x0a
 63 600 l 25x06
 100 600 l 25
 100 700 l 25
 325 700 l 25x05
 325 600 l 25x09
 363 600 l 25
 363 500 l 25
 287 500 l 25x0880
 287 600 l 25
 137 600 l 25
 137 500 l 29x1680
EndSplineSet
Validated: 1
EndChar

StartChar: uni20B4
Encoding: 8372 8372 257
Width: 350
Flags: HW
HStem: 0 100<81 269> 100 100<306 344> 300 100<81 269> 500 100<6 44> 600 100<81 269>
VStem: 6 75<100 300 500 600> 44 262<0 100 300 400 600 700> 269 75<100 200 400 600>
LayerCount: 2
Back
Fore
SplineSet
6 500 m 29x35
 6 600 l 25x35
 44 600 l 25x32
 44 700 l 25
 306 700 l 25
 306 600 l 25x2a
 344 600 l 25
 344 400 l 25x29
 306 400 l 25
 306 300 l 25x2a
 81 300 l 25
 81 100 l 25
 269 100 l 25xad
 269 200 l 25
 344 200 l 25
 344 100 l 25x65
 306 100 l 25x62
 306 0 l 25
 44 0 l 25xa2
 44 100 l 25x62
 6 100 l 25
 6 300 l 25x64
 44 300 l 25
 44 400 l 25x62
 269 400 l 25
 269 600 l 25
 81 600 l 25x6d
 81 500 l 25
 6 500 l 29x35
EndSplineSet
Validated: 1
EndChar

StartChar: radical
Encoding: 8730 8730 258
Width: 350
Flags: HW
HStem: 0 100<63 100> 600 100<213 400>
VStem: -50 75<200 400> -13 75<100 200> 100 75<100 300> 137 75<300 600>
LayerCount: 2
Back
Fore
SplineSet
-50 200 m 29xe0
 -50 400 l 25
 25 400 l 25
 25 200 l 25xe0
 63 200 l 25
 63 100 l 25
 100 100 l 25
 100 300 l 25xd8
 137 300 l 25
 137 600 l 25xc4
 175 600 l 25
 175 700 l 25xc8
 400 700 l 25
 400 600 l 25
 213 600 l 25
 213 300 l 25xc4
 175 300 l 25
 175 100 l 25xc8
 137 100 l 25
 137 0 l 25
 25 0 l 25
 25 100 l 25xe4
 -13 100 l 25
 -13 200 l 25xd0
 -50 200 l 29xe0
EndSplineSet
Validated: 1
EndChar

StartChar: infinity
Encoding: 8734 8734 259
Width: 350
Flags: HW
HStem: 100 100<-31 81 269 381> 200 300<-106 -69 119 156 194 231 419 456> 500 100<-31 81 269 381>
VStem: -106 75<200 500> -69 188<100 200 500 600> 81 75<200 300 400 500> 194 75<200 300 400 500> 231 188<100 200 500 600> 381 75<200 500>
LayerCount: 2
Back
Fore
SplineSet
231 300 m 29xa1
 269 300 l 25
 269 200 l 25
 381 200 l 25
 381 500 l 25
 269 500 l 25
 269 400 l 25xa280
 231 400 l 25
 231 300 l 29xa1
-31 200 m 25xb4
 81 200 l 25
 81 300 l 25xb4
 119 300 l 25
 119 400 l 25xa8
 81 400 l 25
 81 500 l 25
 -31 500 l 25
 -31 200 l 25xb4
-106 200 m 25x50
 -106 500 l 25x50
 -69 500 l 25x48
 -69 600 l 25
 119 600 l 25x28
 119 500 l 25x48
 156 500 l 25
 156 400 l 25
 194 400 l 25
 194 500 l 25x46
 231 500 l 25x41
 231 600 l 25
 419 600 l 25x21
 419 500 l 25x41
 456 500 l 25
 456 200 l 25x4080
 419 200 l 25x41
 419 100 l 25
 231 100 l 25x81
 231 200 l 25x41
 194 200 l 25
 194 300 l 25
 156 300 l 25
 156 200 l 25x46
 119 200 l 25x48
 119 100 l 25
 -69 100 l 25x88
 -69 200 l 25x48
 -106 200 l 25x50
EndSplineSet
Validated: 1
EndChar

StartChar: uni2B50
Encoding: 11088 11088 260
Width: 350
Flags: HW
HStem: 0 100<-13 25 325 363> 400 200<25 100 250 325> 500 100<-50 25 325 400>
VStem: -13 75<0 100> 25 112<100 200> 100 150<300 400 600 700> 213 112<100 200> 287 75<0 100>
LayerCount: 2
Back
Fore
SplineSet
-13 0 m 29xd0
 -13 100 l 25xd0
 25 100 l 25
 25 200 l 25xc8
 63 200 l 25
 63 300 l 25
 100 300 l 25
 100 400 l 25xd4
 25 400 l 25xc8
 25 500 l 25
 -50 500 l 25
 -50 600 l 25xa8
 100 600 l 25
 100 700 l 25xc4
 137 700 l 25
 137 800 l 25
 213 800 l 25
 213 700 l 25xca
 250 700 l 25
 250 600 l 25xc4
 400 600 l 25
 400 500 l 25
 325 500 l 25xa2
 325 400 l 25xc2
 250 400 l 25
 250 300 l 25
 287 300 l 25
 287 200 l 25xc5
 325 200 l 25
 325 100 l 25xc2
 363 100 l 25
 363 0 l 25
 287 0 l 25
 287 100 l 25xc1
 213 100 l 25
 213 200 l 25
 137 200 l 25
 137 100 l 25xca
 63 100 l 25
 63 0 l 25
 -13 0 l 29xd0
EndSplineSet
Validated: 1
EndChar

StartChar: uni274C
Encoding: 10060 10060 261
Width: 350
Flags: HW
HStem: 100 100<-13 63 287 363> 200 100<63 100 250 287> 400 100<63 100 250 287> 500 100<-13 63 287 363>
VStem: -13 75<100 200 500 600> 63 75<200 300 400 500> 213 75<200 300 400 500> 287 75<100 200 500 600>
LayerCount: 2
Back
Fore
SplineSet
63 400 m 29x64
 63 500 l 25x68
 137 500 l 25x14
 137 400 l 25
 213 400 l 25x26
 213 500 l 25x16
 287 500 l 25x26
 287 600 l 25
 363 600 l 25
 363 500 l 25x11
 287 500 l 25
 287 400 l 25
 250 400 l 25
 250 300 l 25
 287 300 l 25x62
 287 200 l 25x82
 363 200 l 25
 363 100 l 25
 287 100 l 25x81
 287 200 l 25x82
 213 200 l 25
 213 300 l 25
 137 300 l 25
 137 200 l 25x46
 63 200 l 25
 63 100 l 25
 -13 100 l 25
 -13 200 l 25
 63 200 l 25x88
 63 300 l 25
 100 300 l 25
 100 400 l 25
 63 400 l 29x64
-13 500 m 25x18
 -13 600 l 25
 63 600 l 25x18
 63 500 l 25x28
 -13 500 l 25x18
EndSplineSet
Validated: 5
EndChar

StartChar: uni2713
Encoding: 10003 10003 262
Width: 350
Flags: HW
HStem: 0 100<81 119> 200 100<-31 6> 600 100<344 381>
VStem: -31 75<200 300> 6 75<100 200> 119 75<100 200> 156 75<200 300> 194 75<300 400> 231 75<400 500> 269 75<500 600> 306 75<600 700>
LayerCount: 2
Back
Fore
SplineSet
-31 200 m 29xf0
 -31 300 l 1
 44 300 l 25
 44 200 l 25xf0
 81 200 l 25
 81 100 l 25
 119 100 l 25
 119 200 l 25xec
 156 200 l 25
 156 300 l 25xe2
 194 300 l 25
 194 400 l 25xe1
 231 400 l 25
 231 500 l 25xe080
 269 500 l 25
 269 600 l 25xe040
 306 600 l 25
 306 700 l 25
 381 700 l 25
 381 600 l 25xe020
 344 600 l 25
 344 500 l 25xe040
 306 500 l 25
 306 400 l 25xe080
 269 400 l 25
 269 300 l 25xe1
 231 300 l 25
 231 200 l 25xe2
 194 200 l 25
 194 100 l 25xe4
 156 100 l 25
 156 0 l 25
 44 0 l 25
 44 100 l 25xf2
 6 100 l 25
 6 200 l 1xe8
 -31 200 l 29xf0
EndSplineSet
Validated: 1
EndChar

StartChar: uni2699
Encoding: 9881 9881 263
Width: 350
Flags: HW
HStem: 0 100<-13 25 325 363> 300 100<-87 25 325 437> 600 100<-13 25 325 363>
VStem: -13 75<0 100 601 700> 25 112<200 300 400 500> 137 75<-100 100 600 800> 213 112<200 300 400 500> 287 75<0 100 600 700>
CounterMasks: 1 e0
LayerCount: 2
Back
Fore
SplineSet
100 300 m 29xea
 137 300 l 25
 137 200 l 25
 213 200 l 25
 213 300 l 25
 250 300 l 25
 250 400 l 25
 213 400 l 25
 213 500 l 25
 137 500 l 25
 137 400 l 25
 100 400 l 25
 100 300 l 29xea
-87 300 m 25
 -87 400 l 25
 25 400 l 25
 25 601 l 25xe8
 -13 600 l 25
 -13 700 l 25
 63 700 l 25
 63 600 l 25
 137 600 l 25
 137 800 l 25
 213 800 l 25
 213 600 l 25
 287 600 l 25
 287 700 l 25
 363 700 l 25
 363 600 l 25xf5
 325 600 l 25
 325 400 l 25
 437 400 l 25
 437 300 l 25
 325 300 l 25
 325 100 l 25xe2
 363 100 l 25
 363 0 l 25
 287 0 l 25
 287 100 l 25
 213 100 l 25
 213 -100 l 25
 137 -100 l 25
 137 100 l 25
 63 100 l 25
 63 0 l 25
 -13 0 l 25
 -13 100 l 25xf5
 25 100 l 25
 25 300 l 25
 -87 300 l 25
EndSplineSet
Validated: 1
EndChar

StartChar: uni2139
Encoding: 8505 8505 264
Width: 350
Flags: HW
HStem: -100 100<-13 363> 500 100<137 213> 700 100<-13 363>
VStem: -125 75<100 600> -87 75<0 100 600 700> 137 75<100 400 500 600> 363 75<0 100 600 700> 400 75<100 600>
LayerCount: 2
Back
Fore
SplineSet
137 100 m 25xe4
 137 400 l 25
 213 400 l 25
 213 100 l 25
 137 100 l 25xe4
137 500 m 25
 137 600 l 25
 213 600 l 25
 213 500 l 25
 137 500 l 25
400 600 m 29xe5
 363 600 l 25
 363 700 l 25
 -13 700 l 25
 -13 600 l 25xee
 -50 600 l 25
 -50 100 l 25xf4
 -13 100 l 25
 -13 0 l 25
 363 0 l 25
 363 100 l 25xee
 400 100 l 25
 400 600 l 29xe5
-125 100 m 25xf4
 -125 600 l 25xf4
 -87 600 l 25
 -87 700 l 25xec
 -50 700 l 25
 -50 800 l 25
 400 800 l 25
 400 700 l 25xf5
 437 700 l 25
 437 600 l 25xe6
 475 600 l 25
 475 100 l 25xe5
 437 100 l 25
 437 0 l 25xe6
 400 0 l 25
 400 -100 l 25
 -50 -100 l 25
 -50 0 l 25xf5
 -87 0 l 25
 -87 100 l 25xec
 -125 100 l 25xf4
EndSplineSet
Validated: 1
EndChar

StartChar: uni2605
Encoding: 9733 9733 265
Width: 350
Flags: HW
HStem: 0 100<-13 25 325 363> 400 200<25 100 250 325> 500 100<-50 25 325 400>
VStem: -13 75<0 100> 25 112<100 200> 100 150<300 400 600 700> 213 112<100 200> 287 75<0 100>
LayerCount: 2
Back
Fore
SplineSet
-13 0 m 29xd0
 -13 100 l 25xd0
 25 100 l 25
 25 200 l 25xc8
 63 200 l 25
 63 300 l 25
 100 300 l 25
 100 400 l 25xd4
 25 400 l 25xc8
 25 500 l 25
 -50 500 l 25
 -50 600 l 25xa8
 100 600 l 25
 100 700 l 25xc4
 137 700 l 25
 137 800 l 25
 213 800 l 25
 213 700 l 25xca
 250 700 l 25
 250 600 l 25xc4
 400 600 l 25
 400 500 l 25
 325 500 l 25xa2
 325 400 l 25xc2
 250 400 l 25
 250 300 l 25
 287 300 l 25
 287 200 l 25xc5
 325 200 l 25
 325 100 l 25xc2
 363 100 l 25
 363 0 l 25
 287 0 l 25
 287 100 l 25xc1
 213 100 l 25
 213 200 l 25
 137 200 l 25
 137 100 l 25xca
 63 100 l 25
 63 0 l 25
 -13 0 l 29xd0
EndSplineSet
Validated: 1
EndChar

StartChar: uni23CF
Encoding: 9167 9167 266
Width: 350
Flags: HW
HStem: 0 100<-13 363> 200 100<-13 25 325 363> 680 20G<137 213>
VStem: 137 75<600 700>
LayerCount: 2
Back
Fore
SplineSet
-13 0 m 25
 -13 100 l 25
 363 100 l 25
 363 0 l 25
 -13 0 l 25
-13 200 m 29
 -13 300 l 29
 25 300 l 29
 25 400 l 29
 63 400 l 29
 63 500 l 29
 100 500 l 29
 100 600 l 29
 137 600 l 29
 137 700 l 29
 213 700 l 29
 213 600 l 29
 250 600 l 29
 250 500 l 29
 287 500 l 29
 287 400 l 29
 325 400 l 29
 325 300 l 29
 363 300 l 29
 363 200 l 29
 -13 200 l 29
EndSplineSet
Validated: 1
EndChar

StartChar: uni23E9
Encoding: 9193 9193 267
Width: 350
Flags: HW
HStem: 0 21G<-144 -69 194 269> 200 300<6 81 344 419> 300 100<81 156 419 494> 680 20G<-144 -69 194 269>
VStem: -144 225<200 300 400 500> -144 150<100 200 500 600> -144 75<0 100 600 700> 194 225<200 300 400 500> 194 150<100 200 500 600> 194 75<0 100 600 700>
LayerCount: 2
Back
Fore
SplineSet
-144 700 m 29xd2
 -69 700 l 29
 -69 600 l 29xd2
 6 600 l 29
 6 500 l 29xd4
 81 500 l 29xd8
 81 400 l 29
 156 400 l 29
 156 300 l 29
 81 300 l 29xb8
 81 200 l 29xd8
 6 200 l 29
 6 100 l 29xd4
 -69 100 l 29
 -69 0 l 29
 -144 0 l 29
 -144 700 l 29xd2
194 700 m 25xd040
 269 700 l 25
 269 600 l 25xd040
 344 600 l 25
 344 500 l 25xd080
 419 500 l 25xd1
 419 400 l 25
 494 400 l 25
 494 300 l 25
 419 300 l 25xb1
 419 200 l 25xd1
 344 200 l 25
 344 100 l 25xd080
 269 100 l 25
 269 0 l 25
 194 0 l 25
 194 700 l 25xd040
EndSplineSet
Validated: 1
EndChar

StartChar: uni23EA
Encoding: 9194 9194 268
Width: 350
Flags: HW
HStem: 0 21G<81 156 419 494> 200 300<-69 6 269 344> 300 100<-144 -69 194 269> 680 20G<81 156 419 494>
VStem: -69 225<200 300 400 500> 6 150<100 200 500 600> 81 75<0 100 600 700> 269 225<200 300 400 500> 344 150<100 200 500 600> 419 75<0 100 600 700>
LayerCount: 2
Back
Fore
SplineSet
494 700 m 25xd040
 494 0 l 25
 419 0 l 25
 419 100 l 25xd040
 344 100 l 25
 344 200 l 25xd080
 269 200 l 25xd1
 269 300 l 25
 194 300 l 25
 194 400 l 25
 269 400 l 25xb1
 269 500 l 25xd1
 344 500 l 25
 344 600 l 25xd080
 419 600 l 25
 419 700 l 25
 494 700 l 25xd040
156 700 m 29xd2
 156 0 l 29
 81 0 l 29
 81 100 l 29xd2
 6 100 l 29
 6 200 l 29xd4
 -69 200 l 29xd8
 -69 300 l 29
 -144 300 l 29
 -144 400 l 29
 -69 400 l 29xb8
 -69 500 l 29xd8
 6 500 l 29
 6 600 l 29xd4
 81 600 l 29
 81 700 l 29
 156 700 l 29xd2
EndSplineSet
Validated: 1
EndChar

StartChar: uni23ED
Encoding: 9197 9197 269
Width: 350
Flags: HW
HStem: 0 21G<-219 -144 119 194 456 569> 200 300<-69 6 269 344> 300 100<6 81 344 419> 680 20G<-219 -144 119 194 456 569>
VStem: -219 225<200 300 400 500> -219 150<100 200 500 600> -219 75<0 100 600 700> 119 225<200 300 400 500> 119 150<100 200 500 600> 119 75<0 100 600 700> 456 112<0 700>
LayerCount: 2
Back
Fore
SplineSet
456 700 m 29x9020
 569 700 l 29
 569 0 l 29
 456 0 l 29
 456 700 l 29x9020
119 700 m 25xd060
 194 700 l 25
 194 600 l 25xd060
 269 600 l 25
 269 500 l 25xd0a0
 344 500 l 25xd120
 344 400 l 25
 419 400 l 25
 419 300 l 25
 344 300 l 25xb120
 344 200 l 25xd120
 269 200 l 25
 269 100 l 25xd0a0
 194 100 l 25
 194 0 l 25
 119 0 l 25
 119 700 l 25xd060
-219 700 m 25xd220
 -144 700 l 25
 -144 600 l 25xd220
 -69 600 l 25
 -69 500 l 25xd420
 6 500 l 25xd820
 6 400 l 25
 81 400 l 25
 81 300 l 25
 6 300 l 25xb820
 6 200 l 25xd820
 -69 200 l 25
 -69 100 l 25xd420
 -144 100 l 25
 -144 0 l 25
 -219 0 l 25
 -219 700 l 25xd220
EndSplineSet
Validated: 1
EndChar

StartChar: uni23EE
Encoding: 9198 9198 270
Width: 350
Flags: HW
HStem: 0 21G<-219 -106 156 231 494 569> 200 300<6 81 344 419> 300 100<-69 6 269 344> 680 20G<-219 -106 156 231 494 569>
VStem: -219 112<0 700> 6 225<200 300 400 500> 81 150<100 200 500 600> 156 75<0 100 600 700> 344 225<200 300 400 500> 419 150<100 200 500 600> 494 75<0 100 600 700>
LayerCount: 2
Back
Fore
SplineSet
-219 700 m 29x98
 -106 700 l 29
 -106 0 l 29
 -219 0 l 29
 -219 700 l 29x98
569 700 m 25xd820
 569 0 l 25
 494 0 l 25
 494 100 l 25xd820
 419 100 l 25
 419 200 l 25xd840
 344 200 l 25xd880
 344 300 l 25
 269 300 l 25
 269 400 l 25
 344 400 l 25xb880
 344 500 l 25xd880
 419 500 l 25
 419 600 l 25xd840
 494 600 l 25
 494 700 l 25
 569 700 l 25xd820
231 700 m 25xd9
 231 0 l 25
 156 0 l 25
 156 100 l 25xd9
 81 100 l 25
 81 200 l 25xda
 6 200 l 25xdc
 6 300 l 25
 -69 300 l 25
 -69 400 l 25
 6 400 l 25xbc
 6 500 l 25xdc
 81 500 l 25
 81 600 l 25xda
 156 600 l 25
 156 700 l 25
 231 700 l 25xd9
EndSplineSet
Validated: 1
EndChar

StartChar: uni23EF
Encoding: 9199 9199 271
Width: 350
Flags: HW
HStem: 0 21G<-181 -106 194 306 419 531> 300 100<44 119> 680 20G<-181 -106 194 306 419 531>
VStem: -181 225<200 300 400 500> -181 150<100 200 500 600> -181 75<0 100 600 700> 194 112<0 700> 419 112<0 700>
LayerCount: 2
Back
Fore
SplineSet
-181 700 m 25xe7
 -106 700 l 25
 -106 600 l 25xe7
 -31 600 l 25
 -31 500 l 25xeb
 44 500 l 25
 44 400 l 25
 119 400 l 25
 119 300 l 25
 44 300 l 25
 44 200 l 25xf3
 -31 200 l 25
 -31 100 l 25xeb
 -106 100 l 25
 -106 0 l 25
 -181 0 l 25
 -181 700 l 25xe7
194 700 m 29
 306 700 l 29
 306 0 l 29
 194 0 l 29
 194 700 l 29
419 700 m 29
 531 700 l 29
 531 0 l 29
 419 0 l 29
 419 700 l 29
EndSplineSet
Validated: 1
EndChar

StartChar: uni23F8
Encoding: 9208 9208 273
Width: 350
Flags: HW
HStem: 0 21G<6 119 231 344> 680 20G<6 119 231 344>
VStem: 6 112<0 700> 231 112<0 700>
LayerCount: 2
Back
Fore
SplineSet
6 700 m 29
 119 700 l 29
 119 0 l 29
 6 0 l 29
 6 700 l 29
231 700 m 29
 344 700 l 29
 344 0 l 29
 231 0 l 29
 231 700 l 29
EndSplineSet
Validated: 1
EndChar

StartChar: uni23F9
Encoding: 9209 9209 274
Width: 350
Flags: HW
HStem: 0 21G<-31 381> 680 20G<-31 381>
VStem: -31 412<0 700>
LayerCount: 2
Back
Fore
SplineSet
-31 700 m 29
 381 700 l 25
 381 0 l 25
 -31 0 l 25
 -31 700 l 29
EndSplineSet
Validated: 1
EndChar

StartChar: uni23FA
Encoding: 9210 9210 275
Width: 350
Flags: HW
HStem: 0 21G<63 287> 680 20G<63 287>
VStem: 63 225<0 100 600 700>
LayerCount: 2
Back
Fore
SplineSet
-50 500 m 29
 -13 500 l 25
 -13 600 l 25
 63 600 l 25
 63 700 l 25
 287 700 l 25
 287 600 l 25
 363 600 l 25
 363 500 l 25
 400 500 l 25
 400 200 l 25
 363 200 l 25
 363 100 l 25
 287 100 l 25
 287 0 l 25
 63 0 l 25
 63 100 l 25
 -13 100 l 25
 -13 200 l 25
 -50 200 l 25
 -50 500 l 29
EndSplineSet
Validated: 1
EndChar

StartChar: uni23FD
Encoding: 9213 9213 276
Width: 350
Flags: HW
HStem: -100 100<25 325> 500 100<25 63 287 325>
VStem: -87 75<100 400> -50 75<0 100 400 500> -13 75<500 600> 137 75<300 800> 287 75<500 600> 325 75<0 100 400 500> 363 75<100 400>
LayerCount: 2
Back
Fore
SplineSet
137 300 m 29xc4
 137 800 l 1
 213 800 l 25
 213 300 l 1
 137 300 l 29xc4
-13 500 m 25xcc
 -13 600 l 25
 63 600 l 25
 63 500 l 25xcc
 25 500 l 25
 25 400 l 25xd4
 -13 400 l 25
 -13 100 l 25xe4
 25 100 l 25
 25 0 l 25
 325 0 l 25
 325 100 l 25xd5
 363 100 l 25
 363 400 l 25xc480
 325 400 l 25
 325 500 l 25xc5
 287 500 l 25
 287 600 l 25
 363 600 l 25
 363 500 l 25xc6
 400 500 l 25
 400 400 l 25xc5
 437 400 l 25
 437 100 l 25xc480
 400 100 l 25
 400 0 l 25xc5
 363 0 l 25
 363 -100 l 25
 -13 -100 l 25
 -13 0 l 25xcc80
 -50 0 l 25
 -50 100 l 25xd4
 -87 100 l 25
 -87 400 l 25xe4
 -50 400 l 25
 -50 500 l 25xd4
 -13 500 l 25xcc
EndSplineSet
Validated: 1
EndChar

StartChar: uni2B58
Encoding: 11096 11096 277
Width: 350
Flags: HW
HStem: 0 100<100 250> 100 100<25 63 287 325> 600 100<25 63 287 325> 700 100<100 250>
VStem: -87 75<300 500> -50 75<200 300 500 600> -13 112<100 200 600 700> 63 225<0 100 700 800> 137 75<200 600> 250 112<100 200 600 700> 325 75<200 300 500 600> 363 75<300 500>
LayerCount: 2
Back
Fore
SplineSet
137 200 m 29x6080
 137 600 l 25
 213 600 l 25
 213 200 l 25
 137 200 l 29x6080
25 200 m 25x64
 100 200 l 25x62
 100 100 l 25
 250 100 l 25x8240
 250 200 l 25x4240
 325 200 l 25
 325 300 l 25x4020
 363 300 l 25
 363 500 l 25x4010
 325 500 l 25
 325 600 l 25x6020
 250 600 l 25x6040
 250 700 l 25
 100 700 l 25x1240
 100 600 l 25x2240
 25 600 l 25
 25 500 l 25x24
 -13 500 l 25
 -13 300 l 25x28
 25 300 l 25
 25 200 l 25x64
-13 600 m 25
 -13 700 l 1x12
 63 700 l 25x21
 63 800 l 25
 287 800 l 25x11
 287 700 l 25x21
 363 700 l 25x1040
 363 600 l 25x2040
 400 600 l 25
 400 500 l 25x2020
 437 500 l 25
 437 300 l 25x2010
 400 300 l 25
 400 200 l 25x6020
 363 200 l 25
 363 100 l 25x6040
 287 100 l 25x61
 287 0 l 25
 63 0 l 25x81
 63 100 l 25x41
 -13 100 l 25
 -13 200 l 25x42
 -50 200 l 25
 -50 300 l 25x44
 -87 300 l 25
 -87 500 l 25x48
 -50 500 l 25
 -50 600 l 1x64
 -13 600 l 25
EndSplineSet
Validated: 1
EndChar

StartChar: trademark
Encoding: 8482 8482 278
Width: 350
Flags: HW
HStem: 400 300<-31 44 156 231 381 456> 500 100<269 344> 600 100<-106 -31 44 119 231 269 344 381>
VStem: -31 75<400 600> 156 112<600 700> 156 75<400 600> 269 75<500 600> 344 112<600 700> 381 75<400 600>
LayerCount: 2
Back
Fore
SplineSet
156 400 m 29x94
 156 700 l 25x98
 269 700 l 25x38
 269 600 l 25x58
 344 600 l 25x52
 344 700 l 25x31
 456 700 l 25x91
 456 400 l 25
 381 400 l 25x9080
 381 600 l 25x3080
 344 600 l 25
 344 500 l 25
 269 500 l 25x5280
 269 600 l 25x58
 231 600 l 25x34
 231 400 l 25
 156 400 l 29x94
-106 600 m 25x30
 -106 701 l 25
 119 700 l 25
 119 600 l 1
 44 600 l 25x30
 44 400 l 1
 -31 400 l 25x90
 -31 600 l 25
 -106 600 l 25x30
EndSplineSet
Validated: 5
EndChar

StartChar: uni25FC
Encoding: 9724 9724 279
Width: 350
Flags: HW
HStem: 0 100<137 213> 680 20G<137 213>
VStem: 137 75<0 100 200 700>
LayerCount: 2
Back
Fore
SplineSet
137 700 m 29
 213 700 l 25
 213 200 l 25
 137 200 l 25
 137 700 l 29
213 0 m 25
 137 0 l 1
 137 100 l 25
 213 100 l 1
 213 0 l 25
EndSplineSet
Validated: 1
EndChar

StartChar: filledbox
Encoding: 9632 9632 280
Width: 350
Flags: HW
HStem: 0 21G<-50 400>
VStem: -50 450<0 800>
LayerCount: 2
Back
Fore
SplineSet
-50 0 m 29
 -50 800 l 25
 400 800 l 25
 400 0 l 25
 -50 0 l 29
EndSplineSet
Validated: 1
EndChar

StartChar: uni26C7
Encoding: 9927 9927 281
Width: 350
Flags: HW
HStem: -100 100<-31 44 306 381> 400 100<6 44 306 344> 500 100<-31 6 44 81 269 306 344 381>
VStem: -31 112<-100 0> -31 38<500 600> 6 38<400 500> 44 75<500 600> 81 188<100 200 400 500 600 700> 156 38<500 600> 231 75<500 600> 269 112<-100 0> 306 38<400 500> 344 38<500 600>
LayerCount: 2
Back
Fore
SplineSet
194 500 m 29xa0c0
 231 500 l 29
 231 600 l 29
 194 600 l 29
 194 500 l 29xa0c0
119 500 m 25xa280
 156 500 l 25
 156 600 l 25
 119 600 l 25
 119 500 l 25xa280
-31 -100 m 25xd020
 -31 0 l 25xd020
 44 0 l 25
 44 100 l 1xc2
 81 100 l 1
 81 200 l 1xc1
 44 200 l 1xc2
 44 400 l 25
 81 400 l 25xc5
 81 500 l 25xa5
 44 500 l 25xc5
 44 600 l 25xa2
 81 600 l 25
 81 700 l 25xa1
 119 700 l 25
 119 800 l 25
 231 800 l 25
 231 700 l 25xa240
 269 700 l 25
 269 600 l 25xa1
 306 600 l 25xa040
 306 500 l 25xc040
 269 500 l 25xa1
 269 400 l 25
 306 400 l 25
 306 200 l 1
 269 200 l 1
 269 100 l 1
 306 100 l 1
 306 0 l 25xc110
 381 0 l 25
 381 -100 l 25
 269 -100 l 25
 269 0 l 25
 81 0 l 25
 81 -100 l 25
 -31 -100 l 25xd020
6 500 m 25xc8
 44 500 l 25
 44 400 l 25
 6 400 l 25xc4
 6 500 l 25xc8
-31 600 m 25xa8
 6 600 l 25xa8
 6 500 l 25xc8
 -31 500 l 25
 -31 600 l 25xa8
306 400 m 25xc010
 306 500 l 25xc040
 344 500 l 25
 344 400 l 25
 306 400 l 25xc010
344 500 m 25xc010
 344 600 l 25
 381 600 l 25
 381 500 l 25xa008
 344 500 l 25xc010
EndSplineSet
Validated: 5
EndChar

StartChar: uni2744
Encoding: 10052 10052 282
Width: 350
Flags: HMW
LayerCount: 2
Back
Fore
SplineSet
213 500 m 29
 250 500 l 25
 250 600 l 25
 213 600 l 25
 213 500 l 29
100 500 m 25
 137 500 l 25
 137 600 l 25
 100 600 l 25
 100 500 l 25
137 400 m 25
 137 300 l 25
 213 300 l 25
 213 400 l 25
 137 400 l 25
-163 -100 m 25
 -163 100 l 1
 -87 100 l 25
 -87 0 l 25
 -50 0 l 25
 -50 100 l 25
 -13 100 l 25
 -13 200 l 25
 63 200 l 25
 63 300 l 25
 -50 300 l 25
 -50 200 l 25
 -125 200 l 25
 -125 300 l 25
 -163 300 l 25
 -163 400 l 25
 -125 400 l 25
 -125 500 l 25
 -50 500 l 25
 -50 400 l 25
 63 400 l 25
 63 500 l 25
 -13 500 l 25
 -13 600 l 25
 -50 600 l 25
 -50 700 l 25
 -87 700 l 25
 -87 600 l 25
 -163 600 l 25
 -163 800 l 25
 -50 800 l 25
 -50 700 l 25
 25 700 l 25
 25 600 l 25
 100 600 l 25
 100 700 l 25
 137 700 l 25
 137 800 l 25
 213 800 l 25
 213 700 l 25
 250 700 l 25
 250 600 l 25
 325 600 l 25
 325 700 l 25
 400 700 l 25
 400 800 l 25
 513 800 l 25
 513 600 l 25
 437 600 l 25
 437 700 l 25
 400 700 l 25
 400 600 l 25
 363 600 l 25
 363 500 l 25
 287 500 l 25
 287 400 l 25
 400 400 l 25
 400 500 l 25
 475 500 l 25
 475 400 l 25
 513 400 l 25
 513 300 l 25
 475 300 l 25
 475 200 l 25
 400 200 l 25
 400 300 l 25
 287 300 l 25
 287 200 l 25
 363 200 l 25
 363 100 l 25
 400 100 l 25
 400 0 l 25
 437 0 l 25
 437 100 l 25
 513 100 l 25
 513 -100 l 25
 400 -100 l 25
 400 0 l 25
 325 0 l 25
 325 100 l 25
 250 100 l 25
 250 200 l 25
 213 200 l 25
 213 100 l 25
 250 100 l 25
 250 0 l 25
 213 0 l 25
 213 -100 l 25
 137 -100 l 25
 137 0 l 25
 100 0 l 25
 100 100 l 25
 137 100 l 25
 137 200 l 25
 100 200 l 25
 100 100 l 25
 25 100 l 25
 25 0 l 25
 -50 0 l 25
 -50 -100 l 1
 -163 -100 l 25
EndSplineSet
Validated: 5
EndChar

StartChar: uni26A0
Encoding: 9888 9888 283
Width: 350
Flags: HW
HStem: -100 100<-87 437> 100 100<137 213> 300 200<-13 25 137 213 325 363> 700 100<137 213>
VStem: -163 75<0 100> -125 75<100 200> -87 75<200 300> -50 75<300 400> -13 75<400 500> 25 75<500 600> 63 75<600 700> 137 75<100 200 300 500> 213 75<600 700> 250 75<500 600> 287 75<400 500> 325 75<300 400> 363 75<200 300> 400 75<100 200> 437 75<0 100>
LayerCount: 2
Back
Fore
SplineSet
137 100 m 29xf010
 137 200 l 25
 213 200 l 25
 213 100 l 25
 137 100 l 29xf010
137 300 m 25
 137 500 l 25
 213 500 l 25
 213 300 l 25
 137 300 l 25
137 600 m 25xf028
 100 600 l 25
 100 500 l 25xf040
 63 500 l 25
 63 400 l 25xf080
 25 400 l 25
 25 300 l 25xf1
 -13 300 l 25
 -13 200 l 25xf2
 -50 200 l 25
 -50 100 l 25xf4
 -87 100 l 25
 -87 0 l 25
 437 0 l 25
 437 100 l 25xf80020
 400 100 l 25
 400 200 l 25xf00040
 363 200 l 25
 363 300 l 25xf00080
 325 300 l 25
 325 400 l 25xf001
 287 400 l 25
 287 500 l 25xf002
 250 500 l 25
 250 600 l 25xf004
 213 600 l 25
 213 700 l 25
 137 700 l 25
 137 600 l 25xf028
-163 -100 m 25xf80020
 -163 100 l 1xf80020
 -125 100 l 25
 -125 200 l 25xf4
 -87 200 l 25
 -87 300 l 25xf2
 -50 300 l 25
 -50 400 l 25xf1
 -13 400 l 25
 -13 500 l 25xf080
 25 500 l 25
 25 600 l 25xf040
 63 600 l 25
 63 700 l 25xf020
 100 700 l 25
 100 800 l 25
 250 800 l 25
 250 700 l 25xf044
 287 700 l 25
 287 600 l 25xf008
 325 600 l 25
 325 500 l 25xf004
 363 500 l 25
 363 400 l 25xf002
 400 400 l 25
 400 300 l 25xf001
 437 300 l 25
 437 200 l 25xf00080
 475 200 l 25
 475 100 l 25xf00040
 513 100 l 25
 513 -100 l 1
 -163 -100 l 25xf80020
EndSplineSet
Validated: 1
EndChar

StartChar: u1F642
Encoding: 128578 128578 284
Width: 350
Flags: HW
HStem: -100 100<-13 363> 100 100<63 287> 200 100<-13 25 325 363> 500 100<25 100 250 325> 700 100<-13 363>
VStem: -125 75<100 600> -87 75<0 100 600 700> -13 75<200 300> 25 75<500 600> 250 75<500 600> 287 75<200 300> 363 75<0 100 600 700> 400 75<100 600>
LayerCount: 2
Back
Fore
SplineSet
250 500 m 25x9840
 250 600 l 25
 325 600 l 25
 325 500 l 25
 250 500 l 25x9840
25 500 m 25x9880
 25 600 l 25
 100 600 l 25
 100 500 l 25
 25 500 l 25x9880
-13 200 m 25xb9
 -13 300 l 1
 63 300 l 25xb9
 63 200 l 25
 287 200 l 25xd920
 287 300 l 25
 363 300 l 25
 363 200 l 25xb920
 325 200 l 25xb840
 325 100 l 25
 25 100 l 25xd8c0
 25 200 l 1xb8c0
 -13 200 l 25xb9
-13 0 m 25xda
 363 0 l 25
 363 100 l 25xda10
 400 100 l 25
 400 600 l 25xd808
 363 600 l 25
 363 700 l 25
 -13 700 l 25
 -13 600 l 25xda10
 -50 600 l 25
 -50 100 l 25xdc
 -13 100 l 25
 -13 0 l 25xda
-125 100 m 25xdc
 -125 600 l 25xdc
 -87 600 l 25
 -87 700 l 25xda
 -50 700 l 25
 -50 800 l 25
 400 800 l 25
 400 700 l 25xdc08
 437 700 l 25
 437 600 l 25xd810
 475 600 l 25
 475 100 l 25xd808
 437 100 l 25
 437 0 l 25xd810
 400 0 l 25
 400 -100 l 25
 -50 -100 l 25
 -50 0 l 25xdc08
 -87 0 l 25
 -87 100 l 25xda
 -125 100 l 25xdc
EndSplineSet
Validated: 1
EndChar

StartChar: u1F643
Encoding: 128579 128579 285
Width: 350
Flags: HW
HStem: -100 100<-13 363> 100 100<25 100 250 325> 400 100<-13 25 325 363> 500 100<63 287> 700 100<-13 363>
VStem: -125 75<100 600> -87 75<0 100 600 700> -13 75<400 500> 25 75<100 200> 250 75<100 200> 287 75<400 500> 363 75<0 100 600 700> 400 75<100 600>
LayerCount: 2
Back
Fore
SplineSet
-13 400 m 29xe920
 -13 500 l 25xe920
 25 500 l 25xe880
 25 600 l 25
 325 600 l 25xd8c0
 325 500 l 25xe8c0
 363 500 l 25
 363 400 l 25
 287 400 l 25xe820
 287 500 l 25
 63 500 l 25xd920
 63 400 l 25
 -13 400 l 29xe920
250 100 m 25xc840
 250 200 l 25
 325 200 l 25
 325 100 l 25
 250 100 l 25xc840
25 100 m 25xc880
 25 200 l 25
 100 200 l 25
 100 100 l 25
 25 100 l 25xc880
-13 0 m 25xda
 363 0 l 25
 363 100 l 25xda10
 400 100 l 25
 400 600 l 25xd808
 363 600 l 25
 363 700 l 25
 -13 700 l 25
 -13 600 l 25xda10
 -50 600 l 25
 -50 100 l 25xdc
 -13 100 l 25
 -13 0 l 25xda
-125 100 m 25xdc
 -125 600 l 25xdc
 -87 600 l 25
 -87 700 l 25xda
 -50 700 l 25
 -50 800 l 25
 400 800 l 25
 400 700 l 25xdc08
 437 700 l 25
 437 600 l 25xd810
 475 600 l 25
 475 100 l 25xd808
 437 100 l 25
 437 0 l 25xd810
 400 0 l 25
 400 -100 l 25
 -50 -100 l 25
 -50 0 l 25xdc08
 -87 0 l 25
 -87 100 l 25xda
 -125 100 l 25xdc
EndSplineSet
Validated: 1
EndChar

StartChar: u1F604
Encoding: 128516 128516 286
Width: 350
Flags: HW
HStem: -100 100<-13 363> 100 200<25 325> 200 100<-13 25 325 363> 400 100<-13 25 100 137 213 250 325 363> 500 100<25 100 250 325> 700 100<-13 363>
VStem: -125 75<100 600> -87 75<0 100 600 700> -13 38<400 500> 25 75<500 600> 100 38<400 500> 213 38<400 500> 250 75<500 600> 325 38<400 500> 363 75<0 100 600 700> 400 75<100 600>
LayerCount: 2
Back
Fore
SplineSet
25 100 m 29xc444
 25 200 l 29xa444
 -13 200 l 29
 -13 300 l 29
 363 300 l 29
 363 200 l 29xa482
 325 200 l 29xa404
 325 100 l 29
 25 100 l 29xc444
213 400 m 25x9410
 213 500 l 25
 250 500 l 25x9410
 250 600 l 25
 325 600 l 25x8c08
 325 500 l 25x9408
 363 500 l 25
 363 400 l 25
 325 400 l 25x9404
 325 500 l 25x9408
 250 500 l 25
 250 400 l 25
 213 400 l 25x9410
-13 400 m 25x9480
 -13 500 l 25
 25 500 l 25x9480
 25 600 l 25
 100 600 l 25x8c40
 100 500 l 25x9440
 137 500 l 25
 137 400 l 25
 100 400 l 25x9420
 100 500 l 25x9440
 25 500 l 25
 25 400 l 25
 -13 400 l 25x9480
-13 0 m 25xcd
 363 0 l 25
 363 100 l 25xcd02
 400 100 l 29
 400 600 l 25xcc01
 363 600 l 25
 363 700 l 25
 -13 700 l 25
 -13 600 l 25xcd02
 -50 600 l 25
 -50 100 l 25xce
 -13 100 l 25
 -13 0 l 25xcd
-125 100 m 25xce
 -125 600 l 25xce
 -87 600 l 25
 -87 700 l 25xcd
 -50 700 l 25
 -50 800 l 25
 400 800 l 25
 400 700 l 25xce01
 437 700 l 25
 437 600 l 25xcc02
 475 600 l 25
 475 100 l 25xcc01
 437 100 l 25
 437 0 l 25xcc02
 400 0 l 25
 400 -100 l 25
 -50 -100 l 25
 -50 0 l 25xce01
 -87 0 l 25
 -87 100 l 25xcd
 -125 100 l 25xce
EndSplineSet
Validated: 5
EndChar

StartChar: u1F606
Encoding: 128518 128518 287
Width: 350
Flags: HW
HStem: -100 100<-13 363> 100 200<25 325> 200 100<-13 25 325 363> 400 100<63 175 325 363> 500 100<-13 25 175 287> 700 100<-13 363>
VStem: -125 75<100 600> -87 75<0 100 600 700> -13 75<500 600> 287 75<400 500> 363 75<0 100 600 700> 400 75<100 600>
LayerCount: 2
Back
Fore
SplineSet
-13 600 m 29x8d
 63 600 l 25x8c80
 63 500 l 25
 175 500 l 25x9480
 175 600 l 25
 325 600 l 25x8c80
 325 500 l 25
 363 500 l 25
 363 400 l 25
 287 400 l 25x94c0
 287 500 l 25x8cc0
 175 500 l 25
 175 400 l 25
 25 400 l 25x94c0
 25 500 l 25
 -13 500 l 25x8cc0
 -13 600 l 29x8d
25 100 m 25xc4a0
 25 200 l 25
 -13 200 l 25
 -13 300 l 25
 363 300 l 25
 363 200 l 25
 325 200 l 25xa4a0
 325 100 l 25
 25 100 l 25xc4a0
400 100 m 1049xc410
-13 0 m 25xcd
 363 0 l 25
 363 100 l 25xcd20
 400 100 l 25
 400 600 l 25xcc10
 363 600 l 25
 363 700 l 25
 -13 700 l 25
 -13 600 l 25xcd20
 -50 600 l 25
 -50 100 l 25xce
 -13 100 l 25
 -13 0 l 25xcd
-125 100 m 25xce
 -125 600 l 25xce
 -87 600 l 25
 -87 700 l 25xcd
 -50 700 l 25
 -50 800 l 25
 400 800 l 25
 400 700 l 25xce10
 437 700 l 25
 437 600 l 25xcc20
 475 600 l 25
 475 100 l 25xcc10
 437 100 l 25
 437 0 l 25xcc20
 400 0 l 25
 400 -100 l 25
 -50 -100 l 25
 -50 0 l 25xce10
 -87 0 l 25
 -87 100 l 25xcd
 -125 100 l 25xce
EndSplineSet
Validated: 5
EndChar

StartChar: u1F60E
Encoding: 128526 128526 288
Width: 350
Flags: HW
HStem: -100 100<-13 363> 100 100<63 287> 200 100<-13 25 325 363> 400 100<-13 25 325 363> 500 100<137 213> 700 100<-13 363>
VStem: -125 75<100 500> -87 75<0 100 600 700> -13 75<200 300> 287 75<200 300> 363 75<0 100 600 700> 400 75<100 500>
LayerCount: 2
Back
Fore
SplineSet
-13 200 m 29xa4c0
 -13 300 l 5
 63 300 l 29xa4c0
 63 200 l 29
 287 200 l 29xc4c0
 287 300 l 29
 363 300 l 29
 363 200 l 29
 325 200 l 29xa4c0
 325 100 l 29
 25 100 l 29xc4c0
 25 200 l 5
 -13 200 l 29xa4c0
-13 400 m 1x94a0
 -13 500 l 25
 25 500 l 25x94a0
 25 600 l 25
 325 600 l 25x8ca0
 325 500 l 25
 363 500 l 25
 363 400 l 25
 213 400 l 25x94a0
 213 500 l 25
 137 500 l 1x8ca0
 137 400 l 25
 -13 400 l 1x94a0
-13 0 m 25xcd
 363 0 l 25
 363 100 l 25xcd20
 400 100 l 1
 400 500 l 1xcc10
 363 500 l 1
 363 700 l 1
 -13 700 l 1x9520
 -13 500 l 1x9480
 -50 500 l 1
 -50 100 l 1xce80
 -13 100 l 25
 -13 0 l 25xcd
-125 100 m 25xce
 -125 600 l 25xce
 -87 600 l 25
 -87 700 l 25xcd
 -50 700 l 25
 -50 800 l 25
 400 800 l 25
 400 700 l 25xce10
 437 700 l 25
 437 600 l 25xcc20
 475 600 l 25
 475 100 l 25xcc10
 437 100 l 25
 437 0 l 25xcc20
 400 0 l 25
 400 -100 l 25
 -50 -100 l 25
 -50 0 l 25xce10
 -87 0 l 25
 -87 100 l 25xcd
 -125 100 l 25xce
EndSplineSet
Validated: 5
EndChar

StartChar: u1F621
Encoding: 128545 128545 289
Width: 350
Flags: HW
HStem: -100 100<-13 363> 100 100<25 63 287 325> 200 100<100 250> 400 100<100 137 213 250> 500 100<-13 63 287 363> 700 100<-13 363>
VStem: -125 75<100 600> -87 75<0 100 600 700> -13 112<500 600> 25 75<100 200> 63 75<400 500> 213 75<400 500> 250 112<500 600> 250 75<101 200> 363 75<0 100 600 700> 400 75<100 600>
LayerCount: 2
Back
Fore
SplineSet
25 100 m 25xc444
 25 200 l 25xc444
 63 200 l 25xc420
 63 300 l 25
 287 300 l 25xa430
 287 200 l 25xc430
 325 200 l 25
 325 101 l 25
 250 100 l 25xc404
 250 200 l 25
 100 200 l 25xa444
 100 100 l 25
 25 100 l 25xc444
213 400 m 5x9410
 213 500 l 29x9410
 250 500 l 29x9408
 250 600 l 5
 363 600 l 1
 363 500 l 5x8c08
 287 500 l 5x8c10
 287 400 l 29
 213 400 l 5x9410
63 400 m 29x9420
 63 500 l 5x8c20
 -13 500 l 5x8c80
 -13 600 l 1x8d
 100 600 l 5x8c80
 100 500 l 29x9480
 137 500 l 29
 137 400 l 29
 63 400 l 29x9420
-13 0 m 25xcd
 363 0 l 25
 363 100 l 25xcd02
 400 100 l 25
 400 600 l 25
 363 600 l 29xcc09
 363 700 l 25
 -13 700 l 25
 -13 600 l 29xcd02
 -50 600 l 25
 -50 100 l 25xce
 -13 100 l 25
 -13 0 l 25xcd
-125 100 m 25xce
 -125 600 l 25xce
 -87 600 l 25
 -87 700 l 25xcd
 -50 700 l 25
 -50 800 l 25
 400 800 l 25
 400 700 l 25xce01
 437 700 l 25
 437 600 l 25xcc02
 475 600 l 25
 475 100 l 25xcc01
 437 100 l 25
 437 0 l 25xcc02
 400 0 l 25
 400 -100 l 25
 -50 -100 l 25
 -50 0 l 25xce01
 -87 0 l 25
 -87 100 l 25xcd
 -125 100 l 25xce
EndSplineSet
Validated: 5
EndChar

StartChar: u1F620
Encoding: 128544 128544 290
Width: 350
Flags: HW
HStem: -100 100<-13 363> 100 100<25 63 287 325> 200 100<100 250> 400 100<100 137 213 250> 500 100<25 63 287 325> 700 100<-13 363>
VStem: -125 75<100 600> -87 75<0 100 600 700> 25 75<100 200 500 600> 63 75<400 500> 213 75<400 500> 250 75<101 200 500 600> 363 75<0 100 600 700> 400 75<100 600>
LayerCount: 2
Back
Fore
SplineSet
213 400 m 1x9420
 213 500 l 25x9420
 250 500 l 25x9410
 250 600 l 25
 325 600 l 25
 325 500 l 25x8c10
 287 500 l 1x8c20
 287 400 l 25
 213 400 l 1x9420
63 400 m 25x9440
 63 500 l 25x8c40
 25 500 l 25
 25 600 l 25
 100 600 l 25x8c80
 100 500 l 25x9480
 137 500 l 25
 137 400 l 25
 63 400 l 25x9440
25 100 m 29xc490
 25 200 l 29xc490
 63 200 l 29xc440
 63 300 l 29
 287 300 l 29xa460
 287 200 l 29xc460
 325 200 l 29
 325 101 l 29
 250 100 l 29xc410
 250 200 l 29
 100 200 l 29xa490
 100 100 l 29
 25 100 l 29xc490
-13 0 m 25xcd
 363 0 l 25
 363 100 l 25xcd08
 400 100 l 25
 400 600 l 25xcc04
 363 600 l 25
 363 700 l 25
 -13 700 l 25
 -13 600 l 25xcd08
 -50 600 l 25
 -50 100 l 25xce
 -13 100 l 25
 -13 0 l 25xcd
-125 100 m 25xce
 -125 600 l 25xce
 -87 600 l 25
 -87 700 l 25xcd
 -50 700 l 25
 -50 800 l 25
 400 800 l 25
 400 700 l 25xce04
 437 700 l 25
 437 600 l 25xcc08
 475 600 l 25
 475 100 l 25xcc04
 437 100 l 25
 437 0 l 25xcc08
 400 0 l 25
 400 -100 l 25
 -50 -100 l 25
 -50 0 l 25xce04
 -87 0 l 25
 -87 100 l 25xcd
 -125 100 l 25xce
EndSplineSet
Validated: 1
EndChar

StartChar: u1F62D
Encoding: 128557 128557 291
Width: 350
Flags: HW
HStem: -100 100<-13 363> 100 200<63 287> 300 100<-13 25 325 363> 480 20G<25 63 287 325> 500 100<63 137 213 287> 700 100<-13 363>
VStem: -125 75<100 600> -87 75<0 100 600 700> -13 75<300 400> 25 38<400 500> 63 75<500 600> 213 75<500 600> 287 75<300 400> 287 38<400 500> 363 75<0 100 600 700> 400 75<100 600>
LayerCount: 2
Back
Fore
SplineSet
63 100 m 29xc424
 63 300 l 25
 287 300 l 25xc488
 287 100 l 25
 63 100 l 29xc424
287 300 m 25
 287 500 l 25xd410
 325 500 l 25
 325 400 l 25xb404
 363 400 l 25
 363 300 l 25xb408
 287 300 l 25
-13 300 m 25xa480
 -13 400 l 25xa480
 25 400 l 25
 25 500 l 25
 63 500 l 25xb440
 63 300 l 25xd480
 -13 300 l 25xa480
213 500 m 25x8c10
 213 600 l 25
 287 600 l 25x8c10
 287 500 l 25x9410
 213 500 l 25x8c10
63 500 m 25x9440
 63 600 l 25
 137 600 l 25
 137 500 l 25x8c20
 63 500 l 25x9440
-13 0 m 25xcd
 363 0 l 25
 363 100 l 25xcd02
 400 100 l 25
 400 600 l 25xcc01
 363 600 l 25
 363 700 l 25
 -13 700 l 25
 -13 600 l 25xcd02
 -50 600 l 25
 -50 100 l 25xce
 -13 100 l 25
 -13 0 l 25xcd
-125 100 m 25xce
 -125 600 l 25xce
 -87 600 l 25
 -87 700 l 25xcd
 -50 700 l 25
 -50 800 l 25
 400 800 l 25
 400 700 l 25xce01
 437 700 l 25
 437 600 l 25xcc02
 475 600 l 25
 475 100 l 25xcc01
 437 100 l 25
 437 0 l 25xcc02
 400 0 l 25
 400 -100 l 25
 -50 -100 l 25
 -50 0 l 25xce01
 -87 0 l 25
 -87 100 l 25xcd
 -125 100 l 25xce
EndSplineSet
Validated: 5
EndChar

StartChar: u1F50C
Encoding: 128268 128268 292
Width: 350
Flags: HW
VStem: 44 75<600 800> 119 112<150 300> 231 75<600 800>
LayerCount: 2
Back
Fore
SplineSet
6 400 m 29x40
 6 600 l 25
 44 600 l 25
 44 800 l 25
 119 800 l 25
 119 600 l 25
 231 600 l 25
 231 800 l 25
 306 800 l 25
 306 600 l 25xa0
 344 600 l 25
 344 400 l 25
 269 400 l 25
 269 300 l 25
 231 300 l 25
 231 150 l 25
 194 150 l 25
 194 -100 l 25
 156 -100 l 25
 156 150 l 25
 119 150 l 25
 119 300 l 25
 81 300 l 25
 81 400 l 25
 6 400 l 29x40
EndSplineSet
Validated: 1
EndChar

StartChar: u1F4FA
Encoding: 128250 128250 293
Width: 350
Flags: HW
HStem: -100 200<-13 363> 500 100<-13 100 250 363> 700 100<25 100 250 325>
VStem: -87 75<100 500> 25 75<700 800> 250 75<700 800> 363 75<100 500>
LayerCount: 2
Back
Fore
SplineSet
-13 100 m 29
 363 100 l 25
 363 500 l 25
 -13 500 l 25
 -13 100 l 29
-87 -100 m 25
 -87 600 l 25
 100 600 l 25
 100 700 l 25
 25 700 l 25
 25 800 l 25
 100 800 l 25
 100 700 l 25
 250 700 l 25
 250 800 l 25
 325 800 l 25
 325 700 l 25
 250 700 l 25
 250 600 l 25
 437 600 l 25
 437 -100 l 25
 -87 -100 l 25
EndSplineSet
Validated: 5
EndChar

StartChar: u1F4FB
Encoding: 128251 128251 294
Width: 350
Flags: HW
HStem: -100 100<-13 363> 150 100<213 250> 200 100<325 363> 300 100<-13 287> 700 100<400 437>
VStem: -87 75<0 300> 25 75<50 250> 213 38<150 250> 363 75<0 200 300 500 700 800> 363 38<500 700>
LayerCount: 2
Back
Fore
SplineSet
213 150 m 29xcf
 213 250 l 25
 250 250 l 25
 250 150 l 25
 213 150 l 29xcf
25 50 m 25
 25 250 l 25
 100 250 l 25
 100 50 l 25
 25 50 l 25
-13 0 m 25
 363 0 l 25
 363 200 l 25
 287 200 l 25xaf80
 287 300 l 25
 -13 300 l 25x9f80
 -13 0 l 25
-87 -100 m 25
 -87 300 l 25
 -50 300 l 25
 -50 400 l 25
 325 400 l 25x9f80
 325 300 l 25
 363 300 l 25
 363 800 l 25
 437 800 l 25
 437 700 l 25xaf80
 400 700 l 25
 400 500 l 25xaf40
 437 500 l 25
 437 -100 l 25
 -87 -100 l 25
EndSplineSet
Validated: 1
EndChar

StartChar: u1F4FC
Encoding: 128252 128252 295
Width: 350
Flags: HW
HStem: 0 100<-50 400> 150 100<63 137 213 287> 250 100<-13 25 325 363> 350 100<63 137 213 287> 500 100<-50 400>
VStem: -125 75<100 500> -13 75<250 350> 137 75<250 350> 287 75<250 350> 400 75<100 500>
LayerCount: 2
Back
Fore
SplineSet
63 250 m 29xdfc0
 137 250 l 25
 137 350 l 25
 63 350 l 25
 63 250 l 29xdfc0
213 250 m 25
 287 250 l 25
 287 350 l 25
 213 350 l 25
 213 250 l 25
25 150 m 25
 25 250 l 25
 -13 250 l 25
 -13 350 l 25
 25 350 l 25xafc0
 25 450 l 25
 325 450 l 25x9fc0
 325 350 l 25
 363 350 l 25
 363 250 l 25
 325 250 l 25xafc0
 325 150 l 25
 25 150 l 25
-50 100 m 25
 400 100 l 25
 400 500 l 25
 -50 500 l 25
 -50 100 l 25
-125 0 m 25
 -125 600 l 25
 475 600 l 25
 475 0 l 25
 -125 0 l 25
EndSplineSet
Validated: 1
EndChar

StartChar: u1F508
Encoding: 128264 128264 296
Width: 350
Flags: HW
HStem: -100 100<287 325> 0 100<213 250> 100 100<137 175> 200 100<25 63> 400 100<25 63> 500 100<137 175> 600 100<213 250> 700 100<287 325>
VStem: -50 188<200 300 400 500> -50 75<300 400> 100 112<100 200 500 600> 175 112<0 100 600 700> 250 150<-100 0 700 800> 325 75<0 700>
LayerCount: 2
Back
Fore
SplineSet
137 200 m 29x2480
 213 200 l 29
 213 100 l 29x5020
 287 100 l 29
 287 0 l 29
 325 0 l 29
 325 700 l 29
 287 700 l 29xa114
 287 600 l 29x0214
 213 600 l 29x0220
 213 500 l 29x0420
 137 500 l 29
 137 200 l 29x2480
25 300 m 29x1840
 63 300 l 29
 63 400 l 29
 25 400 l 29
 25 300 l 29x1840
-50 200 m 29x1080
 -50 500 l 29x1480
 100 500 l 29x1420
 100 600 l 29x0220
 175 600 l 29
 175 700 l 29x0510
 250 700 l 29x0208
 250 800 l 29
 400 800 l 29
 400 -100 l 29
 250 -100 l 29x8108
 250 0 l 29x4008
 175 0 l 29x4010
 175 100 l 29x2010
 100 100 l 29x2020
 100 200 l 29x1020
 -50 200 l 29x1080
EndSplineSet
Validated: 1
EndChar

StartChar: u1F507
Encoding: 128263 128263 297
Width: 350
Flags: HW
HStem: -100 100<287 325> 0 100<175 250> 200 100<25 63 100 137 250 287> 400 100<25 63 100 137 250 287> 600 100<175 250> 700 100<287 325>
VStem: -50 112<200 300 400 500> -50 75<300 400> 100 75<200 300 400 500> 175 112<0 100 600 700> 213 75<200 300 400 500> 250 150<-100 0 700 800> 325 75<0 700>
LayerCount: 2
Back
Fore
SplineSet
175 600 m 29x3848
 175 700 l 25x3848
 250 700 l 25x3810
 250 800 l 25
 400 800 l 25
 400 -100 l 25
 250 -100 l 25xb410
 250 0 l 25x7010
 175 0 l 25
 175 100 l 25
 287 100 l 25x7040
 287 0 l 25
 325 0 l 25
 325 700 l 25
 287 700 l 25xb448
 287 600 l 25
 175 600 l 29x3848
100 200 m 25x30a0
 100 300 l 25
 137 300 l 25
 137 400 l 25
 100 400 l 25
 100 500 l 25
 175 500 l 25
 175 400 l 25
 213 400 l 25
 213 500 l 25
 287 500 l 25
 287 400 l 25x30a0
 250 400 l 25
 250 300 l 25x3010
 287 300 l 25
 287 200 l 25
 213 200 l 25
 213 300 l 25
 175 300 l 25
 175 200 l 25
 100 200 l 25x30a0
-50 200 m 25x32
 -50 500 l 25
 63 500 l 25
 63 400 l 25x32
 25 400 l 25
 25 300 l 25x31
 63 300 l 25
 63 200 l 25
 -50 200 l 25x32
EndSplineSet
Validated: 1
EndChar

StartChar: u1F509
Encoding: 128265 128265 298
Width: 350
Flags: HW
HStem: -100 100<213 250> 0 100<137 175> 100 100<63 100> 150 100<363 400> 200 100<-50 -13> 400 100<-50 -13> 450 100<363 400> 500 100<63 100> 600 100<137 175> 700 100<213 250>
VStem: -125 188<200 300 400 500> -125 75<300 400> 25 112<100 200 500 600> 100 112<0 100 600 700> 175 150<-100 0 700 800> 250 75<0 700> 363 75<150 250 450 550> 400 75<250 450>
LayerCount: 2
Back
Fore
SplineSet
363 550 m 29x120080
 437 550 l 29
 437 450 l 29x120080
 475 450 l 29
 475 250 l 29x120040
 437 250 l 29
 437 150 l 29
 363 150 l 29
 363 250 l 29x120080
 400 250 l 29
 400 450 l 29x120040
 363 450 l 29
 363 550 l 29x120080
63 200 m 25x2120
 137 200 l 25
 137 100 l 25x4808
 213 100 l 25
 213 0 l 25
 250 0 l 25
 250 700 l 25
 213 700 l 25xa045
 213 600 l 25x0085
 137 600 l 25x0088
 137 500 l 25x0108
 63 500 l 25
 63 200 l 25x2120
-50 300 m 25x0c10
 -13 300 l 25
 -13 400 l 25
 -50 400 l 25
 -50 300 l 25x0c10
-125 200 m 25x0820
 -125 500 l 25x0920
 25 500 l 25x0908
 25 600 l 25x0088
 100 600 l 25
 100 700 l 25x0144
 175 700 l 25x0082
 175 800 l 25
 325 800 l 25
 325 -100 l 25
 175 -100 l 25x8042
 175 0 l 25x4002
 100 0 l 25x4004
 100 100 l 25x2004
 25 100 l 25x2008
 25 200 l 25x0808
 -125 200 l 25x0820
EndSplineSet
Validated: 1
EndChar

StartChar: u1F50A
Encoding: 128266 128266 299
Width: 350
Flags: HW
HStem: -100 100<137 175> 0 100<63 100> 50 100<400 437> 100 100<-13 25> 150 100<287 325> 200 100<-125 -87> 400 100<-125 -87> 450 100<287 325> 500 100<-13 25> 550 100<400 437> 600 100<63 100> 700 100<137 175>
VStem: -200 188<200 300 400 500> -200 75<300 400> -50 112<100 200 500 600> 25 112<0 100 600 700> 100 150<-100 0 700 800> 175 75<0 700> 287 75<150 250 450 550> 325 75<250 450> 400 75<50 150 550 650> 437 75<150 250 450 550> 475 75<250 450>
LayerCount: 2
Back
Fore
SplineSet
400 550 m 29x004008
 400 650 l 25
 475 650 l 25
 475 550 l 25x004008
 513 550 l 25x004004
 513 450 l 25x010004
 550 450 l 25
 550 250 l 25x090002
 513 250 l 25
 513 150 l 25x090004
 475 150 l 25x090008
 475 50 l 25
 400 50 l 25
 400 150 l 25x200008
 437 150 l 25x200004
 437 250 l 25x080004
 475 250 l 25
 475 450 l 25x090002
 437 450 l 25x090004
 437 550 l 25x004004
 400 550 l 29x004008
287 550 m 25x090020
 363 550 l 25x004020
 363 450 l 25x010020
 400 450 l 25
 400 250 l 25x090010
 363 250 l 25
 363 150 l 25
 287 150 l 25
 287 250 l 25x090020
 325 250 l 25
 325 450 l 25x090010
 287 450 l 25
 287 550 l 25x090020
-13 200 m 25x1088
 63 200 l 25
 63 100 l 25x4402
 137 100 l 25
 137 0 l 25
 175 0 l 25
 175 700 l 25
 137 700 l 25x901140
 137 600 l 25x002140
 63 600 l 25x0022
 63 500 l 25x0082
 -13 500 l 25
 -13 200 l 25x1088
-125 300 m 25x0604
 -87 300 l 25
 -87 400 l 25
 -125 400 l 25
 -125 300 l 25x0604
-200 200 m 25x0408
 -200 500 l 25x0488
 -50 500 l 25x0482
 -50 600 l 25x0022
 25 600 l 25
 25 700 l 25x0091
 100 700 l 25x002080
 100 800 l 25
 250 800 l 25
 250 -100 l 25
 100 -100 l 25x801080
 100 0 l 25x400080
 25 0 l 25x4001
 25 100 l 25x1001
 -50 100 l 25x1002
 -50 200 l 25x0402
 -200 200 l 25x0408
EndSplineSet
Validated: 1
EndChar

StartChar: u1F50B
Encoding: 128267 128267 300
Width: 350
Flags: HW
HStem: -100 100<63 287> 100 300<63 137 213 287>
VStem: -13 150<300 400 500 600> -13 75<0 100 400 500> 213 150<300 400 500 600> 287 75<0 100 400 500>
LayerCount: 2
Back
Fore
SplineSet
137 300 m 25xe0
 213 300 l 25
 213 400 l 25xe8
 287 400 l 25
 287 500 l 25xc4
 213 500 l 25
 213 600 l 25
 137 600 l 25
 137 500 l 25xe8
 63 500 l 25
 63 400 l 25xd0
 137 400 l 25
 137 300 l 25xe0
63 0 m 1xd4
 287 0 l 25
 287 100 l 1
 63 100 l 29
 63 0 l 1xd4
-13 -100 m 25
 -13 700 l 25
 100 700 l 25
 100 800 l 25
 250 800 l 25
 250 700 l 25
 363 700 l 25
 363 -100 l 25
 -13 -100 l 25
EndSplineSet
Validated: 1
EndChar

StartChar: u1F50D
Encoding: 128269 128269 301
Width: 350
Flags: HW
HStem: 200 100<81 231> 700 100<81 231>
VStem: -31 75<400 600> 6 75<300 400 600 700> 231 75<300 400 600 700> 269 75<400 600> 306 75<-100 0>
LayerCount: 2
Back
Fore
SplineSet
81 300 m 29xd0
 231 300 l 25
 231 400 l 25xd8
 269 400 l 25
 269 600 l 25xc4
 231 600 l 25
 231 700 l 25
 81 700 l 25
 81 600 l 25xd8
 44 600 l 25
 44 400 l 25xe0
 81 400 l 25
 81 300 l 29xd0
-31 400 m 25xe0
 -31 600 l 25xe0
 6 600 l 25
 6 700 l 25xd0
 44 700 l 25
 44 800 l 25
 269 800 l 25
 269 700 l 25xe4
 306 700 l 25
 306 600 l 25xc8
 344 600 l 25
 344 400 l 25xc4
 306 400 l 25xc8
 306 200 l 25xc2
 344 200 l 25
 344 100 l 25xc4
 381 100 l 25
 381 -100 l 25
 306 -100 l 25
 306 0 l 25xc2
 269 0 l 25
 269 100 l 25xc4
 231 100 l 25
 231 200 l 25
 44 200 l 25
 44 300 l 25xe8
 6 300 l 25
 6 400 l 25xd0
 -31 400 l 25xe0
EndSplineSet
Validated: 1
EndChar

StartChar: u1F50E
Encoding: 128270 128270 302
Width: 350
Flags: HW
HStem: 200 100<137 250> 700 100<100 250>
VStem: -13 75<-100 0 400 600> 25 112<100 200> 25 75<300 400 600 700> 63 225<200 300 700 800> 250 75<300 400 600 700> 287 75<400 600>
LayerCount: 2
Back
Fore
SplineSet
100 300 m 29xc8
 250 300 l 25
 250 400 l 25xca
 287 400 l 25
 287 600 l 25xc1
 250 600 l 25
 250 700 l 25
 100 700 l 25
 100 600 l 25xca
 63 600 l 25
 63 400 l 25xe0
 100 400 l 25
 100 300 l 29xc8
-13 400 m 25xe0
 -13 600 l 25xe0
 25 600 l 25
 25 700 l 25xc8
 63 700 l 25
 63 800 l 25
 287 800 l 25
 287 700 l 25xc4
 325 700 l 25
 325 600 l 25xc2
 363 600 l 25
 363 400 l 25xc1
 325 400 l 25
 325 300 l 25xc2
 287 300 l 25
 287 200 l 25xc4
 137 200 l 25
 137 100 l 25xd0
 100 100 l 25
 100 0 l 25xc8
 63 0 l 25
 63 -100 l 25
 -13 -100 l 25
 -13 100 l 25xe0
 25 100 l 25
 25 200 l 25xd0
 63 200 l 25
 63 300 l 25xc4
 25 300 l 25
 25 400 l 25xc8
 -13 400 l 25xe0
EndSplineSet
Validated: 1
EndChar

StartChar: u1F512
Encoding: 128274 128274 303
Width: 350
Flags: HW
HStem: 0 100<137 213> 400 100<100 250> 700 100<100 250>
VStem: -13 150<100 300> -13 75<500 600> 25 75<600 700> 213 150<100 300> 250 75<600 700> 287 75<500 600>
LayerCount: 2
Back
Fore
SplineSet
287 500 m 25xe880
 287 600 l 25xe880
 250 600 l 25
 250 700 l 25
 100 700 l 25
 100 600 l 25xe5
 63 600 l 25
 63 500 l 25
 287 500 l 25xe880
137 100 m 29xf0
 213 100 l 29
 213 300 l 29xf2
 250 300 l 29
 250 400 l 29
 100 400 l 29
 100 300 l 29xe5
 137 300 l 29
 137 100 l 29xf0
-13 0 m 25xe880
 -13 600 l 25xe880
 25 600 l 25
 25 700 l 25xe4
 63 700 l 25
 63 800 l 25
 287 800 l 25
 287 700 l 25xe880
 325 700 l 25
 325 600 l 25xe1
 363 600 l 25
 363 0 l 25
 -13 0 l 25xe880
EndSplineSet
Validated: 1
EndChar

StartChar: u1F513
Encoding: 128275 128275 304
Width: 350
Flags: HW
HStem: 0 100<137 213> 400 100<100 250> 600 100<287 325> 700 100<100 250>
VStem: -13 150<100 300> -13 75<500 600> 25 75<600 700> 213 150<100 300> 250 112<300 400> 250 75<600 700>
LayerCount: 2
Back
Fore
SplineSet
137 100 m 29xc8
 213 100 l 29
 213 300 l 29xc9
 250 300 l 29
 250 400 l 29
 100 400 l 29
 100 300 l 29xc280
 137 300 l 29
 137 100 l 29xc8
250 600 m 25xe440
 250 700 l 25
 100 700 l 25xd240
 100 600 l 25xe240
 63 600 l 25
 63 500 l 25
 363 500 l 25
 363 0 l 25
 -13 0 l 25
 -13 600 l 25xe480
 25 600 l 25xe2
 25 700 l 25xd2
 63 700 l 25
 63 800 l 25
 287 800 l 25xd4
 287 700 l 25
 325 700 l 25
 325 600 l 25
 250 600 l 25xe440
EndSplineSet
Validated: 1
EndChar

StartChar: u1F514
Encoding: 128276 128276 305
Width: 350
Flags: HW
HStem: -100 100<156 194>
VStem: 81 75<0 100> 119 112<-100 0 700 800> 194 75<0 100>
LayerCount: 2
Back
Fore
SplineSet
156 0 m 29xd0
 194 0 l 25
 194 100 l 25
 156 100 l 25
 156 0 l 29xd0
-69 100 m 25
 -69 300 l 25
 -31 300 l 25
 -31 500 l 25
 6 500 l 25
 6 600 l 25
 44 600 l 25
 44 700 l 25
 119 700 l 25
 119 800 l 25
 231 800 l 25
 231 700 l 25xa0
 306 700 l 25
 306 600 l 25
 344 600 l 25
 344 500 l 25
 381 500 l 25
 381 300 l 25
 419 300 l 25
 419 100 l 25
 269 100 l 25
 269 0 l 25x90
 231 0 l 25
 231 -100 l 25
 119 -100 l 25
 119 0 l 25xa0
 81 0 l 25
 81 100 l 25
 -69 100 l 25
EndSplineSet
Validated: 1
EndChar

StartChar: u1F515
Encoding: 128277 128277 306
Width: 350
Flags: HW
HStem: 0 100<81 119 231 269> 100 100<6 44 156 194 306 344> 200 100<81 119 231 269> 600 200<119 231> 600 100<81 119 231 269>
VStem: -69 75<200 300> -31 75<300 500> 6 75<500 600> 81 75<0 100 200 300> 119 112<100 200 700 800> 194 75<0 100 200 300> 269 75<500 600> 306 75<300 500> 344 75<200 300>
LayerCount: 2
Back
Fore
SplineSet
81 0 m 29x80a0
 81 100 l 25x80a0
 119 100 l 25
 119 200 l 25xa040
 81 200 l 25
 81 300 l 25
 156 300 l 25xa080
 156 200 l 25
 194 200 l 25x40a0
 194 300 l 25
 269 300 l 25
 269 200 l 25x20a0
 231 200 l 25
 231 100 l 25xa040
 269 100 l 25
 269 0 l 25
 194 0 l 25xa020
 194 100 l 25
 156 100 l 25x40a0
 156 0 l 25
 81 0 l 29x80a0
119 700 m 25x2a40
 119 800 l 25
 231 800 l 25x1240
 231 700 l 25
 306 700 l 25
 306 600 l 25x0a48
 344 600 l 25
 344 500 l 25x0810
 381 500 l 25
 381 300 l 25x2808
 419 300 l 25x2804
 419 100 l 25x4004
 306 100 l 25
 306 200 l 25x4008
 344 200 l 25x4004
 344 300 l 25x2004
 306 300 l 25
 306 500 l 25x2008
 269 500 l 25
 269 600 l 25
 81 600 l 25
 81 500 l 25x2910
 44 500 l 25
 44 300 l 25x2a
 6 300 l 25x2c
 6 200 l 25x44
 44 200 l 25
 44 100 l 25x42
 -69 100 l 25x44
 -69 300 l 25x24
 -31 300 l 25
 -31 500 l 25x22
 6 500 l 25
 6 600 l 25x29
 44 600 l 25
 44 700 l 25
 119 700 l 25x2a40
EndSplineSet
Validated: 1
EndChar

StartChar: u1F517
Encoding: 128279 128279 307
Width: 350
Flags: HW
HStem: -100 100<137 400> 200 100<-50 63> 400 100<287 400> 700 100<-50 213>
VStem: -125 75<300 700> 63 75<0 200> 213 75<500 700> 400 75<0 400>
LayerCount: 2
Back
Fore
SplineSet
287 400 m 29
 287 300 l 25
 250 300 l 25
 250 200 l 25
 137 200 l 25
 137 0 l 25
 400 0 l 25
 400 400 l 25
 287 400 l 29
-50 700 m 25
 -50 300 l 25
 63 300 l 25
 63 400 l 25
 100 400 l 25
 100 500 l 25
 213 500 l 25
 213 700 l 25
 -50 700 l 25
-87 700 m 25
 -87 800 l 25
 250 800 l 25
 250 700 l 25
 287 700 l 25
 287 500 l 25
 437 500 l 25
 437 400 l 25
 475 400 l 25
 475 0 l 25
 437 0 l 25
 437 -100 l 25
 100 -100 l 25
 100 0 l 25
 63 0 l 25
 63 200 l 25
 -87 200 l 25
 -87 300 l 25
 -125 300 l 25
 -125 700 l 25
 -87 700 l 25
EndSplineSet
Validated: 1
EndChar

StartChar: u1F51E
Encoding: 128286 128286 308
Width: 350
Flags: HW
HStem: 0 100<137 175> 100 100<63 100 213 250> 200 100<137 175 287 325 363 400> 300 100<63 100 213 250> 400 100<137 175>
VStem: -50 75<0 400> -13 38<400 500> 63 75<100 200 300 400> 100 112<0 100 200 300 400 500> 175 75<100 200 300 400> 287 112<200 300> 325 38<100 200 300 400>
LayerCount: 2
Back
Fore
SplineSet
325 100 m 29x4010
 325 200 l 25x2010
 287 200 l 25
 287 300 l 25x2020
 325 300 l 25
 325 400 l 25
 363 400 l 25
 363 300 l 25x2810
 400 300 l 25
 400 200 l 25x2820
 363 200 l 25x2810
 363 100 l 25
 325 100 l 29x4010
137 300 m 25x2940
 175 300 l 25
 175 400 l 25
 137 400 l 25
 137 300 l 25x2940
137 100 m 25xa140
 175 100 l 25
 175 200 l 25
 137 200 l 25
 137 100 l 25xa140
100 0 m 25x8080
 100 100 l 25x4080
 63 100 l 25
 63 200 l 25x41
 100 200 l 25
 100 300 l 25x5080
 63 300 l 25
 63 400 l 25x51
 100 400 l 25x5080
 100 500 l 25
 213 500 l 25x0880
 213 400 l 25x1080
 250 400 l 25
 250 300 l 25x1040
 213 300 l 25
 213 200 l 25x5080
 250 200 l 25
 250 100 l 25x5040
 213 100 l 25x5080
 213 0 l 25
 100 0 l 25x8080
-50 0 m 25x8c
 -50 400 l 25x8c
 -13 400 l 25
 -13 500 l 25
 25 500 l 25x8a
 25 0 l 25
 -50 0 l 25x8c
EndSplineSet
Validated: 1
EndChar

StartChar: u1F520
Encoding: 128288 128288 309
Width: 350
Flags: HW
HStem: -100 100<44 156 269 306> 200 100<44 156 269 306> 400 100<344 381> 600 100<344 381>
VStem: -31 75<0 200 400 500> 6 112<700 800> 81 75<400 500> 194 150<-100 0 200 300 500 600> 194 112<700 800> 194 75<0 200> 306 75<0 200>
LayerCount: 2
Back
Fore
SplineSet
269 0 m 29xf060
 306 0 l 25
 306 200 l 25
 269 200 l 25
 269 0 l 29xf060
194 -100 m 25xf1
 194 300 l 25
 344 300 l 25
 344 200 l 25xf1
 381 200 l 25
 381 0 l 25xf020
 344 0 l 25
 344 -100 l 25
 194 -100 l 25xf1
156 300 m 25xf2
 156 200 l 25
 44 200 l 25
 44 0 l 25
 156 0 l 25
 156 -100 l 25xfa
 6 -100 l 25
 6 0 l 25xf4
 -31 0 l 25
 -31 200 l 25xf8
 6 200 l 25
 6 300 l 25xf4
 156 300 l 25xf2
194 400 m 25xf060
 194 800 l 25
 306 800 l 25
 306 700 l 25xf080
 381 700 l 25
 381 600 l 25xf020
 344 600 l 25
 344 500 l 25xf1
 381 500 l 25
 381 400 l 25
 194 400 l 25xf060
-31 400 m 25xfa
 -31 700 l 25xfa
 6 700 l 25
 6 800 l 25
 119 800 l 25
 119 700 l 25xf4
 156 700 l 25
 156 400 l 25
 81 400 l 25
 81 500 l 25
 44 500 l 25
 44 400 l 25
 -31 400 l 25xfa
EndSplineSet
Validated: 1
EndChar

StartChar: u1F521
Encoding: 128289 128289 310
Width: 350
Flags: HW
HStem: -100 100<25 137 250 287 363 400> 0 100<-50 -13 175 213> 100 100<25 137 250 287> 400 100<25 63 137 175 287 325> 500 100<-50 -13 363 400> 600 100<25 63 287 325>
VStem: -50 75<0 100 500 600> -13 150<-100 0 100 200 600 700> 63 75<500 600> 175 75<0 100> 213 75<500 600 700 800> 287 75<0 100 200 300> 325 75<500 600>
LayerCount: 2
Back
Fore
SplineSet
250 0 m 29xa050
 287 0 l 25
 287 100 l 25
 250 100 l 25
 250 0 l 29xa050
175 0 m 25x4040
 175 100 l 25x4040
 213 100 l 25x4020
 213 200 l 25x2020
 287 200 l 25
 287 300 l 25
 363 300 l 25
 363 0 l 25xa010
 400 0 l 25
 400 -100 l 25
 213 -100 l 25xa028
 213 0 l 25x4028
 175 0 l 25x4040
25 100 m 25x22
 25 0 l 25xa2
 137 0 l 25
 137 -100 l 25
 -13 -100 l 25xa1
 -13 0 l 25x41
 -50 0 l 25
 -50 100 l 25x42
 -13 100 l 25x41
 -13 200 l 25
 137 200 l 25
 137 100 l 25x21
 25 100 l 25x22
287 500 m 25x1428
 325 500 l 25
 325 600 l 25
 287 600 l 25
 287 500 l 25x1428
213 400 m 25
 213 800 l 25
 287 800 l 25
 287 700 l 25x1420
 363 700 l 25x1410
 363 600 l 25x0810
 400 600 l 25
 400 500 l 25x0808
 363 500 l 25x0810
 363 400 l 25x1010
 213 400 l 25
25 500 m 25x1680
 63 500 l 25
 63 600 l 25
 25 600 l 25
 25 500 l 25x1680
-50 500 m 25x0a
 -50 600 l 25x0a
 -13 600 l 25x09
 -13 700 l 25
 137 700 l 25x05
 137 500 l 25x1480
 175 500 l 25
 175 400 l 25
 -13 400 l 25x1540
 -13 500 l 25x0940
 -50 500 l 25x0a
EndSplineSet
Validated: 1
EndChar

